<?xml version="1.0" encoding="utf-8" ?><svg version="1.1" xmlns = 'http://www.w3.org/2000/svg'><defs><font id='web' horiz-adv-x="1000">
<font-face font-family="web" x-height="1063" ascent="1556" descent="-492" bbox="-106,-444,2503,1821" cap-height="1434" units-per-em="2048" />
<missing-glyph horiz-adv-x="512" d="" /><glyph unicode=" " d="" horiz-adv-x="512" />
<glyph unicode="!" d="M 172 1065 L 172 1434 L 352 1434 L 352 1065 L 307 422 L 217 422 L 172 1065 Z M 170 219 L 356 219 L 356 0 L 170 0 L 170 219 Z" horiz-adv-x="528" />
<glyph unicode="&#x22;" d="M 125 1434 L 317 1434 L 227 918 L 125 920 L 125 1434 Z M 518 1434 L 711 1434 L 621 918 L 518 920 L 518 1434 Z" horiz-adv-x="827" />
<glyph unicode="#" d="M 139 848 L 422 848 L 467 1116 L 608 1116 L 563 848 L 868 848 L 913 1116 L 1055 1116 L 1010 848 L 1278 848 L 1278 719 L 989 719 L 936 406 L 1208 406 L 1208 279 L 915 279 L 870 0 L 729 0 L 774 279 L 467 279 L 422 0 L 283 0 L 328 279 L 72 279 L 72 406 L 348 406 L 401 719 L 139 719 L 139 848 Z M 489 406 L 795 406 L 848 719 L 541 719 L 489 406 Z" horiz-adv-x="1350" />
<glyph unicode="$" d="M 184 219 C 204 205 228 193 254 181 C 280 169 308 158 338 148 C 367 138 398 130 430 124 C 462 118 494 114 526 113 L 526 500 C 478 510 430 522 382 536 C 334 549 292 567 254 591 C 216 614 186 644 162 682 C 138 719 127 767 127 825 C 127 867 135 906 152 943 C 169 979 194 1012 228 1040 C 261 1068 302 1090 350 1108 C 398 1125 454 1135 518 1139 L 518 1337 L 621 1337 L 621 1139 C 687 1134 748 1124 805 1109 C 862 1094 915 1075 963 1053 L 897 928 C 857 946 812 962 764 975 C 715 988 664 997 612 1001 L 612 627 C 660 616 707 604 754 590 C 801 576 843 557 881 533 C 918 509 948 478 971 440 C 994 402 1006 353 1006 295 C 1006 253 998 213 982 177 C 966 140 943 108 911 80 C 879 52 838 28 790 10 C 742 -7 685 -19 621 -25 L 621 -272 L 518 -272 L 518 -27 C 476 -25 436 -20 398 -13 C 359 -6 322 2 287 13 C 251 24 218 37 187 51 C 156 65 128 80 104 96 L 184 219 Z M 846 291 C 846 319 839 344 827 364 C 815 384 798 401 777 415 C 756 429 731 442 703 452 C 674 462 644 471 612 479 L 612 115 C 652 117 687 124 717 134 C 746 144 770 157 789 173 C 808 188 822 206 832 226 C 841 246 846 267 846 291 Z M 289 831 C 289 802 295 778 307 758 C 319 738 336 722 358 708 C 380 694 405 682 434 672 C 462 662 493 653 526 645 L 526 1001 C 448 997 389 979 349 948 C 309 916 289 877 289 831 Z" horiz-adv-x="1108" />
<glyph unicode="%" d="M 1239 1116 L 414 0 L 283 0 L 1108 1116 L 1239 1116 Z M 106 852 C 106 892 113 930 129 965 C 144 1000 165 1030 191 1056 C 217 1082 249 1102 285 1117 C 321 1131 359 1139 401 1139 C 442 1139 481 1131 517 1117 C 553 1102 584 1082 610 1056 C 636 1030 657 1000 673 965 C 688 930 696 892 696 852 C 696 810 688 772 673 737 C 658 701 637 671 611 645 C 585 619 554 599 518 585 C 482 570 443 563 401 563 C 359 563 320 570 284 585 C 248 599 216 619 190 645 C 164 671 143 701 128 737 C 113 772 106 810 106 852 Z M 223 852 C 223 826 227 801 236 779 C 245 757 258 737 274 721 C 290 704 309 691 331 682 C 353 672 377 668 403 668 C 429 668 452 672 474 682 C 496 691 515 704 531 721 C 547 737 559 757 568 779 C 577 801 582 826 582 852 C 582 877 577 901 568 923 C 559 945 547 965 531 981 C 515 997 496 1010 474 1020 C 452 1029 429 1034 403 1034 C 377 1034 353 1029 331 1020 C 309 1010 290 997 274 981 C 258 965 245 945 236 923 C 227 901 223 877 223 852 Z M 829 266 C 829 306 836 344 852 379 C 867 414 888 444 915 470 C 942 496 974 516 1010 531 C 1046 545 1084 553 1126 553 C 1167 553 1206 545 1242 531 C 1278 516 1309 496 1335 470 C 1361 444 1382 414 1398 379 C 1413 344 1421 306 1421 266 C 1421 224 1413 186 1398 151 C 1382 115 1361 85 1335 59 C 1309 33 1278 13 1242 -1 C 1206 -15 1167 -23 1126 -23 C 1084 -23 1044 -15 1008 -1 C 972 13 940 33 914 59 C 888 85 867 115 852 151 C 836 186 829 224 829 266 Z M 946 266 C 946 240 950 215 960 193 C 969 171 982 151 998 135 C 1014 118 1033 105 1055 96 C 1077 86 1100 82 1126 82 C 1152 82 1175 86 1197 96 C 1219 105 1238 118 1254 135 C 1270 151 1282 171 1291 193 C 1300 215 1305 240 1305 266 C 1305 292 1300 316 1291 338 C 1282 360 1270 379 1254 396 C 1238 412 1219 425 1197 435 C 1175 444 1152 449 1126 449 C 1100 449 1077 444 1055 435 C 1033 425 1014 412 998 396 C 982 379 969 360 960 338 C 950 316 946 292 946 266 Z" horiz-adv-x="1528" />
<glyph unicode="&#x26;" d="M 90 397 C 90 447 97 493 113 536 C 129 578 150 618 177 654 C 204 690 236 724 273 754 C 309 784 349 812 391 836 C 357 880 330 924 312 970 C 294 1016 285 1064 285 1114 C 285 1160 294 1204 312 1246 C 330 1288 356 1324 390 1356 C 423 1387 463 1412 511 1430 C 558 1448 610 1458 668 1458 C 746 1458 816 1442 876 1411 C 936 1380 988 1340 1030 1292 L 920 1198 C 888 1234 850 1263 807 1286 C 763 1309 716 1321 664 1321 C 630 1321 601 1315 575 1304 C 549 1293 526 1278 508 1259 C 489 1240 475 1218 465 1194 C 455 1169 451 1143 451 1116 C 451 1070 463 1025 487 981 C 511 936 544 891 584 846 C 660 765 739 689 822 617 C 904 545 991 473 1083 403 C 1111 451 1132 502 1148 556 C 1163 610 1171 667 1171 727 L 1325 727 C 1325 650 1314 577 1293 507 C 1271 437 1242 373 1204 313 C 1248 280 1292 247 1338 215 C 1384 182 1431 149 1479 117 L 1384 -8 C 1338 24 1292 57 1246 90 C 1200 123 1153 157 1106 193 C 1040 125 963 72 875 33 C 787 -5 692 -25 588 -25 C 506 -25 435 -13 373 10 C 311 34 259 65 217 104 C 175 143 143 188 122 239 C 100 290 90 343 90 397 Z M 989 283 C 898 353 809 425 723 500 C 637 574 554 653 475 737 C 443 719 413 698 386 676 C 358 653 335 628 315 601 C 295 573 279 544 268 512 C 257 480 252 446 252 410 C 252 370 259 333 274 299 C 288 264 310 233 339 207 C 368 180 404 159 447 144 C 490 128 540 121 596 121 C 673 121 745 135 812 164 C 878 192 937 232 989 283 Z" horiz-adv-x="1526" />
<glyph unicode="'" d="M 125 1434 L 317 1434 L 227 918 L 125 920 L 125 1434 Z" horiz-adv-x="432" />
<glyph unicode="(" d="M 125 567 C 125 673 135 774 155 868 C 175 962 203 1049 237 1131 C 271 1212 310 1287 355 1356 C 400 1425 448 1488 498 1546 L 692 1546 C 642 1495 593 1436 545 1369 C 497 1302 454 1228 416 1146 C 378 1064 348 974 325 878 C 302 781 291 677 291 567 C 291 456 302 352 325 256 C 348 160 378 71 416 -10 C 454 -92 497 -166 545 -233 C 593 -299 642 -358 692 -410 L 500 -410 C 450 -352 402 -288 357 -219 C 311 -150 271 -75 237 5 C 203 86 175 173 155 267 C 135 360 125 460 125 567 Z" horiz-adv-x="780" />
<glyph unicode=")" d="M 655 567 C 655 460 644 360 624 267 C 604 173 577 86 543 5 C 509 -75 469 -150 424 -219 C 378 -288 331 -352 281 -410 L 88 -410 C 138 -358 187 -299 235 -233 C 283 -166 326 -92 364 -10 C 401 71 431 160 454 256 C 477 352 489 456 489 567 C 489 677 477 781 454 878 C 431 974 401 1064 364 1146 C 326 1228 283 1302 235 1369 C 187 1436 138 1495 88 1546 L 283 1546 C 332 1488 379 1425 424 1356 C 469 1287 509 1212 543 1131 C 577 1049 604 962 624 868 C 644 774 655 673 655 567 Z" horiz-adv-x="780" />
<glyph unicode="*" d="M 377 1092 L 373 1094 L 96 1061 L 98 1202 L 375 1176 L 377 1180 L 268 1432 L 391 1466 L 457 1202 L 461 1200 L 670 1374 L 748 1268 L 510 1135 L 510 1128 L 748 987 L 666 883 L 461 1063 L 457 1061 L 385 791 L 264 831 L 377 1092 Z" horiz-adv-x="864" />
<glyph unicode="+" d="M 96 606 L 549 606 L 549 1065 L 709 1065 L 709 606 L 1161 606 L 1161 459 L 709 459 L 709 0 L 549 0 L 549 459 L 96 459 L 96 606 Z" horiz-adv-x="1257" />
<glyph unicode="," d="M 129 240 L 319 240 L 319 41 C 319 -3 315 -42 307 -76 C 299 -110 286 -140 270 -166 C 254 -192 233 -214 209 -233 C 184 -251 155 -268 121 -283 L 78 -207 C 122 -185 154 -158 174 -124 C 194 -90 205 -49 205 0 L 129 0 L 129 240 Z" horiz-adv-x="446" />
<glyph unicode="-" d="M 90 612 L 688 612 L 688 461 L 90 461 L 90 612 Z" horiz-adv-x="776" />
<glyph unicode="." d="M 129 240 L 319 240 L 319 0 L 129 0 L 129 240 Z" horiz-adv-x="446" />
<glyph unicode="/" d="M 887 1546 L 1057 1546 L 150 -410 L -23 -410 L 887 1546 Z" horiz-adv-x="1034" />
<glyph unicode="0" d="M 113 559 C 113 645 128 724 158 796 C 188 867 228 928 279 979 C 330 1030 390 1069 458 1097 C 526 1125 598 1139 674 1139 C 751 1139 824 1125 892 1097 C 960 1069 1020 1030 1072 979 C 1123 928 1164 867 1194 796 C 1224 724 1239 645 1239 559 C 1239 471 1224 391 1194 319 C 1164 247 1123 185 1072 134 C 1020 83 960 44 892 16 C 824 -11 751 -25 674 -25 C 623 -25 574 -18 526 -6 C 478 6 434 24 393 48 C 351 72 313 101 279 135 C 245 169 215 207 191 251 C 166 294 147 341 133 393 C 119 445 113 500 113 559 Z M 287 559 C 287 495 296 437 316 383 C 335 329 362 283 397 244 C 431 205 472 175 519 153 C 566 131 618 121 674 121 C 730 121 782 131 830 153 C 878 175 919 205 954 244 C 988 283 1015 329 1035 383 C 1055 437 1065 495 1065 559 C 1065 622 1055 680 1035 734 C 1015 787 988 833 954 871 C 919 909 878 939 830 961 C 782 982 730 993 674 993 C 618 993 566 982 519 961 C 472 939 431 909 397 871 C 362 833 335 787 316 734 C 296 680 287 622 287 559 Z" horiz-adv-x="1352" />
<glyph unicode="1" d="M 401 0 L 401 954 L 156 852 L 94 981 L 440 1126 L 573 1126 L 573 0 L 401 0 Z" horiz-adv-x="819" />
<glyph unicode="2" d="M 141 0 L 139 47 C 137 113 147 171 169 219 C 191 267 220 310 257 346 C 294 382 336 413 384 439 C 432 465 481 488 531 509 C 581 530 630 550 678 569 C 726 587 770 607 808 629 C 846 651 876 675 899 702 C 922 729 934 761 934 799 C 934 830 926 858 912 883 C 898 907 878 928 852 946 C 826 963 796 976 761 985 C 726 994 688 999 647 999 C 607 999 569 995 531 987 C 493 979 456 967 422 953 C 387 938 354 921 323 901 C 291 881 262 858 236 834 L 137 948 C 169 976 204 1001 242 1025 C 280 1048 320 1068 363 1085 C 406 1102 451 1115 498 1125 C 545 1134 593 1139 643 1139 C 713 1139 776 1131 833 1115 C 890 1099 939 1077 980 1048 C 1020 1018 1052 983 1074 942 C 1096 900 1108 854 1108 803 C 1108 753 1097 709 1076 672 C 1054 635 1026 602 991 574 C 955 546 915 521 869 499 C 823 477 777 457 729 438 C 681 419 634 400 588 382 C 541 363 499 342 461 320 C 423 297 392 271 368 243 C 343 215 328 181 324 143 L 1108 143 L 1108 0 L 141 0 Z" horiz-adv-x="1233" />
<glyph unicode="3" d="M 158 -109 C 182 -121 209 -132 237 -143 C 265 -154 295 -164 327 -172 C 358 -180 390 -187 424 -192 C 458 -196 492 -199 526 -199 C 588 -199 646 -192 699 -178 C 751 -164 797 -144 835 -118 C 873 -92 903 -60 925 -22 C 947 15 958 58 958 106 C 958 151 948 190 929 222 C 909 254 883 280 851 300 C 818 320 780 334 737 344 C 693 353 648 358 600 358 L 406 358 L 406 496 L 594 496 C 638 496 680 501 718 512 C 756 522 788 538 816 560 C 844 581 865 608 881 641 C 897 673 905 712 905 756 C 905 790 897 821 882 851 C 866 881 844 907 815 929 C 786 951 751 968 709 980 C 667 992 620 999 567 999 C 533 999 499 995 465 987 C 431 979 397 968 365 954 C 332 940 301 923 271 903 C 241 883 213 862 188 840 L 92 954 C 124 981 158 1006 194 1029 C 230 1052 269 1072 310 1089 C 350 1106 393 1119 437 1129 C 481 1138 527 1143 575 1143 C 650 1143 718 1133 780 1115 C 842 1096 895 1070 939 1036 C 983 1002 1017 963 1041 917 C 1065 871 1077 820 1077 766 C 1077 724 1071 685 1059 651 C 1047 616 1030 585 1008 558 C 986 531 959 508 928 488 C 897 468 863 452 825 440 C 869 428 910 413 948 394 C 986 374 1018 351 1046 323 C 1073 295 1094 262 1110 225 C 1125 187 1133 145 1133 98 C 1133 27 1117 -35 1085 -90 C 1053 -144 1010 -190 956 -228 C 901 -265 837 -293 763 -313 C 689 -332 611 -342 528 -342 C 446 -342 367 -332 292 -314 C 217 -295 150 -272 92 -244 L 158 -109 Z" horiz-adv-x="1206" />
<glyph unicode="4" d="M 76 139 L 831 1118 L 1020 1118 L 1020 141 L 1245 141 L 1245 2 L 1020 2 L 1020 -317 L 852 -317 L 852 2 L 131 2 L 76 139 Z M 852 141 L 852 932 L 256 141 L 852 141 Z" horiz-adv-x="1303" />
<glyph unicode="5" d="M 162 -106 C 209 -132 263 -153 325 -171 C 387 -188 451 -197 518 -197 C 576 -197 630 -189 680 -173 C 729 -157 771 -135 807 -106 C 843 -76 870 -41 890 0 C 910 42 920 89 920 141 C 920 186 911 227 895 265 C 878 302 854 334 824 361 C 793 388 756 409 712 424 C 668 438 619 446 565 446 C 525 446 479 440 429 429 C 378 418 326 403 274 385 L 172 451 L 199 1116 L 1010 1116 L 1012 977 L 354 977 L 336 526 C 377 543 422 557 470 569 C 518 580 566 586 612 586 C 681 586 745 575 804 554 C 862 533 913 503 956 465 C 999 426 1033 379 1057 325 C 1081 270 1094 209 1094 141 C 1094 65 1079 -3 1049 -63 C 1019 -123 978 -173 926 -215 C 874 -256 812 -287 742 -309 C 672 -331 596 -342 516 -342 C 431 -342 353 -332 283 -314 C 213 -296 150 -272 96 -242 L 162 -106 Z" horiz-adv-x="1182" />
<glyph unicode="6" d="M 119 672 C 119 766 127 851 143 927 C 159 1003 182 1070 212 1128 C 241 1186 275 1236 315 1278 C 355 1320 398 1354 445 1381 C 492 1407 542 1427 594 1439 C 646 1451 698 1458 752 1458 C 820 1458 882 1451 940 1438 C 998 1424 1053 1405 1106 1380 L 1038 1253 C 999 1270 956 1285 908 1298 C 860 1310 808 1317 752 1317 C 694 1317 638 1306 584 1284 C 530 1262 481 1227 439 1180 C 397 1133 362 1072 336 998 C 310 923 295 833 293 729 C 317 753 346 776 378 798 C 410 820 444 838 481 854 C 517 870 556 882 596 891 C 636 900 676 905 717 905 C 785 905 847 894 904 873 C 960 852 1009 822 1050 783 C 1091 743 1123 696 1146 640 C 1168 584 1180 521 1180 451 C 1180 388 1168 328 1145 271 C 1121 213 1088 163 1044 119 C 1000 75 947 40 884 14 C 821 -12 750 -25 670 -25 C 570 -25 486 -6 416 30 C 346 67 290 117 246 181 C 202 245 169 319 149 403 C 129 487 119 577 119 672 Z M 295 590 C 299 521 309 458 326 400 C 342 342 366 292 396 250 C 426 208 464 175 510 152 C 556 128 610 117 672 117 C 724 117 772 126 814 144 C 856 162 891 186 920 217 C 949 247 971 283 987 323 C 1002 363 1010 406 1010 451 C 1010 499 1002 542 987 582 C 971 622 950 656 922 684 C 894 712 861 734 822 750 C 783 766 740 774 692 774 C 652 774 613 769 575 759 C 536 749 499 736 464 719 C 429 702 397 682 368 660 C 339 638 315 614 295 590 Z" horiz-adv-x="1286" />
<glyph unicode="7" d="M 899 969 L 90 969 L 90 1116 L 1081 1116 L 1081 993 L 487 -317 L 301 -317 L 899 969 Z" horiz-adv-x="1176" />
<glyph unicode="8" d="M 111 373 C 111 422 120 467 140 507 C 159 547 185 583 218 614 C 250 645 288 672 332 694 C 375 716 421 733 469 745 C 428 755 390 771 354 791 C 318 811 287 835 261 863 C 235 891 214 922 199 958 C 183 994 176 1033 176 1075 C 176 1133 188 1186 213 1234 C 238 1281 273 1321 318 1355 C 362 1388 415 1413 476 1431 C 536 1449 602 1458 674 1458 C 744 1458 810 1449 871 1431 C 931 1413 984 1388 1028 1355 C 1072 1321 1106 1281 1131 1234 C 1156 1186 1169 1133 1169 1075 C 1169 1033 1161 994 1146 958 C 1130 922 1109 891 1083 863 C 1057 835 1026 811 990 791 C 954 771 917 755 877 745 C 925 733 970 716 1014 694 C 1057 672 1095 645 1128 614 C 1160 583 1186 547 1206 507 C 1225 467 1235 422 1235 373 C 1235 309 1221 253 1193 204 C 1165 154 1126 113 1076 79 C 1026 45 967 19 899 1 C 830 -16 755 -25 674 -25 C 592 -25 517 -16 448 1 C 379 19 320 45 270 79 C 220 113 181 154 153 204 C 125 253 111 309 111 373 Z M 283 379 C 283 337 292 300 312 267 C 332 234 359 206 394 183 C 428 160 470 143 518 131 C 566 119 618 113 674 113 C 730 113 781 119 829 131 C 876 143 917 160 952 183 C 986 206 1013 234 1033 267 C 1053 300 1063 337 1063 379 C 1063 421 1052 460 1031 494 C 1010 528 982 557 946 582 C 910 606 869 626 822 642 C 775 657 726 668 674 674 C 622 668 572 657 525 642 C 477 626 436 606 400 582 C 364 557 335 528 314 494 C 293 460 283 421 283 379 Z M 674 809 C 722 813 765 823 805 837 C 845 851 879 869 907 892 C 935 914 957 941 973 971 C 989 1001 997 1035 997 1073 C 997 1110 988 1144 972 1175 C 956 1205 933 1231 904 1253 C 875 1275 841 1291 802 1303 C 762 1315 720 1321 674 1321 C 627 1321 584 1315 544 1303 C 504 1291 470 1275 442 1253 C 413 1231 390 1205 374 1175 C 358 1144 350 1110 350 1073 C 350 1035 357 1001 373 971 C 389 941 411 914 439 892 C 467 869 502 851 542 837 C 582 823 626 813 674 809 Z" horiz-adv-x="1346" />
<glyph unicode="9" d="M 236 -119 C 272 -142 315 -162 365 -178 C 415 -194 473 -203 537 -203 C 595 -203 651 -192 705 -170 C 759 -148 807 -114 849 -67 C 891 -20 925 40 951 115 C 977 189 991 279 995 385 C 969 359 941 336 909 315 C 877 293 844 275 808 259 C 772 243 734 231 695 222 C 655 213 615 209 575 209 C 506 209 443 219 385 241 C 327 262 276 292 234 332 C 192 371 159 419 135 475 C 111 531 100 594 100 664 C 100 726 111 786 134 844 C 157 901 190 951 234 995 C 278 1039 331 1074 395 1100 C 458 1126 530 1139 610 1139 C 710 1139 795 1120 866 1083 C 936 1046 994 996 1039 932 C 1084 868 1117 794 1138 710 C 1158 626 1169 536 1169 442 C 1169 346 1160 261 1144 185 C 1128 109 1105 42 1076 -15 C 1047 -73 1013 -123 973 -165 C 933 -206 890 -240 843 -267 C 796 -293 747 -313 695 -325 C 643 -337 590 -344 537 -344 C 462 -344 393 -334 329 -315 C 265 -296 208 -272 158 -242 L 236 -119 Z M 602 342 C 641 342 680 346 718 356 C 756 366 793 379 827 395 C 861 411 892 430 920 452 C 948 474 973 497 993 522 C 989 590 978 654 961 712 C 943 770 919 820 887 862 C 855 904 816 937 770 961 C 724 985 670 997 608 997 C 554 997 506 988 464 970 C 422 952 387 927 358 897 C 329 867 307 832 292 792 C 277 752 270 710 270 666 C 270 618 278 574 294 534 C 310 494 333 459 363 431 C 392 403 427 381 468 365 C 508 349 553 342 602 342 Z" horiz-adv-x="1282" />
<glyph unicode=":" d="M 129 240 L 319 240 L 319 0 L 129 0 L 129 240 Z M 129 1065 L 319 1065 L 319 825 L 129 825 L 129 1065 Z" horiz-adv-x="446" />
<glyph unicode=";" d="M 129 240 L 319 240 L 319 41 C 319 -3 315 -42 307 -76 C 299 -110 286 -140 270 -166 C 254 -192 233 -214 209 -233 C 184 -251 155 -268 121 -283 L 78 -207 C 122 -185 154 -158 174 -124 C 194 -90 205 -49 205 0 L 129 0 L 129 240 Z M 129 1065 L 319 1065 L 319 825 L 129 825 L 129 1065 Z" horiz-adv-x="446" />
<glyph unicode="&#x3C;" d="M 1167 0 L 84 455 L 84 610 L 1167 1065 L 1167 889 L 281 535 L 1167 172 L 1167 0 Z" horiz-adv-x="1292" />
<glyph unicode="=" d="M 96 854 L 1161 854 L 1161 707 L 96 707 L 96 854 Z M 96 358 L 1161 358 L 1161 211 L 96 211 L 96 358 Z" horiz-adv-x="1257" />
<glyph unicode="&#x3E;" d="M 125 172 L 1012 535 L 125 889 L 125 1065 L 1208 610 L 1208 455 L 125 0 L 125 172 Z" horiz-adv-x="1292" />
<glyph unicode="?" d="M 393 422 C 393 422 392 425 392 429 C 392 433 392 438 392 443 C 392 448 391 453 391 458 C 391 462 391 465 391 467 C 391 513 396 554 408 589 C 420 623 435 654 454 681 C 473 707 495 731 520 751 C 544 771 569 791 595 809 C 620 827 645 844 670 862 C 694 880 716 899 735 920 C 754 941 769 965 781 991 C 793 1017 799 1047 799 1083 C 799 1116 792 1147 778 1175 C 764 1203 745 1228 720 1248 C 695 1268 665 1284 630 1296 C 595 1307 556 1313 514 1313 C 450 1313 391 1299 337 1272 C 283 1244 234 1209 188 1165 L 82 1266 C 138 1324 202 1371 274 1406 C 346 1440 426 1458 516 1458 C 584 1458 647 1449 703 1431 C 759 1413 806 1389 846 1357 C 886 1325 916 1286 938 1241 C 960 1196 971 1146 971 1092 C 971 1030 960 977 938 935 C 916 893 889 856 857 824 C 824 792 789 764 751 739 C 713 714 677 688 644 661 C 611 634 584 604 562 571 C 540 537 528 497 528 449 L 528 422 L 393 422 Z M 369 219 L 555 219 L 555 0 L 369 0 L 369 219 Z" horiz-adv-x="1075" />
<glyph unicode="@" d="M 137 573 C 137 641 145 707 163 771 C 181 834 206 893 238 949 C 270 1004 309 1054 355 1099 C 400 1144 450 1183 505 1215 C 560 1247 619 1272 683 1290 C 747 1308 813 1317 883 1317 C 984 1317 1077 1300 1162 1267 C 1247 1233 1320 1187 1382 1127 C 1443 1067 1491 997 1525 915 C 1559 833 1577 745 1577 649 C 1577 569 1565 499 1541 439 C 1517 378 1487 327 1449 286 C 1411 245 1368 214 1321 193 C 1273 172 1226 162 1180 162 C 1148 162 1119 166 1095 174 C 1071 182 1050 193 1033 207 C 1016 221 1002 238 992 257 C 982 276 975 297 973 319 C 945 282 909 251 867 227 C 825 202 778 190 727 190 C 692 190 660 196 630 209 C 600 221 575 239 554 263 C 532 286 515 315 503 349 C 491 383 485 421 485 465 C 485 502 489 540 497 580 C 505 620 518 658 534 696 C 550 733 569 768 593 801 C 617 834 644 863 675 888 C 705 913 739 933 777 947 C 815 961 856 969 901 969 C 923 969 945 966 965 960 C 985 954 1003 947 1019 938 C 1035 928 1050 918 1063 906 C 1075 894 1086 882 1096 870 L 1126 948 L 1239 948 L 1096 451 C 1078 389 1078 340 1096 305 C 1114 269 1148 252 1198 252 C 1232 252 1267 260 1301 278 C 1335 296 1365 322 1392 356 C 1419 390 1441 431 1458 480 C 1474 529 1483 585 1483 649 C 1483 733 1468 810 1438 880 C 1408 950 1367 1011 1314 1062 C 1261 1112 1198 1152 1125 1180 C 1051 1208 971 1223 883 1223 C 793 1223 708 1206 630 1172 C 551 1138 482 1091 423 1032 C 364 973 318 904 284 826 C 250 747 233 663 233 573 C 233 514 240 457 256 402 C 271 347 293 296 321 248 C 349 200 383 157 423 118 C 463 78 507 44 555 16 C 603 -11 654 -33 710 -49 C 765 -64 823 -72 883 -72 C 947 -72 1008 -63 1066 -45 C 1124 -27 1179 -3 1231 29 L 1284 -49 C 1225 -87 1162 -116 1095 -137 C 1027 -157 957 -168 883 -168 C 814 -168 748 -159 684 -141 C 620 -123 560 -99 505 -67 C 450 -35 400 3 355 49 C 309 94 270 144 238 199 C 206 253 181 312 163 376 C 145 439 137 505 137 573 Z M 614 471 C 614 416 626 373 651 342 C 676 310 712 295 758 295 C 780 295 803 299 826 307 C 848 315 870 327 890 343 C 910 359 928 380 944 406 C 960 431 973 461 983 496 L 1067 786 C 1050 805 1029 822 1004 838 C 978 854 946 862 907 862 C 876 862 848 856 822 844 C 796 832 772 817 750 797 C 728 777 709 755 692 729 C 675 703 661 675 649 646 C 637 617 629 587 623 557 C 617 527 614 498 614 471 Z" horiz-adv-x="1714" />
<glyph unicode="A" d="M 604 1434 L 813 1434 L 1354 0 L 1165 0 L 1036 352 L 379 352 L 252 0 L 61 0 L 604 1434 Z M 430 494 L 985 494 L 709 1255 L 705 1255 L 430 494 Z" horiz-adv-x="1417" />
<glyph unicode="B" d="M 172 1434 L 735 1434 C 815 1434 885 1424 945 1405 C 1005 1385 1054 1359 1093 1325 C 1131 1291 1160 1252 1179 1207 C 1198 1161 1208 1113 1208 1061 C 1208 1019 1202 982 1191 948 C 1179 914 1163 884 1143 858 C 1122 831 1097 808 1069 789 C 1040 769 1009 753 975 741 C 1017 729 1057 714 1093 694 C 1129 674 1159 650 1185 622 C 1210 594 1230 561 1244 525 C 1258 488 1266 447 1266 401 C 1266 337 1254 280 1232 230 C 1209 180 1177 138 1135 104 C 1093 70 1041 44 981 26 C 921 8 853 0 778 0 L 172 0 L 172 1434 Z M 776 147 C 875 147 952 169 1006 214 C 1060 258 1087 324 1087 412 C 1087 452 1079 487 1064 518 C 1048 548 1027 574 999 595 C 971 616 939 632 901 643 C 863 653 821 659 776 659 L 346 659 L 346 147 L 776 147 Z M 727 799 C 779 799 824 805 862 818 C 900 831 932 849 957 872 C 981 894 1000 921 1012 951 C 1024 981 1030 1014 1030 1049 C 1030 1081 1024 1112 1012 1141 C 1000 1169 981 1194 957 1216 C 932 1238 900 1255 862 1267 C 824 1279 779 1286 727 1286 L 346 1286 L 346 799 L 727 799 Z" horiz-adv-x="1380" />
<glyph unicode="C" d="M 113 731 C 113 838 130 936 166 1026 C 201 1115 250 1192 314 1256 C 377 1320 453 1369 542 1405 C 630 1440 728 1458 836 1458 C 924 1458 1009 1445 1090 1419 C 1170 1393 1244 1354 1311 1303 L 1217 1176 C 1161 1218 1101 1250 1038 1273 C 975 1295 908 1307 838 1307 C 756 1307 681 1293 614 1265 C 546 1237 488 1198 440 1148 C 392 1098 354 1037 328 967 C 302 896 289 817 289 731 C 289 640 302 558 328 484 C 354 410 390 346 438 293 C 486 240 543 199 611 170 C 679 141 754 127 838 127 C 916 127 988 140 1055 167 C 1122 193 1182 232 1235 283 L 1343 168 C 1275 103 1198 55 1112 23 C 1026 -9 932 -25 831 -25 C 723 -25 625 -6 537 30 C 449 66 373 118 310 185 C 247 251 198 331 164 424 C 130 516 113 619 113 731 Z" horiz-adv-x="1454" />
<glyph unicode="D" d="M 172 1434 L 586 1434 C 710 1434 819 1417 915 1385 C 1010 1352 1090 1305 1155 1244 C 1219 1183 1268 1109 1302 1021 C 1335 933 1352 835 1352 725 C 1352 611 1336 510 1305 420 C 1273 330 1226 254 1162 192 C 1098 130 1019 82 923 49 C 827 16 714 0 586 0 L 172 0 L 172 1434 Z M 596 147 C 692 147 777 160 850 187 C 922 213 983 252 1031 302 C 1079 352 1116 412 1140 484 C 1164 555 1176 635 1176 725 C 1176 811 1163 888 1138 958 C 1112 1027 1075 1086 1026 1134 C 977 1182 917 1220 845 1246 C 773 1272 690 1286 596 1286 L 346 1286 L 346 147 L 596 147 Z" horiz-adv-x="1460" />
<glyph unicode="E" d="M 172 1434 L 1155 1434 L 1155 1278 L 346 1278 L 346 803 L 1075 803 L 1075 657 L 346 657 L 346 156 L 1167 156 L 1167 0 L 172 0 L 172 1434 Z" horiz-adv-x="1300" />
<glyph unicode="F" d="M 172 1434 L 1139 1434 L 1139 1278 L 346 1278 L 346 791 L 1042 791 L 1042 641 L 346 641 L 346 0 L 172 0 L 172 1434 Z" horiz-adv-x="1266" />
<glyph unicode="G" d="M 113 731 C 113 837 130 935 164 1024 C 198 1113 247 1190 310 1254 C 373 1318 449 1368 538 1404 C 627 1440 726 1458 836 1458 C 927 1458 1013 1445 1093 1421 C 1173 1397 1248 1362 1317 1317 L 1227 1190 C 1170 1227 1109 1256 1045 1276 C 980 1296 912 1307 840 1307 C 757 1307 682 1293 615 1265 C 547 1237 490 1197 442 1146 C 394 1095 356 1034 330 964 C 304 893 291 815 291 731 C 291 639 303 555 328 481 C 353 406 389 342 436 290 C 483 238 541 197 609 169 C 677 141 754 127 840 127 C 904 127 966 134 1024 150 C 1082 165 1132 185 1174 211 L 1174 621 L 774 621 L 774 754 L 1335 754 L 1335 121 C 1268 75 1192 39 1106 13 C 1020 -12 930 -25 836 -25 C 724 -25 624 -7 535 29 C 445 65 369 116 307 182 C 245 248 197 327 163 420 C 129 513 113 617 113 731 Z" horiz-adv-x="1489" />
<glyph unicode="H" d="M 172 1434 L 346 1434 L 346 807 L 1092 807 L 1092 1434 L 1266 1434 L 1266 0 L 1092 0 L 1092 653 L 346 653 L 346 0 L 172 0 L 172 1434 Z" horiz-adv-x="1438" />
<glyph unicode="I" d="M 172 1434 L 346 1434 L 346 0 L 172 0 L 172 1434 Z" horiz-adv-x="516" />
<glyph unicode="J" d="M 240 352 C 252 321 268 292 286 265 C 304 238 325 215 350 195 C 374 175 402 159 433 148 C 464 136 499 131 539 131 C 588 131 631 139 667 155 C 703 171 734 194 758 224 C 782 254 799 290 811 332 C 823 374 829 421 829 473 L 829 1434 L 1004 1434 L 1004 471 C 1004 394 994 325 975 264 C 955 202 926 150 888 108 C 850 65 802 32 745 9 C 688 -13 622 -25 547 -25 C 491 -25 439 -17 393 -2 C 346 13 304 34 267 60 C 229 86 196 118 168 154 C 140 190 116 230 98 272 L 240 352 Z" horiz-adv-x="1169" />
<glyph unicode="K" d="M 172 1434 L 346 1434 L 346 633 L 1040 1434 L 1243 1434 L 776 897 L 1298 0 L 1094 0 L 662 766 L 346 406 L 346 0 L 172 0 L 172 1434 Z" horiz-adv-x="1372" />
<glyph unicode="L" d="M 172 1434 L 346 1434 L 346 156 L 1149 156 L 1149 0 L 172 0 L 172 1434 Z" horiz-adv-x="1239" />
<glyph unicode="M" d="M 172 1434 L 360 1434 L 872 690 L 1384 1434 L 1571 1434 L 1571 0 L 1401 0 L 1401 1186 L 870 424 L 340 1188 L 340 0 L 172 0 L 172 1434 Z" horiz-adv-x="1741" />
<glyph unicode="N" d="M 172 1434 L 348 1434 L 1145 270 L 1145 1434 L 1313 1434 L 1313 0 L 1135 0 L 340 1161 L 340 0 L 172 0 L 172 1434 Z" horiz-adv-x="1485" />
<glyph unicode="O" d="M 113 727 C 113 837 131 938 168 1028 C 204 1118 255 1194 319 1258 C 383 1322 459 1371 547 1406 C 634 1440 728 1458 829 1458 C 929 1458 1023 1440 1110 1406 C 1197 1371 1273 1322 1338 1258 C 1402 1194 1453 1118 1490 1028 C 1527 938 1546 837 1546 727 C 1546 611 1527 507 1491 415 C 1454 322 1403 243 1339 178 C 1275 112 1199 62 1112 27 C 1024 -7 930 -25 829 -25 C 727 -25 633 -7 546 27 C 458 62 383 112 319 178 C 255 243 204 322 168 415 C 131 507 113 611 113 727 Z M 291 727 C 291 633 304 549 332 475 C 360 401 398 338 446 286 C 494 234 551 195 617 168 C 682 140 753 127 829 127 C 904 127 974 140 1040 168 C 1106 195 1163 234 1211 286 C 1259 338 1298 401 1326 475 C 1354 549 1368 633 1368 727 C 1368 815 1354 895 1326 967 C 1298 1038 1259 1099 1211 1149 C 1163 1199 1106 1238 1040 1266 C 974 1293 904 1307 829 1307 C 753 1307 683 1293 618 1266 C 552 1238 495 1199 447 1149 C 398 1099 360 1038 332 967 C 304 895 291 815 291 727 Z" horiz-adv-x="1657" />
<glyph unicode="P" d="M 172 1434 L 741 1434 C 833 1434 910 1421 973 1397 C 1036 1372 1087 1340 1126 1300 C 1165 1260 1193 1214 1211 1163 C 1228 1111 1237 1059 1237 1006 C 1237 954 1228 903 1211 852 C 1193 800 1165 754 1126 713 C 1086 671 1035 638 972 612 C 908 586 831 573 739 573 L 346 573 L 346 0 L 172 0 L 172 1434 Z M 737 717 C 795 717 845 725 887 742 C 928 758 962 780 988 807 C 1014 834 1033 865 1045 899 C 1057 933 1063 968 1063 1004 C 1063 1040 1057 1075 1045 1109 C 1033 1143 1015 1173 989 1199 C 963 1225 930 1246 890 1262 C 849 1278 799 1286 741 1286 L 346 1286 L 346 717 L 737 717 Z" horiz-adv-x="1354" />
<glyph unicode="Q" d="M 113 727 C 113 837 131 938 168 1028 C 204 1118 255 1194 319 1258 C 383 1322 459 1371 547 1406 C 634 1440 728 1458 829 1458 C 929 1458 1023 1440 1110 1406 C 1197 1371 1273 1322 1338 1258 C 1402 1194 1453 1118 1490 1028 C 1527 938 1546 837 1546 727 C 1546 623 1531 530 1503 446 C 1474 362 1434 289 1382 225 L 1565 72 L 1466 -33 L 1284 129 C 1222 79 1152 40 1076 14 C 999 -11 917 -25 829 -25 C 727 -25 633 -7 546 27 C 458 62 383 112 319 178 C 255 243 204 322 168 415 C 131 507 113 611 113 727 Z M 989 571 L 1253 336 C 1289 386 1317 443 1337 508 C 1357 573 1368 646 1368 727 C 1368 815 1354 895 1326 967 C 1298 1038 1259 1099 1211 1149 C 1163 1199 1106 1238 1040 1266 C 974 1293 904 1307 829 1307 C 753 1307 683 1293 618 1266 C 552 1238 495 1199 447 1149 C 398 1099 360 1038 332 967 C 304 895 291 815 291 727 C 291 633 304 549 332 475 C 360 401 398 338 446 286 C 494 234 551 195 617 168 C 682 140 753 127 829 127 C 893 127 953 136 1009 156 C 1065 176 1115 204 1161 242 L 897 467 L 989 571 Z" horiz-adv-x="1673" />
<glyph unicode="R" d="M 172 1434 L 772 1434 C 863 1434 940 1421 1003 1397 C 1065 1372 1116 1340 1155 1300 C 1194 1260 1222 1214 1240 1163 C 1257 1111 1266 1059 1266 1006 C 1266 962 1260 920 1248 879 C 1236 837 1217 799 1192 763 C 1167 727 1136 696 1098 668 C 1060 640 1015 618 963 602 L 1268 0 L 1075 0 L 801 578 L 346 578 L 346 0 L 172 0 L 172 1434 Z M 768 717 C 826 717 875 725 916 741 C 956 757 989 779 1015 806 C 1041 833 1060 864 1072 898 C 1084 932 1090 968 1090 1004 C 1090 1040 1084 1076 1072 1110 C 1060 1144 1042 1174 1016 1200 C 990 1226 957 1246 917 1262 C 877 1278 828 1286 770 1286 L 346 1286 L 346 717 L 768 717 Z" horiz-adv-x="1399" />
<glyph unicode="S" d="M 193 262 C 221 243 251 226 285 210 C 318 194 353 180 391 168 C 429 156 468 147 509 141 C 549 134 591 131 635 131 C 691 131 741 137 783 149 C 825 161 860 177 888 199 C 916 221 936 247 950 277 C 964 307 971 339 971 375 C 971 413 963 446 947 473 C 931 500 910 523 883 543 C 856 562 825 578 789 591 C 753 604 715 616 675 627 C 635 637 593 648 551 658 C 508 668 466 681 426 695 C 386 709 348 725 312 745 C 276 765 245 789 218 818 C 191 847 170 882 154 922 C 138 962 131 1009 131 1065 C 131 1119 142 1170 164 1218 C 186 1266 219 1307 261 1343 C 303 1379 354 1407 415 1427 C 476 1447 545 1458 623 1458 C 718 1458 805 1447 884 1427 C 962 1406 1034 1380 1098 1350 L 1030 1206 C 974 1234 913 1257 845 1275 C 777 1293 705 1303 629 1303 C 579 1303 534 1297 495 1285 C 456 1273 423 1256 396 1235 C 369 1213 348 1188 334 1160 C 320 1131 313 1100 313 1067 C 313 1018 325 978 349 948 C 373 917 404 892 444 872 C 483 852 528 836 578 824 C 628 811 679 798 732 784 C 784 770 836 755 886 737 C 936 719 980 694 1020 664 C 1059 634 1091 595 1115 549 C 1139 503 1151 445 1151 375 C 1151 319 1140 266 1119 218 C 1098 169 1066 127 1023 91 C 980 55 926 26 862 6 C 797 -14 721 -25 635 -25 C 582 -25 530 -21 480 -13 C 430 -5 382 5 337 19 C 292 32 250 48 211 66 C 171 84 136 103 106 123 L 193 262 Z" horiz-adv-x="1262" />
<glyph unicode="T" d="M 580 1278 L 61 1278 L 61 1434 L 1274 1434 L 1274 1278 L 754 1278 L 754 0 L 580 0 L 580 1278 Z" horiz-adv-x="1333" />
<glyph unicode="U" d="M 166 1434 L 342 1434 L 342 530 C 342 464 352 406 372 356 C 392 306 420 264 455 230 C 490 196 531 170 579 153 C 627 135 678 127 733 127 C 787 127 838 135 886 153 C 934 170 975 196 1011 230 C 1047 264 1075 306 1095 356 C 1115 406 1126 464 1126 530 L 1126 1434 L 1300 1434 L 1300 530 C 1300 438 1285 357 1256 288 C 1227 218 1187 160 1136 114 C 1085 68 1025 33 956 10 C 887 -13 813 -25 733 -25 C 653 -25 578 -13 509 10 C 440 33 380 68 329 114 C 278 160 238 218 209 288 C 180 357 166 438 166 530 L 166 1434 Z" horiz-adv-x="1466" />
<glyph unicode="V" d="M 61 1434 L 254 1434 L 694 195 L 698 195 L 1143 1434 L 1335 1434 L 799 0 L 594 0 L 61 1434 Z" horiz-adv-x="1395" />
<glyph unicode="W" d="M 66 1434 L 252 1434 L 621 238 L 625 238 L 975 1434 L 1147 1434 L 1495 238 L 1499 238 L 1870 1434 L 2054 1434 L 1597 0 L 1405 0 L 1061 1171 L 1057 1171 L 713 0 L 520 0 L 66 1434 Z" horiz-adv-x="2118" />
<glyph unicode="X" d="M 598 731 L 102 1434 L 315 1434 L 711 868 L 1104 1434 L 1315 1434 L 817 731 L 1337 0 L 1122 0 L 707 596 L 293 0 L 78 0 L 598 731 Z" horiz-adv-x="1415" />
<glyph unicode="Y" d="M 598 584 L 57 1434 L 264 1434 L 684 752 L 688 752 L 1108 1434 L 1313 1434 L 772 584 L 772 0 L 598 0 L 598 584 Z" horiz-adv-x="1370" />
<glyph unicode="Z" d="M 115 145 L 973 1276 L 117 1276 L 117 1434 L 1194 1434 L 1194 1290 L 340 160 L 1217 160 L 1217 0 L 115 0 L 115 145 Z" horiz-adv-x="1325" />
<glyph unicode="[" d="M 662 -281 L 662 -410 L 172 -410 L 172 1546 L 662 1546 L 662 1417 L 344 1417 L 344 -281 L 662 -281 Z" horiz-adv-x="795" />
<glyph unicode="\" d="M 1057 -410 L 885 -410 L -23 1546 L 147 1546 L 1057 -410 Z" horiz-adv-x="1034" />
<glyph unicode="]" d="M 451 -281 L 451 1417 L 133 1417 L 133 1546 L 623 1546 L 623 -410 L 133 -410 L 133 -281 L 451 -281 Z" horiz-adv-x="795" />
<glyph unicode="^" d="M 479 1516 L 637 1516 L 922 1151 L 786 1151 L 559 1372 L 328 1151 L 193 1151 L 479 1516 Z" horiz-adv-x="1114" />
<glyph unicode="_" d="M 1126 -27 L 1126 -176 L 0 -176 L 0 -27 L 1126 -27 Z" horiz-adv-x="1126" />
<glyph unicode="`" d="M 446 1446 L 567 1538 L 852 1176 L 735 1176 L 446 1446 Z" horiz-adv-x="1296" />
<glyph unicode="a" d="M 100 246 C 100 312 118 368 154 413 C 190 457 237 493 297 521 C 356 549 424 569 501 583 C 577 596 657 604 739 608 L 739 764 C 739 790 735 815 727 837 C 719 859 706 879 690 895 C 673 911 652 923 626 932 C 600 941 568 946 532 946 C 476 946 420 936 362 917 C 304 897 249 874 197 848 L 131 983 C 159 997 190 1010 223 1022 C 255 1034 289 1045 324 1055 C 359 1065 394 1072 430 1078 C 466 1084 501 1087 537 1087 C 603 1087 659 1078 706 1062 C 753 1046 792 1023 822 995 C 852 966 874 932 888 892 C 902 852 909 808 909 762 L 909 231 C 909 194 918 167 937 149 C 956 131 982 123 1016 123 L 1016 -2 C 978 -2 946 0 918 6 C 890 11 865 19 845 30 C 825 40 808 54 794 71 C 780 87 769 107 760 131 C 739 108 716 87 692 68 C 667 49 640 33 611 19 C 582 5 551 -5 518 -13 C 484 -21 449 -25 412 -25 C 365 -25 322 -18 284 -5 C 246 7 213 25 186 49 C 158 73 137 101 122 135 C 107 168 100 205 100 246 Z M 268 258 C 268 234 272 213 281 195 C 289 176 301 160 317 147 C 333 134 352 124 374 117 C 396 109 421 106 449 106 C 481 106 511 109 540 117 C 569 124 596 134 621 146 C 645 158 668 173 688 189 C 708 205 725 223 739 242 L 739 500 C 703 498 667 495 630 491 C 593 487 557 482 522 475 C 487 467 454 458 423 446 C 392 434 365 420 342 403 C 319 385 301 365 288 341 C 274 317 268 290 268 258 Z" horiz-adv-x="1085" />
<glyph unicode="b" d="M 166 1546 L 336 1546 L 336 926 C 357 948 380 969 405 989 C 430 1009 457 1026 485 1041 C 513 1055 543 1067 574 1075 C 605 1083 638 1087 672 1087 C 736 1087 795 1075 848 1051 C 901 1027 947 992 985 946 C 1023 900 1052 843 1073 777 C 1093 710 1104 634 1104 549 C 1104 457 1094 376 1074 305 C 1054 234 1025 174 988 125 C 950 76 905 39 852 13 C 798 -12 738 -25 672 -25 C 600 -25 535 -9 479 21 C 422 51 372 91 328 141 L 313 0 L 166 0 L 166 1546 Z M 336 268 C 379 218 425 179 474 153 C 522 126 576 113 635 113 C 683 113 726 123 763 143 C 800 163 831 191 856 229 C 881 267 900 312 913 366 C 925 419 932 479 932 547 C 932 611 925 668 912 718 C 898 768 879 810 854 844 C 828 878 797 905 760 923 C 723 941 681 950 635 950 C 575 950 520 935 472 907 C 423 879 378 841 336 793 L 336 268 Z" horiz-adv-x="1208" />
<glyph unicode="c" d="M 102 543 C 102 627 114 702 139 769 C 164 836 199 893 244 940 C 289 987 342 1023 404 1049 C 466 1074 534 1087 608 1087 C 679 1087 743 1076 801 1056 C 859 1035 910 1007 954 973 L 864 856 C 834 878 799 899 757 917 C 715 935 667 944 612 944 C 562 944 517 934 476 916 C 434 897 399 870 369 836 C 339 802 315 760 299 710 C 282 660 274 605 274 543 C 274 477 282 417 298 365 C 314 312 337 267 367 231 C 397 194 432 166 474 146 C 515 126 561 117 612 117 C 641 117 668 119 693 124 C 717 129 740 136 762 145 C 784 154 804 165 823 177 C 842 189 861 203 879 219 L 977 115 C 951 91 924 71 897 54 C 869 36 841 22 811 10 C 781 -1 750 -10 716 -16 C 682 -22 646 -25 608 -25 C 533 -25 465 -12 403 14 C 341 40 287 77 243 126 C 198 175 163 235 139 305 C 114 375 102 455 102 543 Z" horiz-adv-x="1057" />
<glyph unicode="d" d="M 535 -25 C 468 -25 408 -12 355 13 C 301 39 256 76 219 125 C 182 174 154 234 134 305 C 114 376 104 457 104 549 C 104 634 114 710 135 777 C 155 843 184 900 222 946 C 260 992 305 1027 359 1051 C 412 1075 471 1087 537 1087 C 571 1087 603 1083 635 1075 C 666 1067 696 1055 724 1041 C 752 1026 778 1009 803 989 C 828 969 852 948 874 926 L 874 1546 L 1044 1546 L 1044 0 L 897 0 L 881 141 C 835 91 784 51 728 21 C 672 -9 607 -25 535 -25 Z M 573 113 C 631 113 685 126 734 153 C 783 179 830 218 874 268 L 874 793 C 830 841 784 879 736 907 C 687 935 633 950 573 950 C 525 950 483 941 446 923 C 409 905 378 878 353 844 C 327 810 308 768 294 718 C 280 668 274 611 274 547 C 274 479 280 419 293 366 C 306 312 325 267 351 229 C 376 191 407 163 444 143 C 481 123 524 113 573 113 Z" horiz-adv-x="1206" />
<glyph unicode="e" d="M 104 543 C 104 626 116 701 142 769 C 168 836 203 893 249 941 C 294 989 348 1025 410 1051 C 472 1077 539 1090 612 1090 C 686 1090 751 1077 806 1053 C 861 1029 907 995 943 953 C 979 911 1005 861 1023 803 C 1040 745 1049 682 1049 614 C 1049 600 1048 585 1046 567 C 1044 549 1042 535 1040 524 L 274 524 C 276 394 307 293 365 222 C 423 150 509 115 625 115 C 682 115 737 124 791 143 C 844 162 892 186 936 215 L 1012 100 C 957 61 896 30 828 7 C 760 -15 689 -27 616 -27 C 535 -27 463 -14 400 12 C 336 38 283 75 239 124 C 195 173 161 233 138 304 C 115 374 104 454 104 543 Z M 616 958 C 572 958 532 950 495 936 C 458 921 425 900 396 873 C 366 845 342 812 322 773 C 302 733 289 689 281 639 L 885 639 C 885 683 881 724 871 763 C 861 801 846 835 825 864 C 803 893 775 916 741 933 C 707 949 665 958 616 958 Z" horiz-adv-x="1159" />
<glyph unicode="f" d="M 236 926 L 47 926 L 47 1055 L 236 1055 L 236 1147 C 236 1223 246 1287 266 1340 C 286 1392 315 1435 351 1467 C 387 1499 429 1523 479 1537 C 529 1551 583 1559 643 1559 C 657 1559 672 1558 688 1556 C 704 1554 719 1552 735 1550 C 750 1547 764 1544 778 1540 C 792 1536 804 1533 815 1530 L 772 1405 C 756 1409 737 1413 715 1417 C 693 1421 670 1423 647 1423 C 569 1423 510 1401 468 1358 C 426 1315 406 1245 406 1149 L 406 1055 L 700 1055 L 700 926 L 406 926 L 406 0 L 236 0 L 236 926 Z" horiz-adv-x="778" />
<glyph unicode="g" d="M 66 -150 C 66 -97 82 -51 114 -13 C 146 25 190 56 244 80 C 190 116 164 165 164 225 C 164 261 173 293 193 321 C 213 349 238 371 268 389 C 218 423 179 466 149 518 C 119 570 104 631 104 700 C 104 757 115 809 138 857 C 160 905 191 946 231 980 C 270 1014 316 1040 370 1059 C 424 1077 481 1087 543 1087 C 598 1087 650 1079 699 1064 C 747 1048 791 1026 829 997 C 865 1025 907 1048 953 1065 C 999 1082 1054 1090 1120 1090 L 1120 961 C 1072 961 1031 958 996 954 C 961 950 929 942 901 930 C 925 898 945 863 959 824 C 973 785 981 744 981 700 C 981 640 969 585 945 537 C 921 488 888 447 848 413 C 807 379 760 352 708 334 C 655 316 600 307 543 307 C 509 307 477 309 447 315 C 417 320 387 328 358 340 C 340 330 325 318 315 303 C 304 287 299 271 299 254 C 299 231 306 213 320 199 C 334 185 354 174 382 166 C 410 158 444 152 486 148 C 527 144 575 140 629 137 C 697 133 759 126 816 115 C 873 104 922 88 964 66 C 1006 44 1038 17 1061 -16 C 1084 -49 1096 -90 1096 -139 C 1096 -230 1052 -301 965 -353 C 878 -404 748 -430 575 -430 C 493 -430 421 -423 358 -411 C 295 -399 242 -381 199 -357 C 155 -333 122 -304 100 -270 C 77 -235 66 -195 66 -150 Z M 543 432 C 581 432 617 438 651 452 C 684 465 713 483 738 507 C 762 531 782 559 796 592 C 810 624 817 660 817 700 C 817 738 810 774 796 806 C 782 838 762 866 738 890 C 713 913 684 931 651 945 C 617 958 581 965 543 965 C 503 965 467 958 434 945 C 400 931 371 913 347 890 C 322 866 303 838 289 806 C 275 774 268 738 268 700 C 268 660 275 624 289 592 C 303 559 322 531 347 507 C 371 483 400 465 434 452 C 467 438 503 432 543 432 Z M 596 0 C 552 1 512 4 476 9 C 439 13 405 19 375 27 C 331 12 296 -9 268 -38 C 240 -66 227 -101 227 -143 C 227 -253 340 -309 567 -309 C 687 -309 778 -296 840 -270 C 902 -244 934 -205 934 -154 C 934 -126 926 -103 911 -85 C 896 -67 874 -52 845 -40 C 816 -28 781 -19 739 -13 C 697 -7 650 -2 596 0 Z" horiz-adv-x="1176" />
<glyph unicode="h" d="M 166 1546 L 336 1546 L 336 920 C 358 943 383 965 409 986 C 435 1006 464 1024 494 1040 C 524 1055 556 1067 590 1076 C 624 1085 659 1090 696 1090 C 756 1090 808 1081 850 1063 C 892 1045 927 1020 954 988 C 981 956 1001 917 1013 872 C 1025 826 1032 776 1032 721 L 1032 0 L 864 0 L 864 723 C 864 757 860 788 853 816 C 845 844 833 869 817 889 C 801 909 780 924 754 935 C 728 946 696 952 659 952 C 594 952 535 937 481 907 C 427 877 379 836 336 784 L 336 0 L 166 0 L 166 1546 Z" horiz-adv-x="1186" />
<glyph unicode="i" d="M 166 1057 L 336 1057 L 336 0 L 166 0 L 166 1057 Z M 166 1522 L 336 1522 L 336 1327 L 166 1327 L 166 1522 Z" horiz-adv-x="500" />
<glyph unicode="j" d="M 184 1057 L 352 1057 L 352 -51 C 352 -119 344 -177 329 -225 C 313 -273 292 -312 264 -342 C 236 -372 202 -395 163 -409 C 123 -423 79 -430 31 -430 C 1 -430 -25 -427 -49 -423 C -73 -418 -92 -413 -106 -408 L -74 -274 C -60 -278 -46 -282 -31 -285 C -16 -287 -1 -289 14 -289 C 40 -289 63 -284 84 -276 C 105 -268 123 -254 138 -236 C 152 -218 164 -194 172 -165 C 180 -135 184 -99 184 -57 L 184 1057 Z M 184 1522 L 352 1522 L 352 1327 L 184 1327 L 184 1522 Z" horiz-adv-x="518" />
<glyph unicode="k" d="M 166 1546 L 336 1546 L 336 518 L 813 1063 L 1006 1063 L 682 705 L 1055 0 L 860 0 L 569 580 L 336 322 L 336 0 L 166 0 L 166 1546 Z" horiz-adv-x="1098" />
<glyph unicode="l" d="M 166 1546 L 336 1546 L 336 0 L 166 0 L 166 1546 Z" horiz-adv-x="502" />
<glyph unicode="m" d="M 158 1063 L 315 1063 L 326 926 C 348 948 373 970 399 990 C 425 1010 453 1027 483 1042 C 513 1057 544 1069 576 1077 C 608 1085 642 1090 676 1090 C 754 1090 816 1074 864 1042 C 911 1010 946 967 969 913 C 994 939 1021 962 1050 984 C 1078 1006 1108 1024 1140 1040 C 1171 1056 1204 1068 1238 1077 C 1272 1085 1308 1090 1346 1090 C 1402 1090 1450 1081 1491 1063 C 1532 1045 1566 1020 1593 988 C 1619 956 1639 917 1652 872 C 1664 827 1671 777 1671 723 L 1671 0 L 1501 0 L 1501 727 C 1501 761 1497 792 1490 820 C 1483 848 1472 871 1457 891 C 1441 910 1421 925 1397 936 C 1373 946 1343 952 1309 952 C 1250 952 1194 938 1141 910 C 1088 882 1041 844 999 795 C 1000 782 1001 769 1002 755 C 1003 741 1004 728 1004 715 L 1004 0 L 831 0 L 831 727 C 831 761 827 792 821 820 C 814 848 803 871 788 891 C 772 910 752 925 728 936 C 704 946 674 952 639 952 C 578 952 521 937 469 909 C 416 880 369 840 328 788 L 328 0 L 158 0 L 158 1063 Z" horiz-adv-x="1825" />
<glyph unicode="n" d="M 158 1063 L 315 1063 L 326 920 C 348 943 373 965 400 986 C 426 1006 455 1024 486 1040 C 516 1055 549 1067 583 1076 C 617 1085 652 1090 690 1090 C 750 1090 801 1081 843 1063 C 885 1045 920 1020 947 988 C 974 956 994 917 1007 872 C 1019 826 1026 776 1026 721 L 1026 0 L 856 0 L 856 723 C 856 757 852 788 845 816 C 837 844 826 869 810 889 C 794 909 773 924 747 935 C 721 946 689 952 653 952 C 587 952 527 937 473 907 C 419 877 371 836 328 782 L 328 0 L 158 0 L 158 1063 Z" horiz-adv-x="1178" />
<glyph unicode="o" d="M 104 545 C 104 627 117 701 143 768 C 169 835 204 892 250 939 C 296 986 350 1022 412 1048 C 474 1074 542 1087 616 1087 C 689 1087 757 1074 819 1048 C 881 1022 934 986 980 939 C 1025 892 1060 835 1086 768 C 1111 701 1124 627 1124 545 C 1124 457 1111 378 1087 308 C 1063 238 1028 178 984 129 C 939 79 885 41 823 15 C 761 -11 692 -25 616 -25 C 539 -25 469 -11 406 15 C 343 41 289 79 245 129 C 200 178 165 238 141 308 C 116 378 104 457 104 545 Z M 276 545 C 276 479 283 420 299 367 C 315 313 337 268 367 230 C 396 192 432 162 474 142 C 516 121 563 111 616 111 C 667 111 713 121 755 142 C 796 162 831 192 861 230 C 890 268 912 313 928 367 C 944 420 952 479 952 545 C 952 605 943 660 927 710 C 910 760 887 802 857 838 C 827 874 792 901 751 921 C 710 940 665 950 616 950 C 566 950 521 940 479 921 C 437 901 402 874 372 838 C 342 802 318 760 301 710 C 284 660 276 605 276 545 Z" horiz-adv-x="1231" />
<glyph unicode="p" d="M 332 -410 L 164 -410 L 164 1063 L 313 1063 L 328 922 C 372 970 422 1009 479 1040 C 536 1071 600 1087 670 1087 C 734 1087 793 1075 846 1051 C 898 1027 943 992 981 946 C 1019 900 1048 843 1069 777 C 1089 710 1100 634 1100 549 C 1100 457 1090 376 1070 305 C 1050 234 1021 174 984 125 C 947 76 902 39 850 13 C 797 -12 738 -25 672 -25 C 636 -25 603 -21 571 -13 C 539 -5 510 6 482 20 C 454 34 427 52 402 72 C 377 92 354 113 332 137 L 332 -410 Z M 332 268 C 375 218 421 179 471 153 C 520 126 574 113 633 113 C 681 113 723 123 760 143 C 797 163 828 191 853 229 C 878 267 897 312 910 366 C 923 419 930 479 930 547 C 930 611 923 668 910 718 C 896 768 877 810 851 844 C 825 878 794 905 757 923 C 720 941 678 950 631 950 C 571 950 517 935 469 907 C 421 879 375 841 332 793 L 332 268 Z" horiz-adv-x="1204" />
<glyph unicode="q" d="M 573 113 C 631 113 685 126 734 153 C 783 179 830 218 874 268 L 874 793 C 830 841 784 879 736 907 C 687 935 633 950 573 950 C 525 950 483 941 446 923 C 409 905 378 878 353 844 C 327 810 308 768 294 718 C 280 668 274 611 274 547 C 274 479 280 419 293 366 C 306 312 325 267 351 229 C 377 191 408 163 445 143 C 482 123 525 113 573 113 Z M 535 -25 C 468 -25 408 -12 355 13 C 301 39 256 76 219 125 C 182 174 154 234 134 305 C 114 376 104 457 104 549 C 104 634 114 710 135 777 C 155 843 184 900 222 946 C 260 992 305 1027 359 1051 C 412 1075 471 1087 537 1087 C 606 1087 669 1071 725 1040 C 781 1009 832 970 877 922 L 893 1063 L 1044 1063 L 1044 -410 L 874 -410 L 874 137 C 852 113 828 92 803 72 C 778 52 752 34 724 20 C 696 6 666 -5 635 -13 C 603 -21 570 -25 535 -25 Z" horiz-adv-x="1206" />
<glyph unicode="r" d="M 158 1063 L 311 1063 L 326 883 C 407 1021 515 1090 649 1090 C 675 1090 700 1088 723 1084 C 745 1080 766 1075 784 1069 L 752 909 C 714 924 672 932 627 932 C 564 932 508 913 460 877 C 412 841 368 787 328 715 L 328 0 L 158 0 L 158 1063 Z" horiz-adv-x="827" />
<glyph unicode="s" d="M 156 209 C 199 182 249 159 306 141 C 362 122 423 113 487 113 C 561 113 619 126 660 154 C 700 182 721 222 721 276 C 721 309 712 336 694 358 C 676 379 653 397 624 411 C 594 425 561 436 524 446 C 487 456 449 466 410 477 C 371 487 333 500 296 514 C 259 528 226 546 197 569 C 167 591 144 619 126 653 C 108 687 100 729 100 780 C 100 828 109 870 129 908 C 148 946 175 978 209 1005 C 243 1031 284 1052 331 1066 C 377 1080 428 1087 483 1087 C 543 1087 604 1079 666 1065 C 728 1051 788 1030 846 1004 L 778 874 C 734 897 686 915 634 929 C 581 943 531 950 483 950 C 418 950 366 935 327 907 C 287 878 268 838 268 786 C 268 752 276 725 294 705 C 312 685 335 668 364 654 C 393 640 426 629 463 620 C 500 610 538 600 577 590 C 616 580 654 568 691 554 C 728 540 761 522 790 499 C 819 476 842 447 860 413 C 878 379 887 336 887 285 C 887 235 877 191 859 153 C 840 115 813 82 779 56 C 744 29 702 9 653 -4 C 603 -18 548 -25 487 -25 C 408 -25 334 -15 266 5 C 197 25 135 52 80 86 L 156 209 Z" horiz-adv-x="973" />
<glyph unicode="t" d="M 233 932 L 47 932 L 47 1063 L 233 1063 L 233 1374 L 403 1374 L 403 1063 L 709 1063 L 709 932 L 403 932 L 403 285 C 403 230 413 188 435 159 C 456 129 492 115 543 115 C 571 115 599 119 625 128 C 651 136 676 149 700 166 L 766 55 C 734 32 696 13 654 -2 C 611 -17 568 -25 524 -25 C 423 -25 349 0 303 52 C 256 104 233 181 233 283 L 233 932 Z" horiz-adv-x="801" />
<glyph unicode="u" d="M 154 1063 L 324 1063 L 324 340 C 324 306 327 274 334 246 C 340 218 351 194 367 174 C 383 154 404 138 430 127 C 456 116 488 111 526 111 C 592 111 652 125 706 155 C 760 185 810 227 854 281 L 854 1063 L 1024 1063 L 1024 0 L 870 0 L 856 143 C 833 119 808 97 782 77 C 755 57 726 39 696 24 C 665 9 633 -2 599 -11 C 565 -20 529 -25 492 -25 C 431 -25 379 -16 337 1 C 294 19 259 44 232 76 C 205 108 185 147 173 193 C 160 238 154 288 154 344 L 154 1063 Z" horiz-adv-x="1180" />
<glyph unicode="v" d="M 45 1063 L 221 1063 L 518 186 L 522 186 L 819 1063 L 989 1063 L 610 0 L 422 0 L 45 1063 Z" horiz-adv-x="1034" />
<glyph unicode="w" d="M 45 1063 L 219 1063 L 500 211 L 504 211 L 760 1063 L 911 1063 L 1169 211 L 1174 211 L 1452 1063 L 1622 1063 L 1262 0 L 1092 0 L 836 825 L 831 825 L 578 0 L 408 0 L 45 1063 Z" horiz-adv-x="1669" />
<glyph unicode="x" d="M 422 537 L 76 1063 L 262 1063 L 526 653 L 791 1063 L 975 1063 L 631 537 L 989 0 L 805 0 L 524 422 L 244 0 L 61 0 L 422 537 Z" horiz-adv-x="1053" />
<glyph unicode="y" d="M 82 -258 C 102 -266 124 -273 146 -279 C 168 -285 190 -289 211 -289 C 230 -289 248 -287 264 -283 C 280 -279 295 -272 309 -262 C 323 -252 335 -239 346 -223 C 357 -207 367 -186 377 -162 L 442 6 L 47 1063 L 223 1063 L 524 223 L 528 223 L 821 1063 L 993 1063 L 545 -174 C 525 -224 504 -265 481 -298 C 458 -331 433 -357 406 -377 C 378 -397 349 -410 318 -418 C 286 -426 253 -430 217 -430 C 184 -430 151 -426 119 -420 C 87 -414 58 -405 33 -395 L 82 -258 L 82 -258 Z" horiz-adv-x="1040" />
<glyph unicode="z" d="M 102 119 L 705 926 L 119 926 L 119 1063 L 918 1063 L 918 942 L 317 137 L 938 137 L 938 0 L 102 0 L 102 119 Z" horiz-adv-x="1026" />
<glyph unicode="{" d="M 809 -283 L 809 -410 L 686 -410 C 568 -410 482 -384 426 -333 C 370 -281 342 -205 342 -104 L 342 297 C 342 360 328 406 302 436 C 275 466 229 481 164 481 L 70 481 L 70 635 L 164 635 C 229 635 275 649 302 679 C 328 709 342 756 342 821 L 342 1241 C 342 1342 370 1418 426 1469 C 482 1520 568 1546 686 1546 L 809 1546 L 809 1419 L 694 1419 C 660 1419 632 1415 609 1408 C 586 1401 567 1390 553 1376 C 538 1362 527 1343 521 1321 C 515 1298 512 1271 512 1239 L 512 829 C 512 754 496 694 466 650 C 435 606 390 576 332 561 L 332 559 C 390 541 435 510 466 466 C 496 421 512 361 512 287 L 512 -102 C 512 -134 515 -161 521 -184 C 527 -206 538 -225 553 -240 C 567 -254 586 -265 609 -272 C 632 -279 660 -283 694 -283 L 809 -283 Z" horiz-adv-x="934" />
<glyph unicode="|" d="M 213 1546 L 375 1546 L 375 -410 L 213 -410 L 213 1546 Z" horiz-adv-x="586" />
<glyph unicode="}" d="M 240 -283 C 273 -283 301 -279 324 -272 C 347 -265 366 -254 381 -240 C 395 -225 406 -206 412 -184 C 418 -161 422 -134 422 -102 L 422 287 C 422 361 437 421 468 466 C 498 510 543 541 602 559 L 602 561 C 543 576 498 606 468 650 C 437 694 422 754 422 829 L 422 1239 C 422 1271 418 1298 412 1321 C 406 1343 395 1362 381 1376 C 366 1390 347 1401 324 1408 C 301 1415 273 1419 240 1419 L 125 1419 L 125 1546 L 248 1546 C 365 1546 452 1520 508 1469 C 564 1418 592 1342 592 1241 L 592 821 C 592 756 605 709 632 679 C 658 649 704 635 770 635 L 864 635 L 864 481 L 770 481 C 704 481 658 466 632 436 C 605 406 592 360 592 297 L 592 -104 C 592 -205 564 -281 508 -333 C 452 -384 365 -410 248 -410 L 125 -410 L 125 -283 L 240 -283 Z" horiz-adv-x="934" />
<glyph unicode="~" d="M 152 406 C 150 414 150 421 150 428 C 150 435 150 442 150 449 C 150 490 155 528 165 562 C 175 596 189 625 209 649 C 229 673 253 691 281 705 C 309 718 342 725 379 725 C 407 725 433 720 458 710 C 482 700 506 687 529 672 C 551 657 573 641 594 623 C 615 605 636 589 656 574 C 676 559 697 547 718 537 C 738 527 760 522 782 522 C 819 522 847 535 867 563 C 886 591 894 632 891 688 L 1014 688 C 1015 680 1016 672 1016 666 C 1016 659 1016 652 1016 645 C 1016 603 1010 566 1000 532 C 990 498 975 470 955 446 C 935 422 911 403 883 390 C 855 377 822 371 786 371 C 757 371 730 376 706 386 C 681 396 657 408 635 423 C 612 438 590 454 569 472 C 548 489 527 505 507 520 C 486 535 465 548 445 558 C 425 568 404 573 383 573 C 345 573 317 558 297 530 C 277 501 270 460 274 406 L 152 406 L 152 406 Z" horiz-adv-x="1165" />
<glyph unicode="" d="M 217 643 L 307 643 L 352 0 L 352 -369 L 172 -369 L 172 0 L 217 643 Z M 170 1065 L 356 1065 L 356 846 L 170 846 L 170 1065 Z" horiz-adv-x="526" />
<glyph unicode="" d="M 100 571 C 100 653 114 730 143 800 C 172 870 213 930 266 980 C 318 1030 382 1070 456 1098 C 530 1126 612 1141 702 1141 C 708 1141 714 1141 720 1141 C 725 1141 731 1140 737 1139 L 786 1339 L 895 1339 L 844 1126 C 890 1116 934 1102 978 1084 C 1022 1065 1064 1042 1104 1014 L 1018 897 C 949 944 878 975 805 989 L 602 125 C 618 121 635 119 652 117 C 668 115 686 115 705 115 C 768 115 827 125 883 145 C 938 165 988 196 1032 236 L 1135 133 C 1077 81 1011 42 939 14 C 866 -13 787 -27 702 -27 C 680 -27 659 -26 639 -24 C 618 -22 598 -19 578 -16 L 518 -272 L 410 -272 L 477 8 C 418 28 365 56 319 92 C 272 128 232 170 200 219 C 168 267 143 321 126 381 C 108 440 100 503 100 571 Z M 266 571 C 266 469 288 382 332 310 C 376 237 438 184 518 150 L 715 999 L 705 999 C 640 999 581 988 527 968 C 473 947 426 918 388 881 C 349 843 319 798 298 746 C 276 693 266 635 266 571 Z" horiz-adv-x="1225" />
<glyph unicode="" d="M 180 643 L 360 643 C 339 676 322 711 308 748 C 294 784 287 824 287 866 C 287 904 294 940 309 974 C 324 1007 346 1036 375 1061 C 403 1085 439 1105 481 1119 C 523 1133 571 1141 625 1141 C 671 1141 713 1135 751 1125 C 789 1114 822 1100 851 1082 C 879 1064 904 1045 924 1023 C 944 1001 961 978 975 956 L 842 895 C 834 908 823 921 811 935 C 799 949 784 961 767 973 C 749 984 729 993 707 1001 C 685 1008 660 1012 633 1012 C 603 1012 577 1008 555 1000 C 532 992 513 982 498 969 C 482 955 471 939 463 921 C 455 903 451 883 451 862 C 451 822 459 785 475 750 C 491 715 513 679 539 641 L 823 641 L 823 535 L 608 535 C 626 503 642 470 654 436 C 666 402 672 363 672 319 C 672 297 670 277 666 258 C 662 238 656 219 649 201 C 687 175 727 153 767 134 C 807 115 849 106 893 106 C 942 106 978 121 1002 152 C 1026 182 1035 229 1030 291 L 1180 291 C 1186 240 1185 195 1177 156 C 1168 116 1153 83 1131 57 C 1109 30 1080 10 1046 -4 C 1011 -18 971 -25 926 -25 C 892 -25 859 -21 829 -14 C 799 -6 770 3 743 15 C 715 27 689 42 664 58 C 638 74 614 91 592 109 C 554 67 510 34 458 10 C 406 -13 353 -25 299 -25 C 265 -25 234 -19 207 -9 C 180 0 157 14 138 32 C 118 50 103 71 93 95 C 83 119 78 144 78 172 C 78 200 83 226 94 250 C 105 274 120 294 140 312 C 160 329 183 342 209 352 C 235 362 264 367 295 367 C 335 367 373 359 410 345 C 447 330 483 312 518 291 L 518 303 C 518 325 516 347 512 367 C 508 387 502 406 494 425 C 486 443 477 461 467 479 C 457 497 446 515 434 535 L 180 535 L 180 643 Z M 299 72 C 315 72 333 74 351 79 C 369 84 386 92 403 102 C 420 112 436 124 451 138 C 465 152 478 169 489 188 C 457 210 425 230 395 246 C 364 262 332 270 299 270 C 265 270 237 260 216 242 C 194 223 184 200 184 172 C 184 144 193 120 213 101 C 233 81 261 72 299 72 Z" horiz-adv-x="1210" />
<glyph unicode="" d="M 133 547 C 133 613 144 675 166 735 C 188 794 220 847 260 895 L 147 1014 L 231 1094 L 342 973 C 388 1009 439 1037 495 1057 C 551 1077 612 1087 676 1087 C 738 1087 796 1077 852 1057 C 908 1037 959 1009 1006 973 L 1120 1094 L 1204 1014 L 1087 893 C 1127 845 1158 792 1182 734 C 1205 675 1217 613 1217 547 C 1217 480 1205 417 1182 358 C 1159 299 1128 246 1090 199 L 1204 78 L 1120 0 L 1008 121 C 961 85 910 56 854 36 C 798 16 738 6 676 6 C 612 6 551 15 495 35 C 439 55 388 83 342 119 L 231 0 L 147 78 L 258 199 C 218 246 188 299 166 358 C 144 417 133 480 133 547 Z M 287 547 C 287 493 297 442 317 395 C 337 348 365 307 401 272 C 436 236 477 208 524 188 C 571 168 622 158 676 158 C 730 158 780 168 827 188 C 874 208 915 236 951 272 C 986 307 1014 348 1034 395 C 1054 442 1065 493 1065 547 C 1065 601 1054 651 1034 698 C 1014 745 986 786 951 822 C 915 857 874 885 827 905 C 780 925 730 936 676 936 C 622 936 571 925 524 905 C 477 885 436 857 401 822 C 365 786 337 745 317 698 C 297 651 287 601 287 547 Z" horiz-adv-x="1350" />
<glyph unicode="" d="M 129 524 L 508 524 L 59 1116 L 262 1116 L 594 668 L 596 668 L 930 1116 L 1130 1116 L 680 524 L 1057 524 L 1057 418 L 680 418 L 680 289 L 1057 289 L 1057 184 L 680 184 L 680 0 L 508 0 L 508 184 L 129 184 L 129 289 L 508 289 L 508 418 L 129 418 L 129 524 Z" horiz-adv-x="1192" />
<glyph unicode="" d="M 956 338 C 956 314 952 292 945 272 C 938 251 929 232 918 214 C 906 196 893 179 878 164 C 863 148 847 135 831 123 C 858 100 880 73 896 43 C 912 12 920 -24 920 -66 C 920 -110 910 -150 892 -185 C 874 -220 848 -250 814 -274 C 780 -298 738 -316 690 -329 C 642 -341 588 -348 528 -348 C 492 -348 456 -344 421 -336 C 385 -328 351 -318 319 -304 C 287 -290 257 -273 229 -254 C 201 -234 176 -213 154 -190 L 264 -98 C 296 -133 335 -162 382 -185 C 429 -207 480 -219 535 -219 C 568 -219 598 -215 625 -209 C 652 -203 675 -193 695 -181 C 714 -169 729 -153 740 -135 C 750 -116 756 -94 756 -70 C 756 -39 747 -13 729 7 C 711 28 688 46 659 62 C 630 78 597 92 560 104 C 523 116 485 129 446 143 C 407 156 369 171 332 187 C 295 203 262 223 233 247 C 204 271 181 299 163 332 C 145 364 137 404 137 451 C 137 473 140 495 147 515 C 153 535 162 554 174 572 C 185 590 198 606 213 622 C 228 637 244 651 260 664 C 234 686 214 713 198 743 C 182 773 174 810 174 854 C 174 898 183 938 201 973 C 219 1008 244 1038 278 1062 C 312 1086 353 1105 401 1118 C 449 1130 503 1137 563 1137 C 599 1137 635 1133 671 1125 C 706 1117 740 1107 772 1093 C 804 1079 835 1062 863 1043 C 891 1023 917 1002 940 979 L 827 887 C 796 921 757 949 711 972 C 664 994 613 1006 557 1006 C 523 1006 493 1002 466 996 C 439 990 416 980 397 968 C 377 956 362 940 352 922 C 341 904 336 882 336 858 C 336 827 344 801 362 780 C 380 759 403 741 432 725 C 461 709 494 695 532 683 C 569 671 607 658 646 645 C 684 631 722 616 760 600 C 797 584 830 564 859 540 C 888 516 911 488 929 456 C 947 423 956 384 956 338 Z M 803 317 C 803 347 796 374 783 396 C 769 418 751 438 729 454 C 706 470 680 485 650 497 C 620 509 588 521 555 532 C 522 543 489 554 455 565 C 421 576 388 589 358 604 C 340 588 324 569 310 547 C 296 524 289 499 289 471 C 289 440 295 413 309 391 C 322 369 340 349 363 333 C 385 316 411 301 441 289 C 471 277 502 265 535 254 C 568 242 601 231 635 220 C 669 208 701 196 733 182 C 750 197 766 216 781 239 C 795 262 803 288 803 317 Z" horiz-adv-x="1092" />
<glyph unicode="" d="M 780 1421 L 936 1421 L 936 1253 L 780 1253 L 780 1421 Z M 381 1421 L 537 1421 L 537 1253 L 381 1253 L 381 1421 Z" horiz-adv-x="1317" />
<glyph unicode="" d="M 475 573 C 475 631 485 684 506 734 C 527 784 556 827 593 864 C 630 900 674 929 726 950 C 777 970 833 981 895 981 C 943 981 991 973 1041 959 C 1090 944 1136 921 1178 891 L 1104 793 C 1072 815 1039 833 1005 846 C 970 859 934 866 897 866 C 855 866 817 858 782 844 C 746 829 716 809 690 783 C 664 757 644 726 630 690 C 615 654 608 615 608 573 C 608 527 615 486 629 450 C 643 414 663 383 689 358 C 715 332 745 313 781 299 C 816 285 855 279 897 279 C 937 279 975 285 1013 298 C 1050 311 1083 331 1112 358 L 1194 274 C 1154 237 1109 209 1059 189 C 1008 169 953 160 895 160 C 832 160 775 169 724 189 C 672 209 628 237 591 273 C 554 309 525 352 505 403 C 485 454 475 511 475 573 Z M 135 573 C 135 641 143 707 161 771 C 179 834 204 893 236 949 C 268 1004 307 1054 352 1099 C 397 1144 447 1183 503 1215 C 558 1247 617 1272 681 1290 C 744 1308 810 1317 879 1317 C 947 1317 1013 1308 1077 1290 C 1140 1272 1199 1247 1255 1215 C 1310 1183 1360 1144 1406 1099 C 1451 1054 1490 1004 1522 949 C 1554 893 1579 834 1597 771 C 1615 707 1624 641 1624 573 C 1624 505 1615 439 1597 376 C 1579 312 1554 253 1522 199 C 1490 144 1451 94 1406 49 C 1360 3 1310 -35 1255 -67 C 1199 -99 1140 -123 1077 -141 C 1013 -159 947 -168 879 -168 C 810 -168 744 -159 681 -141 C 617 -123 558 -99 503 -67 C 447 -35 397 3 352 49 C 307 94 268 144 236 199 C 204 253 179 312 161 376 C 143 439 135 505 135 573 Z M 231 573 C 231 514 238 457 254 402 C 269 347 291 296 319 248 C 347 200 381 157 421 118 C 461 78 505 44 553 16 C 601 -11 652 -33 708 -49 C 763 -64 821 -72 881 -72 C 940 -72 997 -64 1053 -49 C 1108 -33 1160 -11 1208 16 C 1256 44 1299 78 1339 118 C 1379 157 1413 200 1441 248 C 1469 296 1491 347 1507 402 C 1522 456 1530 513 1530 573 C 1530 663 1513 747 1479 826 C 1445 904 1398 973 1340 1032 C 1281 1091 1212 1138 1133 1172 C 1054 1206 970 1223 881 1223 C 791 1223 706 1206 628 1172 C 549 1138 480 1091 421 1032 C 362 973 316 904 282 826 C 248 747 231 663 231 573 Z" horiz-adv-x="1759" />
<glyph unicode="" d="M 76 872 C 76 918 88 957 113 989 C 138 1020 171 1045 212 1064 C 253 1083 300 1097 353 1106 C 405 1115 459 1121 514 1124 L 514 1225 C 514 1257 503 1285 482 1307 C 460 1329 425 1341 375 1341 C 337 1341 297 1334 257 1320 C 217 1306 179 1290 143 1272 L 96 1372 C 116 1382 137 1391 160 1400 C 183 1409 207 1417 231 1424 C 255 1430 280 1436 305 1440 C 330 1444 355 1446 379 1446 C 423 1446 462 1440 494 1429 C 526 1418 553 1403 574 1383 C 595 1363 610 1339 620 1312 C 630 1284 635 1255 635 1223 L 635 868 C 635 842 641 824 655 812 C 668 800 686 795 709 795 L 709 700 C 682 700 659 701 639 705 C 619 709 603 714 589 722 C 575 729 563 738 553 749 C 543 760 535 773 528 788 C 500 758 466 733 428 714 C 389 695 345 686 295 686 C 263 686 233 690 206 699 C 179 708 156 721 137 737 C 117 753 102 773 92 796 C 81 819 76 844 76 872 Z M 199 883 C 199 853 209 828 231 810 C 252 791 281 782 317 782 C 359 782 397 790 431 807 C 465 824 492 844 514 868 L 514 1040 C 478 1038 441 1035 404 1030 C 367 1025 333 1017 303 1006 C 272 994 247 979 228 959 C 208 939 199 914 199 883 Z" horiz-adv-x="768" />
<glyph unicode="" d="M 629 90 L 508 0 L 98 535 L 508 1065 L 629 973 L 274 535 L 629 90 Z M 1137 90 L 1016 0 L 606 535 L 1016 1065 L 1137 973 L 782 535 L 1137 90 Z" horiz-adv-x="1253" />
<glyph unicode="" d="M 125 1116 L 1141 1116 L 1141 571 L 963 571 L 963 973 L 125 973 L 125 1116 Z" horiz-adv-x="1266" />
<glyph unicode="" d="M 575 967 L 944 967 C 997 967 1042 960 1079 946 C 1116 932 1146 913 1169 890 C 1192 867 1209 841 1219 812 C 1229 782 1235 752 1235 721 C 1235 699 1231 676 1225 654 C 1219 632 1209 611 1195 591 C 1181 571 1163 553 1141 537 C 1119 521 1092 508 1061 498 C 1065 491 1071 479 1081 463 C 1090 446 1101 427 1113 406 C 1125 384 1137 362 1151 338 C 1164 314 1177 292 1189 271 C 1201 250 1211 231 1221 215 C 1230 199 1237 188 1241 182 L 1098 182 L 936 483 L 707 483 L 707 182 L 575 182 L 575 967 Z M 930 584 C 962 584 990 588 1012 596 C 1034 604 1053 615 1067 628 C 1081 641 1091 656 1097 672 C 1103 688 1106 705 1106 721 C 1106 738 1103 755 1097 772 C 1091 789 1081 804 1068 818 C 1054 831 1036 842 1014 850 C 992 858 964 862 932 862 L 707 862 L 707 584 L 930 584 Z M 135 573 C 135 641 143 707 161 771 C 179 834 204 893 236 949 C 268 1004 307 1054 352 1099 C 397 1144 447 1183 503 1215 C 558 1247 617 1272 681 1290 C 744 1308 810 1317 879 1317 C 947 1317 1013 1308 1077 1290 C 1140 1272 1199 1247 1255 1215 C 1310 1183 1360 1144 1406 1099 C 1451 1054 1490 1004 1522 949 C 1554 893 1579 834 1597 771 C 1615 707 1624 641 1624 573 C 1624 505 1615 439 1597 376 C 1579 312 1554 253 1522 199 C 1490 144 1451 94 1406 49 C 1360 3 1310 -35 1255 -67 C 1199 -99 1140 -123 1077 -141 C 1013 -159 947 -168 879 -168 C 810 -168 744 -159 681 -141 C 617 -123 558 -99 503 -67 C 447 -35 397 3 352 49 C 307 94 268 144 236 199 C 204 253 179 312 161 376 C 143 439 135 505 135 573 Z M 231 573 C 231 514 238 457 254 402 C 269 347 291 296 319 248 C 347 200 380 157 420 118 C 459 78 503 44 551 16 C 599 -11 650 -33 706 -49 C 761 -64 819 -72 879 -72 C 938 -72 995 -64 1051 -49 C 1107 -33 1159 -11 1207 16 C 1255 44 1298 78 1338 118 C 1378 157 1412 200 1440 248 C 1468 296 1490 347 1506 402 C 1522 456 1530 513 1530 573 C 1530 633 1522 690 1506 746 C 1490 801 1468 853 1440 901 C 1412 949 1378 992 1338 1032 C 1298 1072 1255 1106 1207 1134 C 1159 1162 1107 1184 1051 1200 C 995 1215 938 1223 879 1223 C 789 1223 704 1206 626 1172 C 547 1138 478 1091 420 1032 C 362 973 316 904 282 826 C 248 747 231 663 231 573 Z" horiz-adv-x="1759" />
<glyph unicode="" d="M 362 1397 L 965 1397 L 965 1278 L 362 1278 L 362 1397 Z" horiz-adv-x="1313" />
<glyph unicode="" d="M 426 807 C 380 807 337 814 297 830 C 257 845 221 867 191 896 C 161 924 137 959 119 999 C 101 1039 92 1083 92 1133 C 92 1179 101 1223 119 1263 C 137 1303 161 1337 191 1367 C 221 1396 257 1419 297 1435 C 337 1451 379 1460 424 1460 C 468 1460 510 1451 550 1435 C 590 1419 625 1396 656 1367 C 686 1337 711 1303 729 1263 C 747 1223 756 1179 756 1133 C 756 1083 747 1039 729 999 C 711 959 688 924 658 896 C 628 867 593 845 553 830 C 513 814 470 807 426 807 Z M 426 915 C 455 915 483 920 509 931 C 535 941 557 956 577 976 C 597 995 612 1018 624 1045 C 635 1071 641 1101 641 1133 C 641 1163 635 1192 624 1219 C 612 1245 597 1268 577 1288 C 557 1307 535 1322 509 1333 C 483 1344 455 1350 426 1350 C 396 1350 368 1344 342 1333 C 316 1322 293 1307 273 1288 C 253 1268 237 1245 225 1219 C 213 1192 207 1163 207 1133 C 207 1101 213 1071 225 1045 C 237 1018 253 995 273 976 C 293 956 316 941 342 931 C 368 920 396 915 426 915 Z" horiz-adv-x="850" />
<glyph unicode="" d="M 96 125 L 549 125 L 549 504 L 96 504 L 96 651 L 549 651 L 549 1065 L 709 1065 L 709 651 L 1161 651 L 1161 504 L 709 504 L 709 125 L 1161 125 L 1161 0 L 96 0 L 96 125 Z" horiz-adv-x="1257" />
<glyph unicode="" d="M 729 1538 L 850 1446 L 561 1176 L 444 1176 L 729 1538 Z" horiz-adv-x="1296" />
<glyph unicode="" d="M 276 -410 L 125 -410 L 125 1116 L 297 1116 L 297 322 C 298 290 302 262 310 236 C 318 210 330 188 346 170 C 362 152 382 138 407 128 C 432 118 463 113 500 113 C 566 113 627 127 681 157 C 735 187 785 228 829 281 L 829 1116 L 1001 1116 L 1001 0 L 844 0 L 834 137 C 813 114 791 93 767 74 C 743 54 717 37 690 23 C 663 9 635 -2 606 -10 C 576 -18 546 -23 514 -23 C 453 -23 405 -13 371 4 C 336 22 309 48 291 82 L 276 -410 Z" horiz-adv-x="1128" />
<glyph unicode="" d="M 694 586 L 612 586 C 554 586 501 592 455 604 C 408 616 367 632 331 652 C 295 672 265 696 239 724 C 213 752 191 781 175 813 C 159 844 147 876 139 910 C 131 943 127 976 127 1008 C 127 1058 135 1109 153 1160 C 170 1211 198 1257 236 1297 C 274 1337 324 1370 385 1396 C 446 1421 520 1434 608 1434 L 1231 1434 L 1231 0 L 1077 0 L 1077 1305 L 848 1305 L 848 0 L 694 0 L 694 586 Z" horiz-adv-x="1413" />
<glyph unicode="" d="M 129 653 L 319 653 L 319 414 L 129 414 L 129 653 Z" horiz-adv-x="446" />
<glyph unicode="" d="M 477 -379 C 509 -353 539 -325 568 -295 C 596 -265 622 -233 645 -200 C 668 -166 687 -131 703 -95 C 719 -58 729 -20 735 18 L 844 18 C 835 -72 810 -157 769 -235 C 728 -313 674 -383 606 -444 L 477 -379 L 477 -379 Z" horiz-adv-x="1296" />
<glyph unicode="" d="M 72 1075 C 72 1131 81 1181 99 1227 C 117 1273 141 1312 173 1344 C 204 1376 241 1401 285 1419 C 328 1437 375 1446 426 1446 C 477 1446 524 1437 568 1419 C 611 1401 648 1376 680 1344 C 711 1312 735 1273 753 1227 C 771 1181 780 1131 780 1075 C 780 1015 771 960 754 912 C 737 864 713 823 682 790 C 651 756 614 731 570 713 C 526 695 478 686 426 686 C 372 686 324 695 281 713 C 237 731 200 756 169 790 C 138 823 114 864 97 912 C 80 960 72 1015 72 1075 Z M 195 1073 C 195 1029 200 990 211 955 C 221 920 237 890 257 866 C 277 841 301 822 329 808 C 357 794 390 788 426 788 C 460 788 492 794 520 808 C 548 822 573 841 593 866 C 613 890 628 920 639 955 C 649 990 655 1029 655 1073 C 655 1113 649 1150 638 1183 C 626 1216 611 1244 591 1268 C 571 1292 547 1310 519 1323 C 491 1336 460 1343 426 1343 C 392 1343 361 1336 333 1323 C 305 1310 280 1292 260 1268 C 239 1244 223 1216 212 1183 C 200 1150 195 1113 195 1073 Z" horiz-adv-x="866" />
<glyph unicode="" d="M 471 535 L 117 973 L 238 1065 L 647 535 L 238 0 L 117 90 L 471 535 Z M 981 535 L 627 973 L 748 1065 L 1157 535 L 748 0 L 627 90 L 981 535 Z" horiz-adv-x="1253" />
<glyph unicode="" d="M 909 242 L 1278 725 L 1409 725 L 1409 248 L 1516 248 L 1516 154 L 1409 154 L 1409 0 L 1294 0 L 1294 154 L 946 154 L 909 242 Z M 1294 248 L 1294 600 L 1032 248 L 1294 248 Z M 311 1325 L 160 1245 L 113 1331 L 336 1442 L 428 1442 L 428 717 L 311 717 L 311 1325 Z M 1366 1434 L 1499 1434 L 299 0 L 166 0 L 1366 1434 Z" horiz-adv-x="1530" />
<glyph unicode="" d="M 1096 57 C 1094 99 1099 135 1111 166 C 1122 196 1137 223 1156 246 C 1175 269 1197 289 1221 306 C 1245 322 1271 337 1297 350 C 1323 363 1348 376 1373 388 C 1398 400 1420 412 1440 426 C 1459 439 1475 454 1487 470 C 1499 486 1505 506 1505 530 C 1505 560 1492 585 1467 607 C 1441 628 1403 639 1352 639 C 1314 639 1279 630 1246 613 C 1212 596 1184 575 1161 551 L 1083 623 C 1116 655 1156 682 1204 704 C 1252 726 1303 737 1358 737 C 1402 737 1440 731 1474 721 C 1507 710 1535 695 1557 676 C 1579 657 1595 635 1607 610 C 1618 584 1624 557 1624 528 C 1624 485 1614 450 1594 422 C 1574 394 1550 370 1520 350 C 1490 330 1457 313 1423 298 C 1388 282 1356 266 1326 248 C 1296 230 1270 210 1250 187 C 1230 163 1219 134 1219 98 L 1624 98 L 1624 0 L 1096 0 L 1096 57 Z M 311 1325 L 160 1245 L 113 1331 L 336 1442 L 428 1442 L 428 717 L 311 717 L 311 1325 Z M 1364 1434 L 1497 1434 L 297 0 L 164 0 L 1364 1434 Z" horiz-adv-x="1640" />
<glyph unicode="" d="M 96 854 C 123 839 153 826 187 816 C 221 806 255 801 289 801 C 316 801 341 804 365 811 C 388 817 408 826 425 838 C 442 850 455 864 465 880 C 474 896 479 914 479 934 C 479 972 464 1000 436 1019 C 408 1037 370 1047 322 1047 L 215 1047 L 215 1141 L 315 1141 C 361 1141 395 1150 419 1170 C 443 1190 455 1217 455 1251 C 455 1281 442 1306 417 1326 C 391 1346 356 1356 311 1356 C 275 1356 240 1348 207 1334 C 173 1320 143 1300 117 1276 L 51 1352 C 85 1382 124 1406 170 1425 C 215 1444 263 1454 313 1454 C 351 1454 385 1449 417 1440 C 449 1430 476 1417 499 1400 C 522 1383 540 1363 553 1340 C 566 1317 573 1292 573 1266 C 573 1224 563 1189 543 1163 C 523 1136 497 1116 463 1102 C 505 1087 538 1066 563 1038 C 587 1010 600 975 600 932 C 600 894 591 861 575 833 C 559 805 536 781 508 761 C 480 741 447 727 410 717 C 372 707 333 702 291 702 C 247 702 204 707 162 719 C 120 731 84 744 53 760 L 96 854 Z M 913 242 L 1282 725 L 1413 725 L 1413 248 L 1520 248 L 1520 154 L 1413 154 L 1413 0 L 1298 0 L 1298 154 L 950 154 L 913 242 Z M 1298 248 L 1298 600 L 1036 248 L 1298 248 Z M 1360 1434 L 1493 1434 L 293 0 L 160 0 L 1360 1434 Z" horiz-adv-x="1524" />
<glyph unicode="" d="M 688 643 C 688 641 688 639 688 635 C 688 631 689 626 689 621 C 689 616 689 611 689 607 C 689 602 690 599 690 598 C 690 536 680 484 660 442 C 640 400 614 365 584 335 C 554 305 521 278 486 256 C 451 233 418 209 388 184 C 358 159 333 131 313 99 C 293 67 283 28 283 -18 C 283 -51 289 -82 303 -110 C 317 -138 336 -163 361 -183 C 386 -203 416 -219 451 -231 C 485 -242 524 -248 567 -248 C 631 -248 690 -234 744 -207 C 798 -179 847 -144 893 -100 L 999 -201 C 943 -259 879 -306 807 -341 C 735 -375 654 -393 565 -393 C 496 -393 434 -384 378 -366 C 322 -348 275 -324 235 -292 C 195 -260 165 -221 143 -176 C 121 -131 111 -81 111 -27 C 111 19 117 60 130 95 C 142 130 159 161 179 189 C 199 217 223 241 249 263 C 275 285 302 305 330 325 C 358 345 385 364 411 384 C 437 403 461 424 482 446 C 502 468 519 493 532 521 C 545 548 552 580 553 616 L 553 643 L 688 643 Z M 713 846 L 526 846 L 526 1065 L 713 1065 L 713 846 Z" horiz-adv-x="1044" />
<glyph unicode="" d="M 604 1434 L 813 1434 L 1354 0 L 1165 0 L 1036 352 L 379 352 L 252 0 L 61 0 L 604 1434 Z M 430 494 L 985 494 L 709 1255 L 705 1255 L 430 494 Z M 430 1726 L 563 1821 L 795 1546 L 666 1546 L 430 1726 Z" horiz-adv-x="1417" />
<glyph unicode="" d="M 604 1434 L 813 1434 L 1354 0 L 1165 0 L 1036 352 L 379 352 L 252 0 L 61 0 L 604 1434 Z M 430 494 L 985 494 L 709 1255 L 705 1255 L 430 494 Z M 852 1821 L 987 1726 L 752 1546 L 623 1546 L 852 1821 Z" horiz-adv-x="1417" />
<glyph unicode="" d="M 604 1434 L 813 1434 L 1354 0 L 1165 0 L 1036 352 L 379 352 L 252 0 L 61 0 L 604 1434 Z M 430 494 L 985 494 L 709 1255 L 705 1255 L 430 494 Z M 625 1782 L 793 1782 L 1051 1546 L 932 1546 L 711 1686 L 709 1686 L 485 1546 L 367 1546 L 625 1782 Z" horiz-adv-x="1417" />
<glyph unicode="" d="M 604 1434 L 813 1434 L 1354 0 L 1165 0 L 1036 352 L 379 352 L 252 0 L 61 0 L 604 1434 Z M 430 494 L 985 494 L 709 1255 L 705 1255 L 430 494 Z M 401 1556 C 397 1592 398 1625 405 1654 C 411 1683 422 1708 437 1728 C 452 1748 471 1763 494 1774 C 516 1784 542 1790 571 1790 C 602 1790 629 1783 653 1770 C 677 1756 699 1741 719 1725 C 739 1709 758 1694 776 1681 C 794 1667 814 1661 834 1661 C 859 1661 878 1670 891 1690 C 904 1709 909 1736 905 1772 L 1012 1772 C 1016 1735 1015 1702 1009 1673 C 1002 1644 991 1620 976 1600 C 960 1580 941 1564 918 1554 C 895 1543 870 1538 842 1538 C 821 1538 802 1541 785 1547 C 767 1553 751 1561 736 1571 C 721 1580 707 1590 694 1601 C 681 1612 668 1622 656 1632 C 643 1641 630 1649 618 1655 C 605 1661 592 1665 578 1665 C 552 1665 533 1655 521 1637 C 508 1618 504 1591 508 1556 L 401 1556 Z" horiz-adv-x="1417" />
<glyph unicode="" d="M 604 1434 L 813 1434 L 1354 0 L 1165 0 L 1036 352 L 379 352 L 252 0 L 61 0 L 604 1434 Z M 430 494 L 985 494 L 709 1255 L 705 1255 L 430 494 Z M 424 1749 L 582 1749 L 582 1581 L 424 1581 L 424 1749 Z M 838 1749 L 993 1749 L 993 1581 L 838 1581 L 838 1749 Z" horiz-adv-x="1417" />
<glyph unicode="" d="M 588 1393 C 558 1411 535 1435 519 1465 C 502 1495 494 1529 494 1567 C 494 1597 499 1624 511 1650 C 522 1676 537 1698 557 1717 C 576 1736 599 1751 625 1762 C 651 1772 679 1778 709 1778 C 738 1778 766 1772 792 1762 C 818 1751 840 1736 860 1717 C 880 1698 895 1676 907 1650 C 918 1624 924 1597 924 1567 C 924 1529 915 1495 897 1465 C 879 1435 856 1411 827 1393 L 1354 0 L 1165 0 L 1036 352 L 379 352 L 252 0 L 61 0 L 588 1393 Z M 430 494 L 985 494 L 709 1255 L 705 1255 L 430 494 Z M 709 1434 C 727 1434 744 1437 760 1444 C 776 1451 790 1461 802 1473 C 814 1485 823 1499 830 1515 C 836 1531 840 1548 840 1567 C 840 1585 836 1603 830 1619 C 823 1635 814 1650 802 1662 C 790 1674 776 1683 760 1690 C 744 1696 727 1700 709 1700 C 690 1700 672 1696 656 1690 C 640 1683 626 1674 614 1662 C 602 1650 592 1635 585 1619 C 578 1603 575 1585 575 1567 C 575 1548 578 1531 585 1515 C 592 1499 602 1485 614 1473 C 626 1461 640 1451 656 1444 C 672 1437 690 1434 709 1434 Z" horiz-adv-x="1417" />
<glyph unicode="" d="M 713 1434 L 1972 1434 L 1972 1278 L 1004 1278 L 1141 805 L 1892 805 L 1892 655 L 1184 655 L 1329 156 L 1987 156 L 1987 0 L 1186 0 L 1087 352 L 408 352 L 252 0 L 55 0 L 713 1434 Z M 473 498 L 1047 498 L 829 1278 L 819 1278 L 473 498 Z" horiz-adv-x="2118" />
<glyph unicode="" d="M 113 731 C 113 838 130 936 166 1026 C 201 1115 250 1192 314 1256 C 377 1320 453 1369 542 1405 C 630 1440 728 1458 836 1458 C 924 1458 1009 1445 1090 1419 C 1170 1393 1244 1354 1311 1303 L 1217 1176 C 1161 1218 1101 1250 1038 1273 C 975 1295 908 1307 838 1307 C 756 1307 681 1293 614 1265 C 546 1237 488 1198 440 1148 C 392 1098 354 1037 328 967 C 302 896 289 817 289 731 C 289 640 302 558 328 484 C 354 410 390 346 438 293 C 486 240 543 199 611 170 C 679 141 754 127 838 127 C 916 127 988 140 1055 167 C 1122 193 1182 232 1235 283 L 1343 168 C 1275 103 1198 55 1112 23 C 1026 -9 932 -25 831 -25 L 829 -25 C 817 -105 791 -181 751 -253 C 711 -325 660 -388 598 -444 L 469 -379 C 498 -355 526 -330 553 -302 C 579 -274 604 -245 626 -215 C 648 -185 668 -153 684 -119 C 700 -85 713 -51 721 -16 C 629 -4 545 22 470 63 C 395 103 331 156 278 221 C 225 286 184 362 156 448 C 127 534 113 629 113 731 Z" horiz-adv-x="1454" />
<glyph unicode="" d="M 391 1726 L 524 1821 L 756 1546 L 627 1546 L 391 1726 Z M 172 1434 L 1155 1434 L 1155 1278 L 346 1278 L 346 803 L 1075 803 L 1075 657 L 346 657 L 346 156 L 1167 156 L 1167 0 L 172 0 L 172 1434 Z" horiz-adv-x="1300" />
<glyph unicode="" d="M 813 1821 L 948 1726 L 713 1546 L 584 1546 L 813 1821 Z M 172 1434 L 1155 1434 L 1155 1278 L 346 1278 L 346 803 L 1075 803 L 1075 657 L 346 657 L 346 156 L 1167 156 L 1167 0 L 172 0 L 172 1434 Z" horiz-adv-x="1300" />
<glyph unicode="" d="M 586 1782 L 754 1782 L 1012 1546 L 893 1546 L 672 1686 L 670 1686 L 446 1546 L 328 1546 L 586 1782 Z M 172 1434 L 1155 1434 L 1155 1278 L 346 1278 L 346 803 L 1075 803 L 1075 657 L 346 657 L 346 156 L 1167 156 L 1167 0 L 172 0 L 172 1434 Z" horiz-adv-x="1300" />
<glyph unicode="" d="M 801 1749 L 956 1749 L 956 1581 L 801 1581 L 801 1749 Z M 387 1749 L 545 1749 L 545 1581 L 387 1581 L 387 1749 Z M 172 1434 L 1155 1434 L 1155 1278 L 346 1278 L 346 803 L 1075 803 L 1075 657 L 346 657 L 346 156 L 1167 156 L 1167 0 L 172 0 L 172 1434 Z" horiz-adv-x="1300" />
<glyph unicode="" d="M -18 1726 L 115 1821 L 346 1546 L 217 1546 L -18 1726 Z M 172 1434 L 346 1434 L 346 0 L 172 0 L 172 1434 Z" horiz-adv-x="516" />
<glyph unicode="" d="M 401 1821 L 537 1726 L 301 1546 L 172 1546 L 401 1821 Z M 172 1434 L 346 1434 L 346 0 L 172 0 L 172 1434 Z" horiz-adv-x="516" />
<glyph unicode="" d="M 176 1782 L 344 1782 L 602 1546 L 483 1546 L 262 1686 L 260 1686 L 37 1546 L -82 1546 L 176 1782 Z M 172 1434 L 346 1434 L 346 0 L 172 0 L 172 1434 Z" horiz-adv-x="516" />
<glyph unicode="" d="M 389 1749 L 545 1749 L 545 1581 L 389 1581 L 389 1749 Z M -25 1749 L 133 1749 L 133 1581 L -25 1581 L -25 1749 Z M 172 1434 L 346 1434 L 346 0 L 172 0 L 172 1434 Z" horiz-adv-x="516" />
<glyph unicode="" d="M 436 1556 C 432 1592 433 1625 440 1654 C 446 1683 457 1708 472 1728 C 487 1748 506 1763 529 1774 C 551 1784 577 1790 606 1790 C 637 1790 664 1783 688 1770 C 712 1756 734 1741 754 1725 C 774 1709 793 1694 811 1681 C 829 1667 848 1661 868 1661 C 894 1661 913 1670 926 1690 C 939 1709 944 1736 940 1772 L 1047 1772 C 1051 1735 1050 1702 1044 1673 C 1037 1644 1026 1620 1011 1600 C 995 1580 976 1564 953 1554 C 930 1543 905 1538 877 1538 C 845 1538 818 1544 794 1558 C 770 1571 749 1585 729 1601 C 709 1617 689 1631 671 1645 C 652 1658 632 1665 612 1665 C 587 1665 568 1655 556 1637 C 543 1618 539 1591 543 1556 L 436 1556 Z M 172 1434 L 348 1434 L 1145 270 L 1145 1434 L 1313 1434 L 1313 0 L 1135 0 L 340 1161 L 340 0 L 172 0 L 172 1434 Z" horiz-adv-x="1485" />
<glyph unicode="" d="M 553 1726 L 686 1821 L 918 1546 L 788 1546 L 553 1726 Z M 113 727 C 113 837 131 938 168 1028 C 204 1118 255 1194 319 1258 C 383 1322 459 1371 547 1406 C 634 1440 728 1458 829 1458 C 929 1458 1023 1440 1110 1406 C 1197 1371 1273 1322 1338 1258 C 1402 1194 1453 1118 1490 1028 C 1527 938 1546 837 1546 727 C 1546 611 1527 507 1491 415 C 1454 322 1403 243 1339 178 C 1275 112 1199 62 1112 27 C 1024 -7 930 -25 829 -25 C 727 -25 633 -7 546 27 C 458 62 383 112 319 178 C 255 243 204 322 168 415 C 131 507 113 611 113 727 Z M 291 727 C 291 633 304 549 332 475 C 360 401 398 338 446 286 C 494 234 551 195 617 168 C 682 140 753 127 829 127 C 904 127 974 140 1040 168 C 1106 195 1163 234 1211 286 C 1259 338 1298 401 1326 475 C 1354 549 1368 633 1368 727 C 1368 815 1354 895 1326 967 C 1298 1038 1259 1099 1211 1149 C 1163 1199 1106 1238 1040 1266 C 974 1293 904 1307 829 1307 C 753 1307 683 1293 618 1266 C 552 1238 495 1199 447 1149 C 398 1099 360 1038 332 967 C 304 895 291 815 291 727 Z" horiz-adv-x="1657" />
<glyph unicode="" d="M 973 1821 L 1108 1726 L 872 1546 L 743 1546 L 973 1821 Z M 113 727 C 113 837 131 938 168 1028 C 204 1118 255 1194 319 1258 C 383 1322 459 1371 547 1406 C 634 1440 728 1458 829 1458 C 929 1458 1023 1440 1110 1406 C 1197 1371 1273 1322 1338 1258 C 1402 1194 1453 1118 1490 1028 C 1527 938 1546 837 1546 727 C 1546 611 1527 507 1491 415 C 1454 322 1403 243 1339 178 C 1275 112 1199 62 1112 27 C 1024 -7 930 -25 829 -25 C 727 -25 633 -7 546 27 C 458 62 383 112 319 178 C 255 243 204 322 168 415 C 131 507 113 611 113 727 Z M 291 727 C 291 633 304 549 332 475 C 360 401 398 338 446 286 C 494 234 551 195 617 168 C 682 140 753 127 829 127 C 904 127 974 140 1040 168 C 1106 195 1163 234 1211 286 C 1259 338 1298 401 1326 475 C 1354 549 1368 633 1368 727 C 1368 815 1354 895 1326 967 C 1298 1038 1259 1099 1211 1149 C 1163 1199 1106 1238 1040 1266 C 974 1293 904 1307 829 1307 C 753 1307 683 1293 618 1266 C 552 1238 495 1199 447 1149 C 398 1099 360 1038 332 967 C 304 895 291 815 291 727 Z" horiz-adv-x="1657" />
<glyph unicode="" d="M 745 1782 L 913 1782 L 1171 1546 L 1053 1546 L 831 1686 L 829 1686 L 606 1546 L 487 1546 L 745 1782 Z M 113 727 C 113 837 131 938 168 1028 C 204 1118 255 1194 319 1258 C 383 1322 459 1371 547 1406 C 634 1440 728 1458 829 1458 C 929 1458 1023 1440 1110 1406 C 1197 1371 1273 1322 1338 1258 C 1402 1194 1453 1118 1490 1028 C 1527 938 1546 837 1546 727 C 1546 611 1527 507 1491 415 C 1454 322 1403 243 1339 178 C 1275 112 1199 62 1112 27 C 1024 -7 930 -25 829 -25 C 727 -25 633 -7 546 27 C 458 62 383 112 319 178 C 255 243 204 322 168 415 C 131 507 113 611 113 727 Z M 291 727 C 291 633 304 549 332 475 C 360 401 398 338 446 286 C 494 234 551 195 617 168 C 682 140 753 127 829 127 C 904 127 974 140 1040 168 C 1106 195 1163 234 1211 286 C 1259 338 1298 401 1326 475 C 1354 549 1368 633 1368 727 C 1368 815 1354 895 1326 967 C 1298 1038 1259 1099 1211 1149 C 1163 1199 1106 1238 1040 1266 C 974 1293 904 1307 829 1307 C 753 1307 683 1293 618 1266 C 552 1238 495 1199 447 1149 C 398 1099 360 1038 332 967 C 304 895 291 815 291 727 Z" horiz-adv-x="1657" />
<glyph unicode="" d="M 524 1556 C 520 1592 521 1625 528 1654 C 534 1683 545 1708 560 1728 C 575 1748 594 1763 617 1774 C 639 1784 665 1790 694 1790 C 725 1790 752 1783 776 1770 C 800 1756 822 1741 842 1725 C 862 1709 881 1694 899 1681 C 917 1667 936 1661 956 1661 C 982 1661 1001 1670 1014 1690 C 1027 1709 1032 1736 1028 1772 L 1135 1772 C 1139 1735 1138 1702 1132 1673 C 1125 1644 1114 1620 1099 1600 C 1083 1580 1064 1564 1041 1554 C 1018 1543 993 1538 965 1538 C 933 1538 906 1544 882 1558 C 858 1571 837 1585 817 1601 C 797 1617 777 1631 759 1645 C 740 1658 720 1665 700 1665 C 675 1665 656 1655 644 1637 C 631 1618 627 1591 631 1556 L 524 1556 Z M 113 727 C 113 837 131 938 168 1028 C 204 1118 255 1194 319 1258 C 383 1322 459 1371 547 1406 C 634 1440 728 1458 829 1458 C 929 1458 1023 1440 1110 1406 C 1197 1371 1273 1322 1338 1258 C 1402 1194 1453 1118 1490 1028 C 1527 938 1546 837 1546 727 C 1546 611 1527 507 1491 415 C 1454 322 1403 243 1339 178 C 1275 112 1199 62 1112 27 C 1024 -7 930 -25 829 -25 C 727 -25 633 -7 546 27 C 458 62 383 112 319 178 C 255 243 204 322 168 415 C 131 507 113 611 113 727 Z M 291 727 C 291 633 304 549 332 475 C 360 401 398 338 446 286 C 494 234 551 195 617 168 C 682 140 753 127 829 127 C 904 127 974 140 1040 168 C 1106 195 1163 234 1211 286 C 1259 338 1298 401 1326 475 C 1354 549 1368 633 1368 727 C 1368 815 1354 895 1326 967 C 1298 1038 1259 1099 1211 1149 C 1163 1199 1106 1238 1040 1266 C 974 1293 904 1307 829 1307 C 753 1307 683 1293 618 1266 C 552 1238 495 1199 447 1149 C 398 1099 360 1038 332 967 C 304 895 291 815 291 727 Z" horiz-adv-x="1657" />
<glyph unicode="" d="M 958 1749 L 1114 1749 L 1114 1581 L 958 1581 L 958 1749 Z M 545 1749 L 702 1749 L 702 1581 L 545 1581 L 545 1749 Z M 113 727 C 113 837 131 938 168 1028 C 204 1118 255 1194 319 1258 C 383 1322 459 1371 547 1406 C 634 1440 728 1458 829 1458 C 929 1458 1023 1440 1110 1406 C 1197 1371 1273 1322 1338 1258 C 1402 1194 1453 1118 1490 1028 C 1527 938 1546 837 1546 727 C 1546 611 1527 507 1491 415 C 1454 322 1403 243 1339 178 C 1275 112 1199 62 1112 27 C 1024 -7 930 -25 829 -25 C 727 -25 633 -7 546 27 C 458 62 383 112 319 178 C 255 243 204 322 168 415 C 131 507 113 611 113 727 Z M 291 727 C 291 633 304 549 332 475 C 360 401 398 338 446 286 C 494 234 551 195 617 168 C 682 140 753 127 829 127 C 904 127 974 140 1040 168 C 1106 195 1163 234 1211 286 C 1259 338 1298 401 1326 475 C 1354 549 1368 633 1368 727 C 1368 815 1354 895 1326 967 C 1298 1038 1259 1099 1211 1149 C 1163 1199 1106 1238 1040 1266 C 974 1293 904 1307 829 1307 C 753 1307 683 1293 618 1266 C 552 1238 495 1199 447 1149 C 398 1099 360 1038 332 967 C 304 895 291 815 291 727 Z" horiz-adv-x="1657" />
<glyph unicode="" d="M 113 727 C 113 837 131 938 168 1028 C 204 1118 255 1194 319 1258 C 383 1322 459 1371 547 1406 C 634 1440 728 1458 829 1458 C 905 1458 978 1447 1047 1427 C 1115 1406 1179 1377 1237 1339 L 1364 1507 L 1454 1436 L 1325 1272 C 1393 1207 1447 1129 1487 1037 C 1526 945 1546 842 1546 727 C 1546 611 1527 507 1491 415 C 1454 322 1403 243 1339 178 C 1275 112 1199 62 1112 27 C 1024 -7 930 -25 829 -25 C 752 -25 679 -15 611 5 C 543 25 480 54 424 92 L 295 -74 L 205 -6 L 336 162 C 266 228 211 308 172 402 C 132 496 113 605 113 727 Z M 1368 727 C 1368 814 1354 893 1328 963 C 1301 1033 1264 1094 1217 1145 L 516 223 C 605 159 709 127 829 127 C 904 127 974 140 1040 168 C 1106 195 1163 234 1211 286 C 1259 338 1298 401 1326 475 C 1354 549 1368 633 1368 727 Z M 291 727 C 291 633 304 550 331 477 C 357 403 394 341 442 289 L 1141 1210 C 1097 1241 1048 1265 996 1282 C 943 1298 887 1307 829 1307 C 753 1307 683 1293 618 1266 C 552 1238 495 1199 447 1149 C 398 1099 360 1038 332 967 C 304 895 291 815 291 727 Z" horiz-adv-x="1657" />
<glyph unicode="" d="M 455 1726 L 588 1821 L 819 1546 L 690 1546 L 455 1726 Z M 166 1434 L 342 1434 L 342 530 C 342 464 352 406 372 356 C 392 306 420 264 455 230 C 490 196 531 170 579 153 C 627 135 678 127 733 127 C 787 127 838 135 886 153 C 934 170 975 196 1011 230 C 1047 264 1075 306 1095 356 C 1115 406 1126 464 1126 530 L 1126 1434 L 1300 1434 L 1300 530 C 1300 438 1285 357 1256 288 C 1227 218 1187 160 1136 114 C 1085 68 1025 33 956 10 C 887 -13 813 -25 733 -25 C 653 -25 578 -13 509 10 C 440 33 380 68 329 114 C 278 160 238 218 209 288 C 180 357 166 438 166 530 L 166 1434 Z" horiz-adv-x="1466" />
<glyph unicode="" d="M 877 1821 L 1012 1726 L 776 1546 L 647 1546 L 877 1821 Z M 166 1434 L 342 1434 L 342 530 C 342 464 352 406 372 356 C 392 306 420 264 455 230 C 490 196 531 170 579 153 C 627 135 678 127 733 127 C 787 127 838 135 886 153 C 934 170 975 196 1011 230 C 1047 264 1075 306 1095 356 C 1115 406 1126 464 1126 530 L 1126 1434 L 1300 1434 L 1300 530 C 1300 438 1285 357 1256 288 C 1227 218 1187 160 1136 114 C 1085 68 1025 33 956 10 C 887 -13 813 -25 733 -25 C 653 -25 578 -13 509 10 C 440 33 380 68 329 114 C 278 160 238 218 209 288 C 180 357 166 438 166 530 L 166 1434 Z" horiz-adv-x="1466" />
<glyph unicode="" d="M 649 1782 L 817 1782 L 1075 1546 L 956 1546 L 735 1686 L 733 1686 L 510 1546 L 391 1546 L 649 1782 Z M 166 1434 L 342 1434 L 342 530 C 342 464 352 406 372 356 C 392 306 420 264 455 230 C 490 196 531 170 579 153 C 627 135 678 127 733 127 C 787 127 838 135 886 153 C 934 170 975 196 1011 230 C 1047 264 1075 306 1095 356 C 1115 406 1126 464 1126 530 L 1126 1434 L 1300 1434 L 1300 530 C 1300 438 1285 357 1256 288 C 1227 218 1187 160 1136 114 C 1085 68 1025 33 956 10 C 887 -13 813 -25 733 -25 C 653 -25 578 -13 509 10 C 440 33 380 68 329 114 C 278 160 238 218 209 288 C 180 357 166 438 166 530 L 166 1434 Z" horiz-adv-x="1466" />
<glyph unicode="" d="M 862 1749 L 1018 1749 L 1018 1581 L 862 1581 L 862 1749 Z M 449 1749 L 606 1749 L 606 1581 L 449 1581 L 449 1749 Z M 166 1434 L 342 1434 L 342 530 C 342 464 352 406 372 356 C 392 306 420 264 455 230 C 490 196 531 170 579 153 C 627 135 678 127 733 127 C 787 127 838 135 886 153 C 934 170 975 196 1011 230 C 1047 264 1075 306 1095 356 C 1115 406 1126 464 1126 530 L 1126 1434 L 1300 1434 L 1300 530 C 1300 438 1285 357 1256 288 C 1227 218 1187 160 1136 114 C 1085 68 1025 33 956 10 C 887 -13 813 -25 733 -25 C 653 -25 578 -13 509 10 C 440 33 380 68 329 114 C 278 160 238 218 209 288 C 180 357 166 438 166 530 L 166 1434 Z" horiz-adv-x="1466" />
<glyph unicode="" d="M 162 1116 C 162 1187 173 1250 197 1306 C 220 1361 252 1407 294 1445 C 335 1483 384 1511 441 1531 C 498 1551 561 1561 629 1561 C 695 1561 758 1551 816 1532 C 874 1513 924 1486 967 1450 C 1009 1414 1043 1370 1067 1319 C 1091 1267 1104 1209 1104 1145 C 1104 1103 1098 1065 1086 1029 C 1074 993 1056 960 1034 930 C 1011 900 983 875 951 853 C 918 831 881 813 840 801 C 896 791 946 775 991 753 C 1035 730 1073 702 1105 668 C 1137 634 1161 596 1178 552 C 1195 508 1204 461 1204 410 C 1204 340 1191 279 1167 226 C 1142 172 1108 127 1065 91 C 1022 54 972 26 914 8 C 856 -10 795 -20 729 -20 C 687 -20 647 -17 609 -12 C 571 -6 536 0 506 10 L 537 152 C 560 143 587 136 618 131 C 648 125 679 123 711 123 C 755 123 797 129 837 142 C 876 154 910 173 940 198 C 969 223 992 254 1009 290 C 1025 326 1034 368 1034 416 C 1034 462 1025 504 1007 542 C 989 579 963 611 931 637 C 899 663 860 682 814 696 C 768 710 718 717 662 717 L 571 717 L 571 860 L 631 860 C 681 860 726 867 764 882 C 802 897 833 917 858 943 C 883 968 902 998 915 1032 C 927 1066 934 1101 934 1139 C 934 1183 926 1223 912 1259 C 897 1294 876 1324 850 1349 C 823 1373 791 1392 753 1405 C 715 1418 674 1425 629 1425 C 585 1425 544 1418 508 1405 C 471 1392 439 1373 413 1347 C 387 1321 366 1288 352 1250 C 337 1212 330 1168 330 1118 L 330 0 L 162 0 L 162 1116 Z" horiz-adv-x="1303" />
<glyph unicode="" d="M 100 246 C 100 312 118 368 154 413 C 190 457 237 493 297 521 C 356 549 424 569 501 583 C 577 596 657 604 739 608 L 739 764 C 739 790 735 815 727 837 C 719 859 706 879 690 895 C 673 911 652 923 626 932 C 600 941 568 946 532 946 C 476 946 420 936 362 917 C 304 897 249 874 197 848 L 131 983 C 159 997 190 1010 223 1022 C 255 1034 289 1045 324 1055 C 359 1065 394 1072 430 1078 C 466 1084 501 1087 537 1087 C 603 1087 659 1078 706 1062 C 753 1046 792 1023 822 995 C 852 966 874 932 888 892 C 902 852 909 808 909 762 L 909 231 C 909 194 918 167 937 149 C 956 131 982 123 1016 123 L 1016 -2 C 978 -2 946 0 918 6 C 890 11 865 19 845 30 C 825 40 808 54 794 71 C 780 87 769 107 760 131 C 739 108 716 87 692 68 C 667 49 640 33 611 19 C 582 5 551 -5 518 -13 C 484 -21 449 -25 412 -25 C 365 -25 322 -18 284 -5 C 246 7 213 25 186 49 C 158 73 137 101 122 135 C 107 168 100 205 100 246 Z M 268 258 C 268 234 272 213 281 195 C 289 176 301 160 317 147 C 333 134 352 124 374 117 C 396 109 421 106 449 106 C 481 106 511 109 540 117 C 569 124 596 134 621 146 C 645 158 668 173 688 189 C 708 205 725 223 739 242 L 739 500 C 703 498 667 495 630 491 C 593 487 557 482 522 475 C 487 467 454 458 423 446 C 392 434 365 420 342 403 C 319 385 301 365 288 341 C 274 317 268 290 268 258 Z M 248 1446 L 369 1538 L 653 1176 L 537 1176 L 248 1446 Z" horiz-adv-x="1085" />
<glyph unicode="" d="M 100 246 C 100 312 118 368 154 413 C 190 457 237 493 297 521 C 356 549 424 569 501 583 C 577 596 657 604 739 608 L 739 764 C 739 790 735 815 727 837 C 719 859 706 879 690 895 C 673 911 652 923 626 932 C 600 941 568 946 532 946 C 476 946 420 936 362 917 C 304 897 249 874 197 848 L 131 983 C 159 997 190 1010 223 1022 C 255 1034 289 1045 324 1055 C 359 1065 394 1072 430 1078 C 466 1084 501 1087 537 1087 C 603 1087 659 1078 706 1062 C 753 1046 792 1023 822 995 C 852 966 874 932 888 892 C 902 852 909 808 909 762 L 909 231 C 909 194 918 167 937 149 C 956 131 982 123 1016 123 L 1016 -2 C 978 -2 946 0 918 6 C 890 11 865 19 845 30 C 825 40 808 54 794 71 C 780 87 769 107 760 131 C 739 108 716 87 692 68 C 667 49 640 33 611 19 C 582 5 551 -5 518 -13 C 484 -21 449 -25 412 -25 C 365 -25 322 -18 284 -5 C 246 7 213 25 186 49 C 158 73 137 101 122 135 C 107 168 100 205 100 246 Z M 268 258 C 268 234 272 213 281 195 C 289 176 301 160 317 147 C 333 134 352 124 374 117 C 396 109 421 106 449 106 C 481 106 511 109 540 117 C 569 124 596 134 621 146 C 645 158 668 173 688 189 C 708 205 725 223 739 242 L 739 500 C 703 498 667 495 630 491 C 593 487 557 482 522 475 C 487 467 454 458 423 446 C 392 434 365 420 342 403 C 319 385 301 365 288 341 C 274 317 268 290 268 258 Z M 741 1538 L 862 1446 L 573 1176 L 457 1176 L 741 1538 Z" horiz-adv-x="1085" />
<glyph unicode="" d="M 100 246 C 100 312 118 368 154 413 C 190 457 237 493 297 521 C 356 549 424 569 501 583 C 577 596 657 604 739 608 L 739 764 C 739 790 735 815 727 837 C 719 859 706 879 690 895 C 673 911 652 923 626 932 C 600 941 568 946 532 946 C 476 946 420 936 362 917 C 304 897 249 874 197 848 L 131 983 C 159 997 190 1010 223 1022 C 255 1034 289 1045 324 1055 C 359 1065 394 1072 430 1078 C 466 1084 501 1087 537 1087 C 603 1087 659 1078 706 1062 C 753 1046 792 1023 822 995 C 852 966 874 932 888 892 C 902 852 909 808 909 762 L 909 231 C 909 194 918 167 937 149 C 956 131 982 123 1016 123 L 1016 -2 C 978 -2 946 0 918 6 C 890 11 865 19 845 30 C 825 40 808 54 794 71 C 780 87 769 107 760 131 C 739 108 716 87 692 68 C 667 49 640 33 611 19 C 582 5 551 -5 518 -13 C 484 -21 449 -25 412 -25 C 365 -25 322 -18 284 -5 C 246 7 213 25 186 49 C 158 73 137 101 122 135 C 107 168 100 205 100 246 Z M 268 258 C 268 234 272 213 281 195 C 289 176 301 160 317 147 C 333 134 352 124 374 117 C 396 109 421 106 449 106 C 481 106 511 109 540 117 C 569 124 596 134 621 146 C 645 158 668 173 688 189 C 708 205 725 223 739 242 L 739 500 C 703 498 667 495 630 491 C 593 487 557 482 522 475 C 487 467 454 458 423 446 C 392 434 365 420 342 403 C 319 385 301 365 288 341 C 274 317 268 290 268 258 Z M 467 1499 L 647 1499 L 901 1176 L 778 1176 L 557 1399 L 555 1399 L 334 1176 L 213 1176 L 467 1499 Z" horiz-adv-x="1085" />
<glyph unicode="" d="M 100 246 C 100 312 118 368 154 413 C 190 457 237 493 297 521 C 356 549 424 569 501 583 C 577 596 657 604 739 608 L 739 764 C 739 790 735 815 727 837 C 719 859 706 879 690 895 C 673 911 652 923 626 932 C 600 941 568 946 532 946 C 476 946 420 936 362 917 C 304 897 249 874 197 848 L 131 983 C 159 997 190 1010 223 1022 C 255 1034 289 1045 324 1055 C 359 1065 394 1072 430 1078 C 466 1084 501 1087 537 1087 C 603 1087 659 1078 706 1062 C 753 1046 792 1023 822 995 C 852 966 874 932 888 892 C 902 852 909 808 909 762 L 909 231 C 909 194 918 167 937 149 C 956 131 982 123 1016 123 L 1016 -2 C 978 -2 946 0 918 6 C 890 11 865 19 845 30 C 825 40 808 54 794 71 C 780 87 769 107 760 131 C 739 108 716 87 692 68 C 667 49 640 33 611 19 C 582 5 551 -5 518 -13 C 484 -21 449 -25 412 -25 C 365 -25 322 -18 284 -5 C 246 7 213 25 186 49 C 158 73 137 101 122 135 C 107 168 100 205 100 246 Z M 268 258 C 268 234 272 213 281 195 C 289 176 301 160 317 147 C 333 134 352 124 374 117 C 396 109 421 106 449 106 C 481 106 511 109 540 117 C 569 124 596 134 621 146 C 645 158 668 173 688 189 C 708 205 725 223 739 242 L 739 500 C 703 498 667 495 630 491 C 593 487 557 482 522 475 C 487 467 454 458 423 446 C 392 434 365 420 342 403 C 319 385 301 365 288 341 C 274 317 268 290 268 258 Z M 252 1229 C 248 1265 249 1298 255 1327 C 261 1356 272 1381 287 1401 C 302 1421 321 1437 344 1448 C 367 1458 393 1464 422 1464 C 453 1464 480 1457 504 1444 C 527 1430 548 1415 568 1399 C 588 1383 607 1368 625 1355 C 643 1341 662 1335 682 1335 C 707 1335 726 1344 740 1363 C 753 1382 758 1410 754 1446 L 858 1446 C 862 1408 861 1375 855 1346 C 849 1317 838 1292 823 1272 C 808 1252 789 1236 766 1226 C 743 1215 718 1210 690 1210 C 669 1210 650 1213 633 1219 C 616 1225 600 1233 585 1243 C 570 1252 556 1262 543 1273 C 530 1284 517 1294 505 1304 C 492 1313 479 1321 467 1327 C 454 1333 441 1337 428 1337 C 403 1337 384 1328 371 1310 C 358 1292 354 1265 358 1229 L 252 1229 Z" horiz-adv-x="1085" />
<glyph unicode="" d="M 100 246 C 100 312 118 368 154 413 C 190 457 237 493 297 521 C 356 549 424 569 501 583 C 577 596 657 604 739 608 L 739 764 C 739 790 735 815 727 837 C 719 859 706 879 690 895 C 673 911 652 923 626 932 C 600 941 568 946 532 946 C 476 946 420 936 362 917 C 304 897 249 874 197 848 L 131 983 C 159 997 190 1010 223 1022 C 255 1034 289 1045 324 1055 C 359 1065 394 1072 430 1078 C 466 1084 501 1087 537 1087 C 603 1087 659 1078 706 1062 C 753 1046 792 1023 822 995 C 852 966 874 932 888 892 C 902 852 909 808 909 762 L 909 231 C 909 194 918 167 937 149 C 956 131 982 123 1016 123 L 1016 -2 C 978 -2 946 0 918 6 C 890 11 865 19 845 30 C 825 40 808 54 794 71 C 780 87 769 107 760 131 C 739 108 716 87 692 68 C 667 49 640 33 611 19 C 582 5 551 -5 518 -13 C 484 -21 449 -25 412 -25 C 365 -25 322 -18 284 -5 C 246 7 213 25 186 49 C 158 73 137 101 122 135 C 107 168 100 205 100 246 Z M 268 258 C 268 234 272 213 281 195 C 289 176 301 160 317 147 C 333 134 352 124 374 117 C 396 109 421 106 449 106 C 481 106 511 109 540 117 C 569 124 596 134 621 146 C 645 158 668 173 688 189 C 708 205 725 223 739 242 L 739 500 C 703 498 667 495 630 491 C 593 487 557 482 522 475 C 487 467 454 458 423 446 C 392 434 365 420 342 403 C 319 385 301 365 288 341 C 274 317 268 290 268 258 Z M 678 1421 L 834 1421 L 834 1253 L 678 1253 L 678 1421 Z M 279 1421 L 434 1421 L 434 1253 L 279 1253 L 279 1421 Z" horiz-adv-x="1085" />
<glyph unicode="" d="M 100 246 C 100 312 118 368 154 413 C 190 457 237 493 297 521 C 356 549 424 569 501 583 C 577 596 657 604 739 608 L 739 764 C 739 790 735 815 727 837 C 719 859 706 879 690 895 C 673 911 652 923 626 932 C 600 941 568 946 532 946 C 476 946 420 936 362 917 C 304 897 249 874 197 848 L 131 983 C 159 997 190 1010 223 1022 C 255 1034 289 1045 324 1055 C 359 1065 394 1072 430 1078 C 466 1084 501 1087 537 1087 C 603 1087 659 1078 706 1062 C 753 1046 792 1023 822 995 C 852 966 874 932 888 892 C 902 852 909 808 909 762 L 909 231 C 909 194 918 167 937 149 C 956 131 982 123 1016 123 L 1016 -2 C 978 -2 946 0 918 6 C 890 11 865 19 845 30 C 825 40 808 54 794 71 C 780 87 769 107 760 131 C 739 108 716 87 692 68 C 667 49 640 33 611 19 C 582 5 551 -5 518 -13 C 484 -21 449 -25 412 -25 C 365 -25 322 -18 284 -5 C 246 7 213 25 186 49 C 158 73 137 101 122 135 C 107 168 100 205 100 246 Z M 268 258 C 268 234 272 213 281 195 C 289 176 301 160 317 147 C 333 134 352 124 374 117 C 396 109 421 106 449 106 C 481 106 511 109 540 117 C 569 124 596 134 621 146 C 645 158 668 173 688 189 C 708 205 725 223 739 242 L 739 500 C 703 498 667 495 630 491 C 593 487 557 482 522 475 C 487 467 454 458 423 446 C 392 434 365 420 342 403 C 319 385 301 365 288 341 C 274 317 268 290 268 258 Z M 555 1167 C 525 1167 497 1172 471 1183 C 445 1193 422 1208 403 1227 C 383 1245 368 1267 357 1293 C 345 1318 340 1346 340 1376 C 340 1406 345 1433 357 1459 C 368 1484 383 1506 403 1525 C 422 1543 445 1558 471 1569 C 497 1579 525 1585 555 1585 C 585 1585 613 1579 639 1569 C 665 1558 687 1543 707 1525 C 726 1506 741 1484 753 1459 C 764 1433 770 1406 770 1376 C 770 1346 764 1318 753 1293 C 741 1267 726 1245 707 1227 C 687 1208 665 1193 639 1183 C 613 1172 585 1167 555 1167 Z M 555 1241 C 573 1241 591 1244 607 1252 C 623 1259 637 1269 649 1281 C 661 1293 670 1308 677 1324 C 684 1340 688 1358 688 1376 C 688 1394 684 1412 677 1428 C 670 1444 661 1459 649 1471 C 637 1483 623 1492 607 1499 C 591 1505 573 1509 555 1509 C 536 1509 519 1505 503 1499 C 487 1492 473 1483 461 1471 C 449 1459 439 1444 432 1428 C 425 1412 422 1394 422 1376 C 422 1358 425 1340 432 1324 C 439 1308 449 1293 461 1281 C 473 1269 487 1259 503 1252 C 519 1244 536 1241 555 1241 Z" horiz-adv-x="1085" />
<glyph unicode="" d="M 831 186 C 812 158 789 132 761 106 C 733 80 701 58 666 38 C 630 18 591 3 549 -9 C 507 -21 462 -27 416 -27 C 368 -27 324 -20 286 -7 C 247 5 214 23 186 47 C 158 71 137 99 122 133 C 107 166 100 203 100 244 C 99 288 107 327 124 362 C 140 396 163 426 193 452 C 222 478 257 500 297 518 C 337 536 381 551 429 563 C 476 575 526 584 579 590 C 632 596 686 601 741 604 L 741 766 C 741 792 737 816 729 838 C 721 860 708 879 692 895 C 676 911 655 923 629 932 C 603 941 573 946 537 946 C 509 946 481 943 453 938 C 424 932 395 925 366 916 C 337 907 308 897 280 885 C 252 873 225 861 199 848 L 131 983 C 161 997 192 1010 225 1023 C 258 1035 292 1047 327 1057 C 362 1067 397 1075 433 1081 C 468 1087 503 1090 537 1090 C 585 1090 627 1085 664 1075 C 700 1065 732 1051 758 1033 C 784 1015 806 993 823 968 C 839 942 852 915 860 885 C 901 949 955 999 1021 1035 C 1087 1071 1163 1090 1249 1090 C 1323 1090 1387 1077 1442 1053 C 1496 1029 1541 995 1577 953 C 1613 911 1639 861 1657 803 C 1674 745 1683 682 1683 614 C 1683 600 1682 585 1680 567 C 1678 549 1677 535 1675 524 L 911 524 C 913 386 944 284 1005 216 C 1065 148 1150 115 1260 115 C 1317 115 1372 124 1426 143 C 1479 162 1527 186 1569 215 L 1647 100 C 1591 60 1529 28 1462 6 C 1395 -15 1325 -27 1253 -27 C 1156 -27 1072 -8 1002 28 C 932 64 875 117 831 186 Z M 1518 639 C 1518 683 1514 724 1505 763 C 1495 801 1480 835 1459 864 C 1437 893 1410 916 1376 933 C 1342 949 1300 958 1251 958 C 1207 958 1167 950 1130 936 C 1093 921 1060 900 1031 873 C 1002 845 978 812 958 773 C 938 733 925 689 918 639 L 1518 639 Z M 270 256 C 270 233 274 212 283 194 C 291 175 304 159 320 146 C 336 132 355 122 377 115 C 399 107 424 104 451 104 C 485 104 519 108 552 117 C 584 126 615 139 643 155 C 671 171 696 191 719 215 C 741 239 760 265 776 295 C 766 325 758 356 752 390 C 746 424 742 460 741 498 C 688 496 634 491 578 483 C 522 475 472 463 426 446 C 380 428 343 404 314 374 C 284 343 270 304 270 256 Z" horiz-adv-x="1792" />
<glyph unicode="" d="M 262 -379 C 291 -355 319 -330 346 -302 C 372 -274 397 -245 419 -215 C 441 -185 461 -153 477 -119 C 493 -85 506 -51 514 -16 C 452 -6 395 13 345 43 C 294 73 251 111 215 159 C 179 207 151 263 131 327 C 111 391 102 463 102 543 C 102 627 114 702 139 769 C 164 836 199 893 244 940 C 289 987 342 1023 404 1049 C 466 1074 534 1087 608 1087 C 679 1087 743 1076 801 1056 C 859 1035 910 1007 954 973 L 864 856 C 834 878 799 899 757 917 C 715 935 667 944 612 944 C 562 944 517 934 476 916 C 434 897 399 870 369 836 C 339 802 315 760 299 710 C 282 660 274 605 274 543 C 274 477 282 417 298 365 C 314 312 337 267 367 231 C 397 194 432 166 474 146 C 515 126 561 117 612 117 C 641 117 668 119 693 124 C 717 129 740 136 762 145 C 784 154 804 165 823 177 C 842 189 861 203 879 219 L 977 115 C 925 69 872 35 816 13 C 760 -9 696 -22 623 -25 C 610 -105 584 -181 544 -253 C 504 -325 453 -388 391 -444 L 262 -379 L 262 -379 Z" horiz-adv-x="1057" />
<glyph unicode="" d="M 104 543 C 104 626 116 701 142 769 C 168 836 203 893 249 941 C 294 989 348 1025 410 1051 C 472 1077 539 1090 612 1090 C 686 1090 751 1077 806 1053 C 861 1029 907 995 943 953 C 979 911 1005 861 1023 803 C 1040 745 1049 682 1049 614 C 1049 600 1048 585 1046 567 C 1044 549 1042 535 1040 524 L 274 524 C 276 394 307 293 365 222 C 423 150 509 115 625 115 C 682 115 737 124 791 143 C 844 162 892 186 936 215 L 1012 100 C 957 61 896 30 828 7 C 760 -15 689 -27 616 -27 C 535 -27 463 -14 400 12 C 336 38 283 75 239 124 C 195 173 161 233 138 304 C 115 374 104 454 104 543 Z M 616 958 C 572 958 532 950 495 936 C 458 921 425 900 396 873 C 366 845 342 812 322 773 C 302 733 289 689 281 639 L 885 639 C 885 683 881 724 871 763 C 861 801 846 835 825 864 C 803 893 775 916 741 933 C 707 949 665 958 616 958 Z M 299 1446 L 420 1538 L 705 1176 L 588 1176 L 299 1446 Z" horiz-adv-x="1159" />
<glyph unicode="" d="M 104 543 C 104 626 116 701 142 769 C 168 836 203 893 249 941 C 294 989 348 1025 410 1051 C 472 1077 539 1090 612 1090 C 686 1090 751 1077 806 1053 C 861 1029 907 995 943 953 C 979 911 1005 861 1023 803 C 1040 745 1049 682 1049 614 C 1049 600 1048 585 1046 567 C 1044 549 1042 535 1040 524 L 274 524 C 276 394 307 293 365 222 C 423 150 509 115 625 115 C 682 115 737 124 791 143 C 844 162 892 186 936 215 L 1012 100 C 957 61 896 30 828 7 C 760 -15 689 -27 616 -27 C 535 -27 463 -14 400 12 C 336 38 283 75 239 124 C 195 173 161 233 138 304 C 115 374 104 454 104 543 Z M 616 958 C 572 958 532 950 495 936 C 458 921 425 900 396 873 C 366 845 342 812 322 773 C 302 733 289 689 281 639 L 885 639 C 885 683 881 724 871 763 C 861 801 846 835 825 864 C 803 893 775 916 741 933 C 707 949 665 958 616 958 Z M 793 1538 L 913 1446 L 625 1176 L 508 1176 L 793 1538 Z" horiz-adv-x="1159" />
<glyph unicode="" d="M 104 543 C 104 626 116 701 142 769 C 168 836 203 893 249 941 C 294 989 348 1025 410 1051 C 472 1077 539 1090 612 1090 C 686 1090 751 1077 806 1053 C 861 1029 907 995 943 953 C 979 911 1005 861 1023 803 C 1040 745 1049 682 1049 614 C 1049 600 1048 585 1046 567 C 1044 549 1042 535 1040 524 L 274 524 C 276 394 307 293 365 222 C 423 150 509 115 625 115 C 682 115 737 124 791 143 C 844 162 892 186 936 215 L 1012 100 C 957 61 896 30 828 7 C 760 -15 689 -27 616 -27 C 535 -27 463 -14 400 12 C 336 38 283 75 239 124 C 195 173 161 233 138 304 C 115 374 104 454 104 543 Z M 616 958 C 572 958 532 950 495 936 C 458 921 425 900 396 873 C 366 845 342 812 322 773 C 302 733 289 689 281 639 L 885 639 C 885 683 881 724 871 763 C 861 801 846 835 825 864 C 803 893 775 916 741 933 C 707 949 665 958 616 958 Z M 520 1499 L 700 1499 L 954 1176 L 831 1176 L 610 1399 L 608 1399 L 387 1176 L 266 1176 L 520 1499 Z" horiz-adv-x="1159" />
<glyph unicode="" d="M 104 543 C 104 626 116 701 142 769 C 168 836 203 893 249 941 C 294 989 348 1025 410 1051 C 472 1077 539 1090 612 1090 C 686 1090 751 1077 806 1053 C 861 1029 907 995 943 953 C 979 911 1005 861 1023 803 C 1040 745 1049 682 1049 614 C 1049 600 1048 585 1046 567 C 1044 549 1042 535 1040 524 L 274 524 C 276 394 307 293 365 222 C 423 150 509 115 625 115 C 682 115 737 124 791 143 C 844 162 892 186 936 215 L 1012 100 C 957 61 896 30 828 7 C 760 -15 689 -27 616 -27 C 535 -27 463 -14 400 12 C 336 38 283 75 239 124 C 195 173 161 233 138 304 C 115 374 104 454 104 543 Z M 616 958 C 572 958 532 950 495 936 C 458 921 425 900 396 873 C 366 845 342 812 322 773 C 302 733 289 689 281 639 L 885 639 C 885 683 881 724 871 763 C 861 801 846 835 825 864 C 803 893 775 916 741 933 C 707 949 665 958 616 958 Z M 332 1421 L 487 1421 L 487 1253 L 332 1253 L 332 1421 Z M 731 1421 L 887 1421 L 887 1253 L 731 1253 L 731 1421 Z" horiz-adv-x="1159" />
<glyph unicode="" d="M 166 1057 L 336 1057 L 336 0 L 166 0 L 166 1057 Z M -59 1446 L 61 1538 L 346 1176 L 229 1176 L -59 1446 Z" horiz-adv-x="500" />
<glyph unicode="" d="M 436 1538 L 557 1446 L 268 1176 L 152 1176 L 436 1538 Z M 166 1057 L 336 1057 L 336 0 L 166 0 L 166 1057 Z" horiz-adv-x="500" />
<glyph unicode="" d="M 160 1499 L 340 1499 L 594 1176 L 471 1176 L 250 1399 L 248 1399 L 27 1176 L -94 1176 L 160 1499 Z M 166 1057 L 336 1057 L 336 0 L 166 0 L 166 1057 Z" horiz-adv-x="500" />
<glyph unicode="" d="M 373 1421 L 528 1421 L 528 1253 L 373 1253 L 373 1421 Z M -27 1421 L 129 1421 L 129 1253 L -27 1253 L -27 1421 Z M 166 1057 L 336 1057 L 336 0 L 166 0 L 166 1057 Z" horiz-adv-x="500" />
<glyph unicode="" d="M 158 1063 L 315 1063 L 326 920 C 348 943 373 965 400 986 C 426 1006 455 1024 486 1040 C 516 1055 549 1067 583 1076 C 617 1085 652 1090 690 1090 C 750 1090 801 1081 843 1063 C 885 1045 920 1020 947 988 C 974 956 994 917 1007 872 C 1019 826 1026 776 1026 721 L 1026 0 L 856 0 L 856 723 C 856 757 852 788 845 816 C 837 844 826 869 810 889 C 794 909 773 924 747 935 C 721 946 689 952 653 952 C 587 952 527 937 473 907 C 419 877 371 836 328 782 L 328 0 L 158 0 L 158 1063 Z M 287 1229 C 283 1265 284 1298 290 1327 C 296 1356 307 1381 322 1401 C 337 1421 356 1437 379 1448 C 402 1458 428 1464 457 1464 C 488 1464 515 1457 539 1444 C 562 1430 583 1415 603 1399 C 623 1383 642 1368 660 1355 C 678 1341 697 1335 717 1335 C 742 1335 761 1344 775 1363 C 788 1382 792 1410 788 1446 L 893 1446 C 897 1408 896 1375 890 1346 C 884 1317 873 1292 858 1272 C 843 1252 824 1236 801 1226 C 778 1215 753 1210 725 1210 C 704 1210 685 1213 668 1219 C 651 1225 635 1233 620 1243 C 605 1252 591 1262 578 1273 C 565 1284 552 1294 540 1304 C 527 1313 514 1321 502 1327 C 489 1333 476 1337 463 1337 C 438 1337 419 1328 406 1310 C 393 1292 389 1265 393 1229 L 287 1229 Z" horiz-adv-x="1178" />
<glyph unicode="" d="M 305 1446 L 426 1538 L 711 1176 L 594 1176 L 305 1446 Z M 104 545 C 104 627 117 701 143 768 C 169 835 204 892 250 939 C 296 986 350 1022 412 1048 C 474 1074 542 1087 616 1087 C 689 1087 757 1074 819 1048 C 881 1022 934 986 980 939 C 1025 892 1060 835 1086 768 C 1111 701 1124 627 1124 545 C 1124 457 1111 378 1087 308 C 1063 238 1028 178 984 129 C 939 79 885 41 823 15 C 761 -11 692 -25 616 -25 C 539 -25 469 -11 406 15 C 343 41 289 79 245 129 C 200 178 165 238 141 308 C 116 378 104 457 104 545 Z M 276 545 C 276 479 283 420 299 367 C 315 313 337 268 367 230 C 396 192 432 162 474 142 C 516 121 563 111 616 111 C 667 111 713 121 755 142 C 796 162 831 192 861 230 C 890 268 912 313 928 367 C 944 420 952 479 952 545 C 952 605 943 660 927 710 C 910 760 887 802 857 838 C 827 874 792 901 751 921 C 710 940 665 950 616 950 C 566 950 521 940 479 921 C 437 901 402 874 372 838 C 342 802 318 760 301 710 C 284 660 276 605 276 545 Z" horiz-adv-x="1231" />
<glyph unicode="" d="M 801 1538 L 922 1446 L 633 1176 L 516 1176 L 801 1538 Z M 104 545 C 104 627 117 701 143 768 C 169 835 204 892 250 939 C 296 986 350 1022 412 1048 C 474 1074 542 1087 616 1087 C 689 1087 757 1074 819 1048 C 881 1022 934 986 980 939 C 1025 892 1060 835 1086 768 C 1111 701 1124 627 1124 545 C 1124 457 1111 378 1087 308 C 1063 238 1028 178 984 129 C 939 79 885 41 823 15 C 761 -11 692 -25 616 -25 C 539 -25 469 -11 406 15 C 343 41 289 79 245 129 C 200 178 165 238 141 308 C 116 378 104 457 104 545 Z M 276 545 C 276 479 283 420 299 367 C 315 313 337 268 367 230 C 396 192 432 162 474 142 C 516 121 563 111 616 111 C 667 111 713 121 755 142 C 796 162 831 192 861 230 C 890 268 912 313 928 367 C 944 420 952 479 952 545 C 952 605 943 660 927 710 C 910 760 887 802 857 838 C 827 874 792 901 751 921 C 710 940 665 950 616 950 C 566 950 521 940 479 921 C 437 901 402 874 372 838 C 342 802 318 760 301 710 C 284 660 276 605 276 545 Z" horiz-adv-x="1231" />
<glyph unicode="" d="M 526 1499 L 707 1499 L 961 1176 L 838 1176 L 616 1399 L 614 1399 L 393 1176 L 272 1176 L 526 1499 Z M 104 545 C 104 627 117 701 143 768 C 169 835 204 892 250 939 C 296 986 350 1022 412 1048 C 474 1074 542 1087 616 1087 C 689 1087 757 1074 819 1048 C 881 1022 934 986 980 939 C 1025 892 1060 835 1086 768 C 1111 701 1124 627 1124 545 C 1124 457 1111 378 1087 308 C 1063 238 1028 178 984 129 C 939 79 885 41 823 15 C 761 -11 692 -25 616 -25 C 539 -25 469 -11 406 15 C 343 41 289 79 245 129 C 200 178 165 238 141 308 C 116 378 104 457 104 545 Z M 276 545 C 276 479 283 420 299 367 C 315 313 337 268 367 230 C 396 192 432 162 474 142 C 516 121 563 111 616 111 C 667 111 713 121 755 142 C 796 162 831 192 861 230 C 890 268 912 313 928 367 C 944 420 952 479 952 545 C 952 605 943 660 927 710 C 910 760 887 802 857 838 C 827 874 792 901 751 921 C 710 940 665 950 616 950 C 566 950 521 940 479 921 C 437 901 402 874 372 838 C 342 802 318 760 301 710 C 284 660 276 605 276 545 Z" horiz-adv-x="1231" />
<glyph unicode="" d="M 104 545 C 104 627 117 701 143 768 C 169 835 204 892 250 939 C 296 986 350 1022 412 1048 C 474 1074 542 1087 616 1087 C 689 1087 757 1074 819 1048 C 881 1022 934 986 980 939 C 1025 892 1060 835 1086 768 C 1111 701 1124 627 1124 545 C 1124 457 1111 378 1087 308 C 1063 238 1028 178 984 129 C 939 79 885 41 823 15 C 761 -11 692 -25 616 -25 C 539 -25 469 -11 406 15 C 343 41 289 79 245 129 C 200 178 165 238 141 308 C 116 378 104 457 104 545 Z M 276 545 C 276 479 283 420 299 367 C 315 313 337 268 367 230 C 396 192 432 162 474 142 C 516 121 563 111 616 111 C 667 111 713 121 755 142 C 796 162 831 192 861 230 C 890 268 912 313 928 367 C 944 420 952 479 952 545 C 952 605 943 660 927 710 C 910 760 887 802 857 838 C 827 874 792 901 751 921 C 710 940 665 950 616 950 C 566 950 521 940 479 921 C 437 901 402 874 372 838 C 342 802 318 760 301 710 C 284 660 276 605 276 545 Z M 311 1229 C 307 1265 308 1298 315 1327 C 321 1356 332 1381 347 1401 C 362 1421 381 1437 404 1448 C 426 1458 452 1464 481 1464 C 512 1464 539 1457 563 1444 C 587 1430 608 1415 628 1399 C 648 1383 666 1368 684 1355 C 702 1341 721 1335 741 1335 C 767 1335 786 1344 799 1363 C 812 1382 817 1410 813 1446 L 918 1446 C 922 1408 921 1375 915 1346 C 908 1317 897 1292 882 1272 C 867 1252 848 1236 826 1226 C 803 1215 778 1210 750 1210 C 719 1210 692 1216 668 1230 C 644 1243 623 1257 603 1273 C 583 1289 563 1303 545 1317 C 527 1330 507 1337 487 1337 C 462 1337 443 1328 431 1310 C 418 1292 414 1265 418 1229 L 311 1229 Z" horiz-adv-x="1231" />
<glyph unicode="" d="M 737 1421 L 893 1421 L 893 1253 L 737 1253 L 737 1421 Z M 338 1421 L 494 1421 L 494 1253 L 338 1253 L 338 1421 Z M 104 545 C 104 627 117 701 143 768 C 169 835 204 892 250 939 C 296 986 350 1022 412 1048 C 474 1074 542 1087 616 1087 C 689 1087 757 1074 819 1048 C 881 1022 934 986 980 939 C 1025 892 1060 835 1086 768 C 1111 701 1124 627 1124 545 C 1124 457 1111 378 1087 308 C 1063 238 1028 178 984 129 C 939 79 885 41 823 15 C 761 -11 692 -25 616 -25 C 539 -25 469 -11 406 15 C 343 41 289 79 245 129 C 200 178 165 238 141 308 C 116 378 104 457 104 545 Z M 276 545 C 276 479 283 420 299 367 C 315 313 337 268 367 230 C 396 192 432 162 474 142 C 516 121 563 111 616 111 C 667 111 713 121 755 142 C 796 162 831 192 861 230 C 890 268 912 313 928 367 C 944 420 952 479 952 545 C 952 605 943 660 927 710 C 910 760 887 802 857 838 C 827 874 792 901 751 921 C 710 940 665 950 616 950 C 566 950 521 940 479 921 C 437 901 402 874 372 838 C 342 802 318 760 301 710 C 284 660 276 605 276 545 Z" horiz-adv-x="1231" />
<glyph unicode="" d="M 547 1020 L 709 1020 L 709 821 L 547 821 L 547 1020 Z M 547 242 L 709 242 L 709 45 L 547 45 L 547 242 Z M 96 606 L 1161 606 L 1161 459 L 96 459 L 96 606 Z" horiz-adv-x="1257" />
<glyph unicode="" d="M 104 545 C 104 627 117 701 143 768 C 169 835 204 892 250 939 C 296 986 350 1022 412 1048 C 474 1074 542 1087 616 1087 C 670 1087 722 1079 770 1065 C 818 1051 863 1030 905 1004 L 1026 1163 L 1116 1094 L 987 930 C 1030 882 1064 826 1088 762 C 1112 698 1124 625 1124 545 C 1124 457 1111 378 1087 308 C 1063 238 1028 178 984 129 C 939 79 885 41 823 15 C 761 -11 692 -25 616 -25 C 558 -25 505 -17 456 -3 C 406 11 362 33 322 61 L 190 -106 L 98 -39 L 238 139 C 196 189 163 247 139 315 C 115 383 104 459 104 545 Z M 952 545 C 952 597 945 644 933 688 C 921 732 904 771 883 805 L 408 186 C 464 136 533 111 616 111 C 667 111 713 121 755 142 C 796 162 831 192 861 230 C 890 268 912 313 928 367 C 944 420 952 479 952 545 Z M 276 545 C 276 431 298 336 344 262 L 815 881 C 787 902 756 919 723 931 C 689 943 654 950 616 950 C 566 950 521 940 479 921 C 437 901 402 874 372 838 C 342 802 318 760 301 710 C 284 660 276 605 276 545 Z" horiz-adv-x="1231" />
<glyph unicode="" d="M 154 1063 L 324 1063 L 324 340 C 324 306 327 274 334 246 C 340 218 351 194 367 174 C 383 154 404 138 430 127 C 456 116 488 111 526 111 C 592 111 652 125 706 155 C 760 185 810 227 854 281 L 854 1063 L 1024 1063 L 1024 0 L 870 0 L 856 143 C 833 119 808 97 782 77 C 755 57 726 39 696 24 C 665 9 633 -2 599 -11 C 565 -20 529 -25 492 -25 C 431 -25 379 -16 337 1 C 294 19 259 44 232 76 C 205 108 185 147 173 193 C 160 238 154 288 154 344 L 154 1063 Z M 270 1446 L 391 1538 L 676 1176 L 559 1176 L 270 1446 Z" horiz-adv-x="1180" />
<glyph unicode="" d="M 780 1538 L 901 1446 L 612 1176 L 496 1176 L 780 1538 Z M 154 1063 L 324 1063 L 324 340 C 324 306 327 274 334 246 C 340 218 351 194 367 174 C 383 154 404 138 430 127 C 456 116 488 111 526 111 C 592 111 652 125 706 155 C 760 185 810 227 854 281 L 854 1063 L 1024 1063 L 1024 0 L 870 0 L 856 143 C 833 119 808 97 782 77 C 755 57 726 39 696 24 C 665 9 633 -2 599 -11 C 565 -20 529 -25 492 -25 C 431 -25 379 -16 337 1 C 294 19 259 44 232 76 C 205 108 185 147 173 193 C 160 238 154 288 154 344 L 154 1063 Z" horiz-adv-x="1180" />
<glyph unicode="" d="M 500 1499 L 680 1499 L 934 1176 L 811 1176 L 590 1399 L 588 1399 L 367 1176 L 246 1176 L 500 1499 Z M 154 1063 L 324 1063 L 324 340 C 324 306 327 274 334 246 C 340 218 351 194 367 174 C 383 154 404 138 430 127 C 456 116 488 111 526 111 C 592 111 652 125 706 155 C 760 185 810 227 854 281 L 854 1063 L 1024 1063 L 1024 0 L 870 0 L 856 143 C 833 119 808 97 782 77 C 755 57 726 39 696 24 C 665 9 633 -2 599 -11 C 565 -20 529 -25 492 -25 C 431 -25 379 -16 337 1 C 294 19 259 44 232 76 C 205 108 185 147 173 193 C 160 238 154 288 154 344 L 154 1063 Z" horiz-adv-x="1180" />
<glyph unicode="" d="M 711 1421 L 866 1421 L 866 1253 L 711 1253 L 711 1421 Z M 311 1421 L 467 1421 L 467 1253 L 311 1253 L 311 1421 Z M 154 1063 L 324 1063 L 324 340 C 324 306 327 274 334 246 C 340 218 351 194 367 174 C 383 154 404 138 430 127 C 456 116 488 111 526 111 C 592 111 652 125 706 155 C 760 185 810 227 854 281 L 854 1063 L 1024 1063 L 1024 0 L 870 0 L 856 143 C 833 119 808 97 782 77 C 755 57 726 39 696 24 C 665 9 633 -2 599 -11 C 565 -20 529 -25 492 -25 C 431 -25 379 -16 337 1 C 294 19 259 44 232 76 C 205 108 185 147 173 193 C 160 238 154 288 154 344 L 154 1063 Z" horiz-adv-x="1180" />
<glyph unicode="" d="M 82 -258 C 102 -266 124 -273 146 -279 C 168 -285 190 -289 211 -289 C 230 -289 248 -287 264 -283 C 280 -279 295 -272 309 -262 C 323 -252 335 -239 346 -223 C 357 -207 367 -186 377 -162 L 442 6 L 47 1063 L 223 1063 L 524 223 L 528 223 L 821 1063 L 993 1063 L 545 -174 C 525 -224 504 -265 481 -298 C 458 -331 433 -357 406 -377 C 378 -397 349 -410 318 -418 C 286 -426 253 -430 217 -430 C 184 -430 151 -426 119 -420 C 87 -414 58 -405 33 -395 L 82 -258 Z M 645 1421 L 801 1421 L 801 1253 L 645 1253 L 645 1421 Z M 246 1421 L 401 1421 L 401 1253 L 246 1253 L 246 1421 Z" horiz-adv-x="1040" />
<glyph unicode="" d="M 166 1057 L 336 1057 L 336 0 L 166 0 L 166 1057 Z" horiz-adv-x="500" />
<glyph unicode="" d="M 113 729 C 113 799 121 865 137 929 C 153 992 177 1051 207 1105 C 237 1159 273 1207 316 1251 C 358 1294 406 1331 458 1362 C 510 1392 566 1416 627 1433 C 687 1449 751 1458 817 1458 C 875 1458 932 1450 986 1435 C 1040 1420 1090 1399 1137 1372 C 1183 1344 1225 1311 1263 1272 C 1301 1233 1333 1189 1360 1141 L 1360 1434 L 2343 1434 L 2343 1278 L 1534 1278 L 1534 803 L 2261 803 L 2261 655 L 1534 655 L 1534 156 L 2355 156 L 2355 0 L 1360 0 L 1360 293 C 1334 243 1302 198 1265 159 C 1227 119 1186 86 1140 59 C 1094 31 1043 10 989 -3 C 935 -17 877 -25 817 -25 C 715 -25 622 -6 536 30 C 450 66 375 118 313 184 C 250 250 201 330 166 423 C 130 515 113 617 113 729 Z M 289 729 C 289 639 302 558 329 484 C 355 410 392 346 440 293 C 487 240 543 199 609 170 C 674 141 745 127 823 127 C 900 127 971 141 1037 170 C 1103 199 1159 240 1207 293 C 1255 346 1292 410 1319 484 C 1346 558 1360 639 1360 729 C 1360 813 1346 890 1318 961 C 1290 1031 1251 1092 1203 1144 C 1155 1195 1098 1235 1033 1264 C 967 1292 897 1307 823 1307 C 747 1307 677 1292 612 1264 C 547 1235 491 1195 443 1144 C 395 1092 357 1031 330 961 C 302 890 289 813 289 729 Z" horiz-adv-x="2486" />
<glyph unicode="" d="M 104 545 C 104 627 117 701 143 769 C 169 836 205 893 251 941 C 297 988 351 1025 414 1051 C 476 1077 544 1090 618 1090 C 668 1090 714 1083 758 1071 C 801 1058 840 1040 876 1016 C 912 992 943 962 970 928 C 997 893 1019 854 1036 811 C 1073 898 1128 966 1202 1016 C 1275 1065 1361 1090 1460 1090 C 1534 1090 1599 1077 1654 1053 C 1709 1029 1755 995 1791 953 C 1827 911 1853 861 1871 803 C 1889 745 1898 682 1898 614 C 1898 600 1897 585 1895 567 C 1893 549 1892 535 1890 524 L 1126 524 C 1128 391 1158 290 1216 220 C 1274 150 1360 115 1475 115 C 1531 115 1586 124 1640 143 C 1694 162 1742 186 1784 215 L 1862 100 C 1806 61 1744 30 1677 7 C 1610 -15 1540 -27 1468 -27 C 1358 -27 1267 -2 1195 46 C 1123 95 1070 164 1036 254 C 1001 165 948 96 876 47 C 804 -2 718 -27 618 -27 C 541 -27 471 -13 408 13 C 344 40 290 78 245 128 C 200 178 165 238 141 308 C 116 378 104 457 104 545 Z M 279 545 C 279 479 286 420 302 367 C 318 313 340 268 369 230 C 398 192 433 162 475 142 C 517 121 564 111 616 111 C 667 111 713 121 755 142 C 796 162 831 192 861 230 C 890 268 912 313 928 367 C 944 420 952 479 952 545 C 952 606 943 662 927 712 C 911 762 888 804 858 840 C 828 876 793 903 752 923 C 711 942 666 952 616 952 C 566 952 521 942 480 923 C 438 903 403 876 373 840 C 343 804 320 762 304 712 C 287 662 279 606 279 545 Z M 1733 639 C 1733 683 1729 724 1719 763 C 1709 801 1694 835 1673 864 C 1651 893 1623 916 1589 933 C 1555 949 1513 958 1464 958 C 1420 958 1380 950 1343 936 C 1306 921 1273 900 1245 873 C 1216 845 1192 812 1173 773 C 1153 733 1140 689 1133 639 L 1733 639 Z" horiz-adv-x="2007" />
<glyph unicode="" d="M 815 1749 L 971 1749 L 971 1581 L 815 1581 L 815 1749 Z M 401 1749 L 559 1749 L 559 1581 L 401 1581 L 401 1749 Z M 598 584 L 57 1434 L 264 1434 L 684 752 L 688 752 L 1108 1434 L 1313 1434 L 772 584 L 772 0 L 598 0 L 598 584 Z" horiz-adv-x="1370" />
<glyph unicode="" d="M -51 -272 C -37 -276 -19 -281 1 -285 C 22 -289 43 -291 63 -291 C 121 -291 163 -271 189 -231 C 215 -191 229 -130 229 -47 L 229 506 L 39 506 L 39 639 L 229 639 L 229 733 C 229 807 239 869 259 921 C 279 973 308 1015 344 1047 C 380 1079 423 1103 473 1118 C 523 1133 577 1141 637 1141 C 651 1141 666 1140 682 1138 C 698 1136 713 1134 729 1132 C 744 1129 758 1126 772 1122 C 786 1118 798 1115 809 1112 L 768 983 C 751 988 731 993 709 997 C 687 1001 664 1004 641 1004 C 563 1004 504 982 463 938 C 421 894 401 825 401 733 L 401 637 L 694 637 L 694 506 L 401 506 L 401 -47 C 401 -116 394 -175 380 -223 C 366 -271 346 -311 319 -341 C 292 -371 258 -393 218 -407 C 178 -421 131 -428 78 -428 C 48 -428 19 -425 -11 -420 C -41 -414 -68 -407 -94 -399 L -51 -272 L -51 -272 Z" horiz-adv-x="788" />
<glyph unicode="" d="M 580 1499 L 760 1499 L 1014 1176 L 891 1176 L 670 1399 L 668 1399 L 446 1176 L 326 1176 L 580 1499 Z" horiz-adv-x="1325" />
<glyph unicode="" d="M 326 1499 L 446 1499 L 668 1276 L 670 1276 L 891 1499 L 1014 1499 L 760 1176 L 580 1176 L 326 1499 Z" horiz-adv-x="1325" />
<glyph unicode="" d="M 664 1165 C 616 1165 572 1172 534 1188 C 495 1203 461 1225 433 1254 C 404 1283 381 1318 364 1359 C 347 1400 336 1447 332 1499 L 449 1499 C 457 1432 479 1379 517 1341 C 554 1303 603 1284 664 1284 C 724 1284 773 1303 811 1341 C 849 1379 871 1432 879 1499 L 995 1499 C 991 1447 981 1400 964 1359 C 946 1318 923 1283 895 1254 C 866 1225 832 1203 793 1188 C 753 1172 710 1165 664 1165 Z" horiz-adv-x="1311" />
<glyph unicode="" d="M 563 1421 L 721 1421 L 721 1253 L 563 1253 L 563 1421 Z" horiz-adv-x="1286" />
<glyph unicode="" d="M 655 1167 C 625 1167 597 1172 571 1183 C 545 1193 522 1208 503 1227 C 483 1245 468 1267 457 1293 C 445 1318 440 1346 440 1376 C 440 1406 445 1433 457 1459 C 468 1484 483 1506 503 1525 C 522 1543 545 1558 571 1569 C 597 1579 625 1585 655 1585 C 685 1585 713 1579 739 1569 C 765 1558 787 1543 807 1525 C 826 1506 841 1484 853 1459 C 864 1433 870 1406 870 1376 C 870 1346 864 1318 853 1293 C 841 1267 826 1245 807 1227 C 787 1208 765 1193 739 1183 C 713 1172 685 1167 655 1167 Z M 655 1241 C 673 1241 691 1244 707 1252 C 723 1259 737 1269 749 1281 C 761 1293 770 1308 777 1324 C 784 1340 788 1358 788 1376 C 788 1394 784 1412 777 1428 C 770 1444 761 1459 749 1471 C 737 1483 723 1492 707 1499 C 691 1505 673 1509 655 1509 C 637 1509 619 1505 603 1499 C 587 1492 573 1483 561 1471 C 549 1459 539 1444 532 1428 C 525 1412 522 1394 522 1376 C 522 1358 525 1340 532 1324 C 539 1308 549 1293 561 1281 C 573 1269 587 1259 603 1252 C 619 1244 637 1241 655 1241 Z" horiz-adv-x="1298" />
<glyph unicode="" d="M 799 -395 C 779 -403 758 -410 735 -416 C 711 -421 687 -424 662 -424 C 628 -424 598 -419 571 -410 C 543 -401 520 -388 501 -372 C 481 -355 466 -335 456 -311 C 445 -287 440 -261 440 -231 C 440 -193 448 -157 466 -124 C 483 -91 506 -60 536 -32 C 566 -4 600 22 640 46 C 680 70 722 91 768 111 L 807 49 C 773 31 742 14 714 -4 C 685 -22 660 -41 639 -61 C 617 -81 601 -102 589 -124 C 577 -146 571 -171 571 -197 C 571 -227 581 -251 601 -268 C 621 -284 648 -293 682 -293 C 704 -293 725 -290 744 -285 C 763 -279 779 -272 793 -264 L 799 -268 L 799 -395 Z" horiz-adv-x="1298" />
<glyph unicode="" d="M 358 1229 C 354 1265 355 1298 362 1327 C 368 1356 379 1381 394 1401 C 409 1421 428 1437 451 1448 C 473 1458 499 1464 528 1464 C 559 1464 586 1457 610 1444 C 634 1430 655 1415 675 1399 C 695 1383 713 1368 731 1355 C 749 1341 768 1335 788 1335 C 814 1335 833 1344 846 1363 C 859 1382 864 1410 860 1446 L 965 1446 C 969 1408 968 1375 962 1346 C 955 1317 944 1292 929 1272 C 914 1252 895 1236 873 1226 C 850 1215 825 1210 797 1210 C 766 1210 739 1216 715 1230 C 691 1243 670 1257 650 1273 C 630 1289 610 1303 592 1317 C 574 1330 555 1337 535 1337 C 509 1337 490 1328 478 1310 C 465 1292 461 1265 465 1229 L 358 1229 L 358 1229 Z" horiz-adv-x="1317" />
<glyph unicode="" d="M 584 1538 L 707 1452 L 426 1176 L 313 1176 L 584 1538 Z M 905 1538 L 1026 1452 L 748 1176 L 637 1176 L 905 1538 Z" horiz-adv-x="1325" />
<glyph unicode="" d="M 1102 973 L 1102 369 C 1102 324 1107 286 1117 256 C 1127 226 1142 201 1162 183 C 1182 165 1207 152 1238 144 C 1268 136 1304 133 1346 133 L 1346 -6 C 1274 -6 1211 0 1159 13 C 1107 25 1064 46 1030 76 C 996 105 970 144 954 192 C 938 240 930 299 930 369 L 930 973 L 592 973 L 592 0 L 420 0 L 420 973 L 125 973 L 125 1116 L 1413 1116 L 1413 973 L 1102 973 Z" horiz-adv-x="1540" />
<glyph unicode="" d="M 94 612 L 1116 612 L 1116 461 L 94 461 L 94 612 Z" horiz-adv-x="1210" />
<glyph unicode="" d="M 96 612 L 1774 612 L 1774 461 L 96 461 L 96 612 Z" horiz-adv-x="1870" />
<glyph unicode="" d="M 317 920 L 127 920 L 127 1118 C 127 1162 131 1201 139 1235 C 147 1269 159 1299 175 1325 C 191 1351 212 1373 237 1392 C 262 1410 292 1427 326 1442 L 369 1366 C 325 1344 292 1317 272 1283 C 252 1249 242 1208 242 1159 L 317 1159 L 317 920 Z" horiz-adv-x="446" />
<glyph unicode="" d="M 129 1434 L 319 1434 L 319 1235 C 319 1190 315 1151 307 1117 C 299 1083 286 1054 270 1028 C 254 1002 233 979 209 961 C 184 942 155 925 121 911 L 78 987 C 122 1008 154 1035 174 1069 C 194 1103 205 1144 205 1194 L 129 1194 L 129 1434 Z" horiz-adv-x="446" />
<glyph unicode="" d="M 129 240 L 319 240 L 319 41 C 319 -3 315 -42 307 -76 C 299 -110 286 -140 270 -166 C 254 -192 233 -214 209 -233 C 184 -251 155 -268 121 -283 L 78 -207 C 122 -185 154 -158 174 -124 C 194 -90 205 -49 205 0 L 129 0 L 129 240 Z" horiz-adv-x="446" />
<glyph unicode="" d="M 317 920 L 127 920 L 127 1118 C 127 1162 131 1201 139 1235 C 147 1269 159 1299 175 1325 C 191 1351 212 1373 237 1392 C 262 1410 292 1427 326 1442 L 369 1366 C 325 1344 292 1317 272 1283 C 252 1249 242 1208 242 1159 L 317 1159 L 317 920 Z M 727 920 L 537 920 L 537 1118 C 537 1162 541 1201 549 1235 C 557 1269 569 1299 585 1325 C 601 1351 622 1373 647 1392 C 671 1410 701 1427 735 1442 L 778 1366 C 734 1344 701 1317 681 1283 C 661 1249 651 1208 651 1159 L 727 1159 L 727 920 Z" horiz-adv-x="856" />
<glyph unicode="" d="M 537 1434 L 727 1434 L 727 1235 C 727 1190 723 1151 715 1117 C 707 1083 694 1054 678 1028 C 662 1002 641 979 616 961 C 591 942 562 925 528 911 L 485 987 C 529 1008 561 1035 581 1069 C 601 1103 612 1144 612 1194 L 537 1194 L 537 1434 Z M 129 1434 L 319 1434 L 319 1235 C 319 1190 315 1151 307 1117 C 299 1083 286 1054 270 1028 C 254 1002 233 979 209 961 C 184 942 155 925 121 911 L 78 987 C 122 1008 154 1035 174 1069 C 194 1103 205 1144 205 1194 L 129 1194 L 129 1434 Z" horiz-adv-x="856" />
<glyph unicode="" d="M 537 240 L 727 240 L 727 41 C 727 -3 723 -42 715 -76 C 707 -110 694 -140 678 -166 C 662 -192 641 -214 616 -233 C 591 -251 562 -268 528 -283 L 485 -207 C 529 -185 561 -158 581 -124 C 601 -90 612 -49 612 0 L 537 0 L 537 240 Z M 129 240 L 319 240 L 319 41 C 319 -3 315 -42 307 -76 C 299 -110 286 -140 270 -166 C 254 -192 233 -214 209 -233 C 184 -251 155 -268 121 -283 L 78 -207 C 122 -185 154 -158 174 -124 C 194 -90 205 -49 205 0 L 129 0 L 129 240 Z" horiz-adv-x="856" />
<glyph unicode="" d="M 391 881 L 418 1126 L 250 1110 L 117 1110 L 117 1255 L 250 1255 L 416 1239 L 391 1493 L 391 1546 L 553 1546 L 553 1493 L 526 1239 L 696 1255 L 829 1255 L 829 1110 L 696 1110 L 526 1126 L 553 881 L 553 557 L 391 557 L 391 881 Z" horiz-adv-x="946" />
<glyph unicode="" d="M 391 467 L 416 688 L 250 668 L 117 668 L 117 817 L 250 817 L 416 801 L 397 979 L 416 1165 L 250 1147 L 117 1147 L 117 1296 L 250 1296 L 416 1278 L 391 1497 L 391 1546 L 553 1546 L 553 1497 L 526 1280 L 696 1296 L 823 1296 L 823 1147 L 696 1147 L 526 1165 L 547 979 L 528 799 L 696 817 L 823 817 L 823 668 L 696 668 L 528 688 L 553 467 L 553 172 L 391 172 L 391 467 Z" horiz-adv-x="940" />
<glyph unicode="" d="M 289 532 C 289 570 296 607 311 641 C 325 675 345 704 371 730 C 396 755 426 775 460 789 C 494 803 530 811 569 811 C 607 811 644 803 678 789 C 712 775 741 755 767 730 C 792 704 812 675 826 641 C 840 607 848 570 848 532 C 848 493 840 457 826 423 C 812 389 792 359 767 334 C 741 309 712 289 678 275 C 644 261 607 254 569 254 C 530 254 494 261 460 275 C 426 289 396 309 371 334 C 345 359 325 389 311 423 C 296 457 289 493 289 532 Z" horiz-adv-x="1139" />
<glyph unicode="" d="M 129 240 L 319 240 L 319 0 L 129 0 L 129 240 Z M 614 240 L 805 240 L 805 0 L 614 0 L 614 240 Z M 1100 240 L 1290 240 L 1290 0 L 1100 0 L 1100 240 Z" horiz-adv-x="1417" />
<glyph unicode="" d="M 1509 266 C 1509 306 1516 344 1531 379 C 1546 414 1567 444 1594 470 C 1620 496 1652 516 1688 531 C 1724 545 1762 553 1804 553 C 1845 553 1884 545 1920 531 C 1956 516 1987 496 2013 470 C 2039 444 2060 414 2076 379 C 2091 344 2099 306 2099 266 C 2099 224 2091 186 2076 151 C 2060 115 2039 85 2013 59 C 1987 33 1956 13 1920 -1 C 1884 -15 1845 -23 1804 -23 C 1762 -23 1723 -15 1687 -1 C 1651 13 1619 33 1593 59 C 1567 85 1546 115 1531 151 C 1516 186 1509 224 1509 266 Z M 1626 266 C 1626 240 1630 215 1639 193 C 1648 171 1661 151 1677 135 C 1693 118 1712 105 1734 96 C 1756 86 1780 82 1806 82 C 1832 82 1855 86 1877 96 C 1898 105 1916 118 1932 135 C 1948 151 1960 171 1969 193 C 1977 215 1982 240 1982 266 C 1982 292 1977 316 1969 338 C 1960 360 1948 379 1932 396 C 1916 412 1898 425 1877 435 C 1855 444 1832 449 1806 449 C 1780 449 1756 444 1734 435 C 1712 425 1693 412 1677 396 C 1661 379 1648 360 1639 338 C 1630 316 1626 292 1626 266 Z M 1239 1116 L 414 0 L 283 0 L 1108 1116 L 1239 1116 Z M 106 852 C 106 892 113 930 129 965 C 144 1000 165 1030 191 1056 C 217 1082 249 1102 285 1117 C 321 1131 359 1139 401 1139 C 442 1139 481 1131 517 1117 C 553 1102 584 1082 610 1056 C 636 1030 657 1000 673 965 C 688 930 696 892 696 852 C 696 810 688 772 673 737 C 658 701 637 671 611 645 C 585 619 554 599 518 585 C 482 570 443 563 401 563 C 359 563 320 570 284 585 C 248 599 216 619 190 645 C 164 671 143 701 128 737 C 113 772 106 810 106 852 Z M 223 852 C 223 826 227 801 236 779 C 245 757 258 737 274 721 C 290 704 309 691 331 682 C 353 672 377 668 403 668 C 429 668 452 672 474 682 C 496 691 515 704 531 721 C 547 737 559 757 568 779 C 577 801 582 826 582 852 C 582 877 577 901 568 923 C 559 945 547 965 531 981 C 515 997 496 1010 474 1020 C 452 1029 429 1034 403 1034 C 377 1034 353 1029 331 1020 C 309 1010 290 997 274 981 C 258 965 245 945 236 923 C 227 901 223 877 223 852 Z M 829 266 C 829 306 836 344 852 379 C 867 414 888 444 915 470 C 942 496 974 516 1010 531 C 1046 545 1084 553 1126 553 C 1167 553 1206 545 1242 531 C 1278 516 1309 496 1335 470 C 1361 444 1382 414 1398 379 C 1413 344 1421 306 1421 266 C 1421 224 1413 186 1398 151 C 1382 115 1361 85 1335 59 C 1309 33 1278 13 1242 -1 C 1206 -15 1167 -23 1126 -23 C 1084 -23 1044 -15 1008 -1 C 972 13 940 33 914 59 C 888 85 867 115 852 151 C 836 186 829 224 829 266 Z M 946 266 C 946 240 950 215 960 193 C 969 171 982 151 998 135 C 1014 118 1033 105 1055 96 C 1077 86 1100 82 1126 82 C 1152 82 1175 86 1197 96 C 1219 105 1238 118 1254 135 C 1270 151 1282 171 1291 193 C 1300 215 1305 240 1305 266 C 1305 292 1300 316 1291 338 C 1282 360 1270 379 1254 396 C 1238 412 1219 425 1197 435 C 1175 444 1152 449 1126 449 C 1100 449 1077 444 1055 435 C 1033 425 1014 412 998 396 C 982 379 969 360 960 338 C 950 316 946 292 946 266 Z" horiz-adv-x="2206" />
<glyph unicode="" d="M 629 90 L 508 0 L 98 535 L 508 1065 L 629 973 L 274 535 L 629 90 Z" horiz-adv-x="745" />
<glyph unicode="" d="M 471 535 L 117 973 L 238 1065 L 647 535 L 238 0 L 117 90 L 471 535 Z" horiz-adv-x="745" />
<glyph unicode="" d="M 438 1294 L 438 1307 C 388 1296 342 1278 299 1254 C 255 1230 216 1200 180 1165 L 80 1266 C 136 1324 202 1371 277 1406 C 352 1440 434 1458 524 1458 C 592 1458 654 1449 710 1431 C 766 1413 813 1389 853 1357 C 892 1325 922 1286 944 1241 C 966 1196 977 1146 977 1092 C 977 1045 971 1004 960 969 C 948 934 933 903 915 875 C 896 847 875 823 851 801 C 827 779 803 759 778 739 C 753 719 729 700 705 681 C 681 661 659 640 641 618 C 622 596 607 571 595 544 C 583 516 578 485 578 449 L 575 422 L 453 422 L 438 1294 Z M 817 1090 C 817 1145 797 1192 759 1231 C 721 1270 668 1296 602 1309 L 541 653 C 554 683 570 710 589 734 C 608 757 628 779 649 799 C 669 819 690 838 710 857 C 730 875 748 896 764 918 C 780 940 792 964 802 992 C 812 1020 817 1052 817 1090 Z M 418 219 L 606 219 L 606 0 L 418 0 L 418 219 Z" horiz-adv-x="1090" />
<glyph unicode="" d="M 1194 1434 L 1327 1434 L 127 0 L -6 0 L 1194 1434 Z" horiz-adv-x="1321" />
<glyph unicode="" d="M 61 459 L 238 459 C 234 475 232 492 231 510 C 229 528 229 546 229 565 C 229 579 229 594 230 609 C 231 624 233 639 236 653 L 61 653 L 61 764 L 260 764 C 278 820 305 872 340 918 C 375 964 416 1004 463 1037 C 510 1070 562 1096 620 1114 C 678 1132 739 1141 805 1141 C 879 1141 950 1128 1018 1104 C 1086 1080 1148 1043 1202 995 L 1104 887 C 1066 921 1021 949 970 969 C 919 989 865 999 809 999 C 765 999 723 993 684 982 C 645 971 609 955 577 934 C 545 913 516 888 491 858 C 466 828 446 794 430 756 L 827 756 L 827 653 L 401 653 C 397 625 395 595 395 565 C 395 545 395 527 396 510 C 397 492 399 475 403 459 L 827 459 L 827 356 L 436 356 C 469 281 518 223 584 181 C 649 139 725 119 813 119 C 873 119 928 129 979 149 C 1030 169 1074 198 1112 236 L 1225 139 C 1171 87 1109 46 1039 18 C 969 -10 891 -25 807 -25 C 741 -25 680 -16 623 1 C 565 18 513 43 467 76 C 420 108 379 148 345 194 C 310 240 283 292 264 350 L 61 350 L 61 459 Z" horiz-adv-x="1294" />
<glyph unicode="" d="M 125 487 C 162 504 197 521 230 539 C 262 557 294 574 326 592 L 326 1135 C 326 1238 349 1318 395 1375 C 441 1431 507 1460 594 1460 C 686 1460 756 1431 804 1375 C 852 1319 877 1241 877 1141 C 877 1021 844 913 780 819 C 715 725 621 637 498 557 L 498 274 C 498 222 507 182 526 155 C 544 128 576 115 621 115 C 675 115 718 136 752 180 L 852 90 C 821 52 783 24 738 4 C 692 -15 646 -25 598 -25 C 504 -25 436 0 392 49 C 348 98 326 172 326 272 L 326 457 C 300 443 275 430 249 418 C 223 406 196 393 168 381 L 125 487 Z M 498 707 C 576 769 635 834 675 902 C 715 970 735 1047 735 1133 C 735 1159 732 1184 728 1207 C 724 1229 717 1249 707 1265 C 697 1281 685 1294 670 1303 C 654 1312 636 1317 614 1317 C 592 1317 574 1312 559 1303 C 544 1294 532 1281 523 1265 C 514 1249 508 1229 504 1207 C 500 1184 498 1159 498 1133 L 498 707 Z" horiz-adv-x="1001" />
<glyph unicode="" d="M 125 1116 L 285 1116 L 801 303 L 801 1116 L 971 1116 L 971 0 L 809 0 L 297 815 L 297 0 L 125 0 L 125 1116 Z M 1137 803 C 1137 849 1145 891 1162 931 C 1179 970 1202 1004 1232 1033 C 1261 1062 1296 1085 1336 1101 C 1376 1117 1420 1126 1468 1126 C 1515 1126 1559 1117 1599 1101 C 1639 1085 1674 1062 1704 1033 C 1733 1004 1756 970 1773 931 C 1789 891 1798 849 1798 803 C 1798 757 1789 714 1773 674 C 1756 634 1733 599 1704 570 C 1674 541 1639 518 1599 502 C 1559 485 1515 477 1468 477 C 1420 477 1376 485 1336 502 C 1296 518 1261 541 1232 570 C 1202 599 1179 634 1162 674 C 1145 714 1137 757 1137 803 Z M 1272 803 C 1272 773 1277 745 1287 721 C 1297 696 1312 675 1330 657 C 1348 639 1368 626 1392 616 C 1416 606 1441 602 1468 602 C 1495 602 1520 606 1544 616 C 1568 626 1588 639 1606 657 C 1624 675 1638 696 1648 721 C 1658 745 1663 773 1663 803 C 1663 831 1657 858 1647 883 C 1637 907 1623 929 1605 947 C 1587 965 1567 979 1543 989 C 1519 999 1494 1004 1468 1004 C 1441 1004 1416 999 1392 989 C 1368 979 1348 965 1330 947 C 1312 929 1297 907 1287 883 C 1277 858 1272 831 1272 803 Z" horiz-adv-x="1921" />
<glyph unicode="" d="M 893 1434 L 1028 1434 L 1278 1102 L 1524 1434 L 1659 1434 L 1659 676 L 1532 676 L 1532 1245 L 1280 907 L 1020 1245 L 1020 676 L 893 676 L 893 1434 Z M 154 840 C 188 819 228 801 275 787 C 321 773 368 766 416 766 C 480 766 527 775 557 795 C 587 815 602 841 602 874 C 602 898 595 917 581 932 C 567 947 548 960 525 970 C 501 980 475 988 446 994 C 416 1000 386 1007 355 1015 C 324 1022 294 1030 265 1040 C 235 1050 209 1063 186 1079 C 162 1095 144 1116 130 1141 C 116 1165 109 1196 109 1233 C 109 1264 115 1293 129 1319 C 143 1345 163 1368 189 1388 C 215 1407 246 1422 284 1433 C 321 1444 364 1450 412 1450 C 465 1450 517 1443 569 1431 C 621 1418 667 1402 709 1384 L 653 1288 C 617 1305 577 1319 535 1331 C 493 1342 452 1348 412 1348 C 384 1348 360 1345 339 1339 C 317 1333 299 1324 284 1314 C 269 1303 258 1291 250 1277 C 242 1263 238 1249 238 1233 C 238 1209 245 1190 259 1176 C 273 1161 291 1149 314 1140 C 337 1131 363 1123 393 1117 C 422 1111 452 1104 483 1098 C 514 1091 544 1083 574 1073 C 604 1063 630 1049 653 1033 C 676 1016 695 995 709 970 C 723 944 731 912 731 874 C 731 842 724 813 711 787 C 698 760 678 737 652 718 C 626 698 593 683 554 673 C 514 662 468 657 416 657 C 352 657 290 665 232 683 C 173 701 123 722 82 748 L 154 840 Z" horiz-adv-x="1782" />
<glyph unicode="" d="M 907 1434 L 1044 1434 L 1292 1102 L 1538 1434 L 1675 1434 L 1675 676 L 1548 676 L 1548 1245 L 1296 907 L 1036 1245 L 1036 676 L 907 676 L 907 1434 Z M 358 1319 L 74 1319 L 74 1434 L 774 1434 L 774 1319 L 487 1319 L 487 676 L 358 676 L 358 1319 Z" horiz-adv-x="1798" />
<glyph unicode="" d="M 125 547 C 125 637 139 718 169 791 C 198 864 239 927 293 979 C 346 1031 410 1071 485 1099 C 559 1127 642 1141 733 1141 C 809 1141 879 1129 943 1105 C 1007 1081 1062 1047 1108 1004 C 1154 960 1189 908 1215 847 C 1240 785 1253 717 1253 643 C 1253 625 1252 608 1251 591 C 1249 573 1248 557 1247 541 L 406 543 L 406 213 C 446 175 495 147 553 127 C 610 107 673 98 741 98 C 803 98 862 106 919 123 C 975 139 1029 165 1081 199 L 1151 94 C 1029 13 892 -27 741 -27 C 649 -27 566 -13 491 14 C 415 42 350 81 296 131 C 242 181 200 241 170 312 C 140 382 125 461 125 547 Z M 731 1026 C 666 1026 606 1016 551 996 C 496 976 448 949 406 913 L 406 645 L 997 645 L 999 936 C 964 964 924 986 878 1002 C 832 1018 783 1026 731 1026 Z" horiz-adv-x="1380" />
<glyph unicode="" d="M 836 1210 L 932 1100 L 477 711 L 967 721 L 1651 721 L 1651 571 L 967 571 L 477 582 L 934 193 L 836 82 L 193 647 L 836 1210 Z" horiz-adv-x="1843" />
<glyph unicode="" d="M 358 694 L 922 1337 L 1485 694 L 1374 598 L 985 1053 L 995 561 L 995 -121 L 848 -121 L 848 561 L 858 1053 L 469 598 L 358 694 Z" horiz-adv-x="1843" />
<glyph unicode="" d="M 1651 680 L 1008 115 L 909 225 L 1366 614 L 877 604 L 193 604 L 193 754 L 877 754 L 1366 743 L 911 1133 L 1008 1243 L 1651 680 Z" horiz-adv-x="1843" />
<glyph unicode="" d="M 469 682 L 858 227 L 848 719 L 848 1401 L 995 1401 L 995 719 L 985 227 L 1374 682 L 1485 586 L 922 -57 L 358 586 L 469 682 Z" horiz-adv-x="1843" />
<glyph unicode="" d="M 379 1184 L 1231 1128 L 1223 983 L 625 1030 L 979 690 L 1462 207 L 1356 100 L 874 586 L 535 938 L 582 340 L 436 332 L 379 1184 Z" horiz-adv-x="1843" />
<glyph unicode="" d="M 1405 332 L 1260 340 L 1307 938 L 967 586 L 485 100 L 379 207 L 862 690 L 1217 1030 L 618 983 L 610 1128 L 1462 1184 L 1405 332 Z" horiz-adv-x="1843" />
<glyph unicode="" d="M 1462 100 L 610 156 L 618 301 L 1217 254 L 862 594 L 379 1077 L 485 1184 L 967 698 L 1307 346 L 1260 944 L 1405 952 L 1462 100 Z" horiz-adv-x="1843" />
<glyph unicode="" d="M 436 952 L 582 944 L 535 346 L 874 698 L 1356 1184 L 1462 1077 L 979 594 L 625 254 L 1223 301 L 1231 156 L 379 100 L 436 952 Z" horiz-adv-x="1843" />
<glyph unicode="" d="M 1114 522 C 1114 432 1102 354 1078 286 C 1054 218 1021 161 978 115 C 935 69 884 34 824 10 C 764 -13 697 -25 625 -25 C 547 -25 478 -12 416 11 C 354 35 302 70 259 114 C 216 158 183 210 161 271 C 138 331 127 398 127 471 C 127 541 137 604 159 661 C 181 718 211 767 250 808 C 289 848 336 880 391 902 C 445 924 505 936 571 936 C 640 936 706 924 768 901 C 830 877 886 843 936 797 C 929 876 918 948 903 1012 C 887 1076 865 1131 837 1177 C 808 1222 772 1257 728 1282 C 684 1306 631 1319 569 1319 C 539 1319 508 1316 476 1312 C 444 1308 413 1302 383 1295 C 353 1288 324 1280 298 1271 C 271 1262 248 1253 229 1245 L 170 1372 C 192 1382 219 1393 251 1403 C 282 1413 315 1423 350 1431 C 385 1439 421 1445 458 1450 C 495 1455 531 1458 567 1458 C 672 1458 760 1436 830 1393 C 900 1350 957 1288 999 1207 C 1041 1126 1070 1028 1088 912 C 1105 796 1114 666 1114 522 Z M 946 512 C 946 537 945 562 945 587 C 944 611 944 635 944 659 C 894 711 841 748 785 770 C 729 792 668 803 602 803 C 557 803 516 795 479 781 C 441 766 409 744 382 716 C 355 688 334 653 319 612 C 304 570 297 523 297 471 C 297 417 304 368 320 325 C 336 281 358 244 386 213 C 414 182 449 158 489 142 C 529 125 575 117 625 117 C 673 117 717 125 757 143 C 796 160 830 185 858 219 C 886 252 907 293 923 343 C 938 392 946 448 946 512 Z" horiz-adv-x="1243" />
<glyph unicode="" d="M 950 1452 L 1772 0 L 125 0 L 950 1452 Z M 381 147 L 1507 147 L 950 1159 L 381 147 Z" horiz-adv-x="1898" />
<glyph unicode="" d="M 1294 1290 L 1294 0 L 1126 0 L 1126 1290 L 586 1290 L 586 0 L 418 0 L 418 1290 L 125 1290 L 125 1434 L 1587 1434 L 1587 1290 L 1294 1290 Z" horiz-adv-x="1712" />
<glyph unicode="" d="M 125 0 L 125 113 L 731 731 L 158 1325 L 158 1434 L 1225 1434 L 1225 1290 L 399 1290 L 940 731 L 362 143 L 1249 143 L 1249 0 L 125 0 Z" horiz-adv-x="1374" />
<glyph unicode="" d="M 0 940 L 436 1106 L 670 248 L 1346 1434 L 1526 1434 L 688 -25 L 594 -25 L 336 905 L 53 793 L 0 940 Z" horiz-adv-x="1526" />
<glyph unicode="" d="M 465 274 C 495 274 525 281 554 295 C 583 309 611 327 637 351 C 663 374 688 401 711 433 C 733 464 754 497 772 532 C 754 566 733 599 711 631 C 688 663 663 690 637 714 C 611 737 583 756 554 770 C 525 784 495 791 465 791 C 435 791 407 785 381 773 C 355 761 332 745 313 723 C 294 701 279 673 268 641 C 257 609 252 572 252 532 C 252 491 257 455 268 423 C 279 391 294 364 313 342 C 332 320 355 303 381 291 C 407 279 435 274 465 274 Z M 457 135 C 404 135 356 143 312 161 C 268 179 231 204 199 238 C 167 272 143 313 126 363 C 108 412 100 468 100 532 C 100 594 108 650 126 700 C 143 749 167 791 199 825 C 231 859 268 885 312 903 C 356 921 404 930 457 930 C 495 930 533 922 569 908 C 605 894 639 874 671 848 C 703 822 734 792 763 757 C 792 722 819 684 844 643 C 868 684 895 722 924 757 C 953 792 984 822 1016 848 C 1048 874 1083 894 1119 908 C 1155 922 1192 930 1231 930 C 1283 930 1331 921 1375 903 C 1419 885 1456 859 1488 825 C 1519 791 1543 749 1561 700 C 1578 650 1587 594 1587 532 C 1587 468 1578 412 1561 363 C 1543 313 1519 272 1488 238 C 1456 204 1419 179 1375 161 C 1331 143 1283 135 1231 135 C 1192 135 1155 142 1119 156 C 1083 170 1048 190 1016 216 C 984 241 953 271 924 307 C 895 342 868 380 844 422 C 819 380 792 342 763 307 C 734 271 703 241 671 216 C 639 190 605 170 569 156 C 533 142 495 135 457 135 Z M 918 532 C 935 497 955 464 977 433 C 999 401 1024 374 1050 351 C 1076 327 1104 309 1134 295 C 1163 281 1193 274 1225 274 C 1255 274 1283 279 1309 291 C 1335 303 1357 320 1376 342 C 1395 364 1410 391 1421 423 C 1432 455 1438 491 1438 532 C 1438 572 1432 609 1421 641 C 1410 673 1395 701 1376 723 C 1357 745 1335 761 1309 773 C 1283 785 1255 791 1225 791 C 1193 791 1163 784 1134 770 C 1104 756 1076 737 1050 714 C 1024 690 999 663 977 631 C 955 599 935 566 918 532 Z" horiz-adv-x="1690" />
<glyph unicode="" d="M 492 10 C 492 -70 480 -138 457 -194 C 434 -250 401 -295 359 -330 C 317 -365 265 -390 205 -406 C 144 -422 76 -430 0 -430 L 0 -291 C 58 -291 107 -285 148 -273 C 188 -261 221 -242 247 -218 C 272 -193 290 -162 302 -124 C 313 -86 319 -42 319 8 L 319 1151 C 319 1225 329 1287 349 1339 C 369 1391 398 1433 434 1465 C 470 1497 513 1521 563 1536 C 613 1551 669 1559 729 1559 C 759 1559 790 1556 822 1550 C 854 1544 880 1537 901 1530 L 860 1401 C 843 1406 823 1411 801 1415 C 779 1419 756 1421 733 1421 C 655 1421 595 1399 554 1355 C 512 1311 492 1244 492 1153 L 492 10 Z" horiz-adv-x="901" />
<glyph unicode="" d="M 98 653 C 98 661 97 669 97 676 C 96 683 96 690 96 696 C 96 738 102 776 114 810 C 126 844 144 873 167 897 C 189 921 217 940 250 953 C 282 966 319 973 360 973 C 398 973 433 968 466 958 C 499 948 531 935 561 920 C 591 905 619 889 647 871 C 675 853 702 837 729 822 C 755 807 782 795 809 785 C 836 775 864 770 893 770 C 936 770 970 784 995 812 C 1019 840 1030 882 1026 938 L 1159 938 C 1159 930 1159 922 1160 915 C 1160 907 1161 900 1161 893 C 1161 851 1155 814 1143 780 C 1131 746 1113 717 1091 693 C 1068 669 1040 650 1008 637 C 976 624 939 618 899 618 C 861 618 825 623 792 633 C 759 643 728 655 698 670 C 668 684 640 700 612 718 C 584 736 557 752 531 767 C 504 781 477 794 450 804 C 423 814 395 819 367 819 C 323 819 288 805 263 778 C 237 750 227 709 231 653 L 98 653 Z M 98 127 C 98 135 97 142 97 150 C 96 157 96 164 96 170 C 96 212 102 249 114 283 C 126 317 144 346 167 370 C 189 394 217 412 250 425 C 282 437 319 444 360 444 C 398 444 433 439 466 429 C 499 419 531 406 561 392 C 591 377 619 361 647 344 C 675 326 702 310 729 296 C 755 281 782 269 809 259 C 836 249 864 244 893 244 C 936 244 970 258 995 286 C 1019 314 1030 356 1026 412 L 1159 412 C 1159 403 1159 395 1160 388 C 1160 381 1161 374 1161 367 C 1161 325 1155 288 1143 254 C 1131 220 1113 190 1091 166 C 1068 142 1040 123 1008 110 C 976 96 939 90 899 90 C 861 90 825 95 792 105 C 759 115 728 127 698 142 C 668 157 640 173 612 191 C 584 209 557 225 531 240 C 504 255 477 268 450 278 C 423 288 395 293 367 293 C 323 293 288 279 263 252 C 237 224 227 183 231 127 L 98 127 Z" horiz-adv-x="1257" />
<glyph unicode="" d="M 96 854 L 782 854 L 930 1065 L 1067 1065 L 922 854 L 1161 854 L 1161 707 L 821 707 L 584 358 L 1161 358 L 1161 211 L 483 211 L 338 0 L 201 0 L 346 211 L 96 211 L 96 358 L 449 358 L 686 707 L 96 707 L 96 854 Z" horiz-adv-x="1257" />
<glyph unicode="" d="M 84 518 L 84 688 L 1192 1065 L 1192 903 L 322 602 L 1192 287 L 1192 125 L 84 518 Z M 84 125 L 1192 125 L 1192 0 L 84 0 L 84 125 Z" horiz-adv-x="1315" />
<glyph unicode="" d="M 125 125 L 125 287 L 995 602 L 125 903 L 125 1065 L 1233 688 L 1233 518 L 125 125 Z M 1233 0 L 125 0 L 125 125 L 1233 125 L 1233 0 Z" horiz-adv-x="1315" />
<glyph unicode="" d="M 205 1434 L 1636 1434 L 1636 0 L 205 0 L 205 1434 Z" horiz-adv-x="1843" />
<glyph unicode="" d="M 205 1434 L 1636 1434 L 1636 0 L 205 0 L 205 1434 Z M 1538 98 L 1538 1335 L 303 1335 L 303 98 L 1538 98 Z" horiz-adv-x="1843" />
<glyph unicode="" d="M 205 1434 L 1636 1434 L 1636 0 L 205 0 L 205 1434 Z M 1538 98 L 1538 1335 L 303 1335 L 303 98 L 1538 98 Z M 827 715 L 535 1024 L 635 1120 L 922 813 L 1210 1118 L 1309 1024 L 1018 715 L 1311 408 L 1210 311 L 922 616 L 633 311 L 535 406 L 827 715 Z" horiz-adv-x="1843" />
<glyph unicode="" d="M 922 1229 L 1595 94 L 246 94 L 922 1229 Z" horiz-adv-x="1843" />
<glyph unicode="" d="M 354 -29 L 354 1321 L 1489 647 L 354 -29 Z" horiz-adv-x="1843" />
<glyph unicode="" d="M 920 80 L 246 1214 L 1595 1214 L 920 80 Z" horiz-adv-x="1843" />
<glyph unicode="" d="M 354 647 L 1489 1321 L 1489 -29 L 354 647 Z" horiz-adv-x="1843" />
<glyph unicode="" d="M 702 715 C 702 685 707 656 719 630 C 731 604 746 581 766 561 C 786 541 809 526 835 515 C 861 503 890 498 920 498 C 950 498 978 503 1005 515 C 1031 526 1054 541 1074 561 C 1094 581 1109 604 1121 630 C 1133 656 1139 685 1139 715 C 1139 745 1133 773 1121 800 C 1109 826 1094 850 1074 870 C 1054 890 1031 905 1005 917 C 978 928 950 934 920 934 C 890 934 861 928 835 917 C 809 905 786 890 766 870 C 746 850 731 826 719 800 C 707 773 702 745 702 715 Z M 440 715 C 440 781 452 844 477 903 C 502 961 536 1012 580 1056 C 623 1099 674 1133 732 1158 C 790 1183 853 1196 920 1196 C 986 1196 1049 1183 1108 1158 C 1166 1133 1217 1099 1261 1056 C 1304 1012 1338 961 1363 903 C 1388 844 1401 781 1401 715 C 1401 648 1388 586 1363 528 C 1338 470 1304 419 1261 376 C 1217 332 1166 298 1108 273 C 1049 248 986 236 920 236 C 853 236 790 248 732 273 C 674 298 623 332 580 376 C 536 419 502 470 477 528 C 452 586 440 648 440 715 Z M 178 715 C 178 783 186 848 204 912 C 222 975 247 1034 279 1089 C 311 1144 350 1194 395 1240 C 440 1285 490 1324 545 1356 C 600 1388 659 1413 722 1431 C 785 1449 851 1458 920 1458 C 988 1458 1053 1449 1117 1431 C 1180 1413 1239 1388 1294 1356 C 1349 1324 1399 1285 1445 1240 C 1490 1194 1529 1144 1561 1089 C 1593 1034 1618 975 1636 912 C 1654 848 1663 783 1663 715 C 1663 647 1654 581 1636 518 C 1618 454 1593 395 1561 340 C 1529 285 1490 235 1445 190 C 1399 145 1349 106 1294 74 C 1239 42 1180 17 1117 0 C 1053 -18 988 -27 920 -27 C 852 -27 786 -18 723 0 C 659 17 600 42 545 74 C 490 106 440 145 395 190 C 350 235 311 285 279 340 C 247 395 222 454 204 517 C 186 580 178 646 178 715 Z M 305 715 C 305 629 321 549 353 475 C 385 400 430 335 486 279 C 542 223 607 178 682 146 C 756 114 836 98 922 98 C 978 98 1033 105 1086 120 C 1138 134 1187 155 1233 182 C 1279 209 1320 241 1358 279 C 1396 316 1428 357 1455 403 C 1482 449 1503 498 1518 551 C 1532 603 1540 658 1540 715 C 1540 771 1532 826 1518 879 C 1503 931 1482 980 1455 1026 C 1428 1072 1396 1113 1358 1151 C 1320 1189 1279 1221 1233 1248 C 1187 1275 1138 1296 1086 1311 C 1033 1325 978 1333 922 1333 C 865 1333 810 1325 758 1311 C 705 1296 656 1275 610 1248 C 564 1221 523 1189 486 1151 C 448 1113 416 1072 389 1026 C 362 980 341 931 327 879 C 312 826 305 771 305 715 Z" horiz-adv-x="1843" />
<glyph unicode="" d="M 645 188 L 1010 719 L 645 1251 L 285 719 L 645 188 Z M 645 1464 L 1159 719 L 645 -27 L 133 719 L 645 1464 Z" horiz-adv-x="1292" />
<glyph unicode="" d="M 178 715 C 178 783 186 848 204 912 C 222 975 247 1034 279 1089 C 311 1144 350 1194 395 1240 C 440 1285 490 1324 545 1356 C 600 1388 659 1413 722 1431 C 785 1449 851 1458 920 1458 C 988 1458 1053 1449 1117 1431 C 1180 1413 1239 1388 1294 1356 C 1349 1324 1399 1285 1445 1240 C 1490 1194 1529 1144 1561 1089 C 1593 1034 1618 975 1636 912 C 1654 848 1663 783 1663 715 C 1663 647 1654 581 1636 518 C 1618 454 1593 395 1561 340 C 1529 285 1490 235 1445 190 C 1399 145 1349 106 1294 74 C 1239 42 1180 17 1117 0 C 1053 -18 988 -27 920 -27 C 852 -27 786 -18 723 0 C 659 17 600 42 545 74 C 490 106 440 145 395 190 C 350 235 311 285 279 340 C 247 395 222 454 204 517 C 186 580 178 646 178 715 Z M 276 713 C 276 623 292 539 326 461 C 360 383 406 314 465 256 C 523 198 592 152 670 118 C 748 84 832 68 922 68 C 981 68 1038 75 1093 91 C 1148 106 1200 128 1248 156 C 1296 184 1339 217 1379 256 C 1418 295 1452 339 1480 387 C 1508 435 1530 486 1546 541 C 1561 596 1569 653 1569 713 C 1569 772 1561 829 1546 884 C 1530 939 1508 991 1480 1039 C 1452 1087 1418 1131 1379 1171 C 1339 1210 1296 1244 1248 1272 C 1200 1300 1148 1322 1093 1338 C 1038 1354 981 1362 922 1362 C 862 1362 805 1354 750 1338 C 695 1322 644 1300 596 1272 C 548 1244 504 1210 465 1171 C 425 1131 392 1087 364 1039 C 336 991 314 939 299 884 C 283 829 276 772 276 713 Z" horiz-adv-x="1843" />
<glyph unicode="" d="M 178 715 C 178 783 186 848 204 912 C 222 975 247 1034 279 1089 C 311 1144 350 1194 395 1240 C 440 1285 490 1324 545 1356 C 600 1388 659 1413 722 1431 C 785 1449 851 1458 920 1458 C 988 1458 1053 1449 1117 1431 C 1180 1413 1239 1388 1294 1356 C 1349 1324 1399 1285 1445 1240 C 1490 1194 1529 1144 1561 1089 C 1593 1034 1618 975 1636 912 C 1654 848 1663 783 1663 715 C 1663 647 1654 581 1636 518 C 1618 454 1593 395 1561 340 C 1529 285 1490 235 1445 190 C 1399 145 1349 106 1294 74 C 1239 42 1180 17 1117 0 C 1053 -18 988 -27 920 -27 C 852 -27 786 -18 723 0 C 659 17 600 42 545 74 C 490 106 440 145 395 190 C 350 235 311 285 279 340 C 247 395 222 454 204 517 C 186 580 178 646 178 715 Z M 276 713 C 276 623 292 539 326 461 C 360 383 406 314 465 256 C 523 198 592 152 670 118 C 748 84 832 68 922 68 C 981 68 1038 75 1093 91 C 1148 106 1200 128 1248 156 C 1296 184 1339 217 1379 256 C 1418 295 1452 339 1480 387 C 1508 435 1530 486 1546 541 C 1561 596 1569 653 1569 713 C 1569 772 1561 829 1546 884 C 1530 939 1508 991 1480 1039 C 1452 1087 1418 1131 1379 1171 C 1339 1210 1296 1244 1248 1272 C 1200 1300 1148 1322 1093 1338 C 1038 1354 981 1362 922 1362 C 862 1362 805 1354 750 1338 C 695 1322 644 1300 596 1272 C 548 1244 504 1210 465 1171 C 425 1131 392 1087 364 1039 C 336 991 314 939 299 884 C 283 829 276 772 276 713 Z M 827 715 L 535 1024 L 635 1120 L 922 813 L 1210 1118 L 1309 1024 L 1018 715 L 1311 408 L 1210 311 L 922 616 L 633 311 L 535 406 L 827 715 Z" horiz-adv-x="1843" />
<glyph unicode="" d="M 829 715 C 829 690 837 669 855 652 C 872 635 894 627 920 627 C 944 627 965 635 983 652 C 1001 669 1010 690 1010 715 C 1010 727 1007 739 1003 751 C 998 762 991 772 983 780 C 975 788 965 795 954 800 C 943 804 932 807 920 807 C 894 807 872 798 855 780 C 837 762 829 740 829 715 Z M 702 715 C 702 745 707 773 719 800 C 731 826 746 850 766 870 C 786 890 809 905 835 917 C 861 928 890 934 920 934 C 950 934 978 928 1005 917 C 1031 905 1054 890 1074 870 C 1094 850 1109 826 1121 800 C 1133 773 1139 745 1139 715 C 1139 685 1133 656 1121 630 C 1109 604 1094 581 1074 561 C 1054 541 1031 526 1005 515 C 978 503 950 498 920 498 C 890 498 861 503 835 515 C 809 526 786 541 766 561 C 746 581 731 604 719 630 C 707 656 702 685 702 715 Z M 440 715 C 440 781 452 844 477 903 C 502 961 536 1012 580 1056 C 623 1099 674 1133 732 1158 C 790 1183 853 1196 920 1196 C 986 1196 1049 1183 1108 1158 C 1166 1133 1217 1099 1261 1056 C 1304 1012 1338 961 1363 903 C 1388 844 1401 781 1401 715 C 1401 648 1388 586 1363 528 C 1338 470 1304 419 1261 376 C 1217 332 1166 298 1108 273 C 1049 248 986 236 920 236 C 853 236 790 248 732 273 C 674 298 623 332 580 376 C 536 419 502 470 477 528 C 452 586 440 648 440 715 Z M 567 715 C 567 666 576 620 594 577 C 612 534 638 497 670 465 C 702 433 739 407 782 389 C 825 371 871 362 920 362 C 968 362 1014 371 1057 389 C 1100 407 1138 433 1170 465 C 1202 497 1227 534 1246 577 C 1264 620 1274 666 1274 715 C 1274 763 1264 809 1246 852 C 1227 895 1202 933 1170 965 C 1138 997 1100 1022 1057 1041 C 1014 1059 968 1069 920 1069 C 871 1069 825 1059 782 1041 C 739 1022 702 997 670 965 C 638 933 612 895 594 852 C 576 809 567 763 567 715 Z M 178 715 C 178 783 186 848 204 912 C 222 975 247 1034 279 1089 C 311 1144 350 1194 395 1240 C 440 1285 490 1324 545 1356 C 600 1388 659 1413 722 1431 C 785 1449 851 1458 920 1458 C 988 1458 1053 1449 1117 1431 C 1180 1413 1239 1388 1294 1356 C 1349 1324 1399 1285 1445 1240 C 1490 1194 1529 1144 1561 1089 C 1593 1034 1618 975 1636 912 C 1654 848 1663 783 1663 715 C 1663 647 1654 581 1636 518 C 1618 454 1593 395 1561 340 C 1529 285 1490 235 1445 190 C 1399 145 1349 106 1294 74 C 1239 42 1180 17 1117 0 C 1053 -18 988 -27 920 -27 C 852 -27 786 -18 723 0 C 659 17 600 42 545 74 C 490 106 440 145 395 190 C 350 235 311 285 279 340 C 247 395 222 454 204 517 C 186 580 178 646 178 715 Z M 305 715 C 305 629 321 549 353 475 C 385 400 430 335 486 279 C 542 223 607 178 682 146 C 756 114 836 98 922 98 C 978 98 1033 105 1086 120 C 1138 134 1187 155 1233 182 C 1279 209 1320 241 1358 279 C 1396 316 1428 357 1455 403 C 1482 449 1503 498 1518 551 C 1532 603 1540 658 1540 715 C 1540 771 1532 826 1518 879 C 1503 931 1482 980 1455 1026 C 1428 1072 1396 1113 1358 1151 C 1320 1189 1279 1221 1233 1248 C 1187 1275 1138 1296 1086 1311 C 1033 1325 978 1333 922 1333 C 865 1333 810 1325 758 1311 C 705 1296 656 1275 610 1248 C 564 1221 523 1189 486 1151 C 448 1113 416 1072 389 1026 C 362 980 341 931 327 879 C 312 826 305 771 305 715 Z" horiz-adv-x="1843" />
<glyph unicode="" d="M 178 715 C 178 783 186 848 204 912 C 222 975 247 1034 279 1089 C 311 1144 350 1194 395 1240 C 440 1285 490 1324 545 1356 C 600 1388 659 1413 722 1431 C 785 1449 851 1458 920 1458 C 988 1458 1053 1449 1117 1431 C 1180 1413 1239 1388 1294 1356 C 1349 1324 1399 1285 1445 1240 C 1490 1194 1529 1144 1561 1089 C 1593 1034 1618 975 1636 912 C 1654 848 1663 783 1663 715 C 1663 647 1654 581 1636 518 C 1618 454 1593 395 1561 340 C 1529 285 1490 235 1445 190 C 1399 145 1349 106 1294 74 C 1239 42 1180 17 1117 0 C 1053 -18 988 -27 920 -27 C 852 -27 786 -18 723 0 C 659 17 600 42 545 74 C 490 106 440 145 395 190 C 350 235 311 285 279 340 C 247 395 222 454 204 517 C 186 580 178 646 178 715 Z" horiz-adv-x="1843" />
<glyph unicode="" d="M 246 0 L 1567 1321 L 1567 0 L 246 0 Z" horiz-adv-x="1843" />
<glyph unicode="" d="M 276 0 L 276 1321 L 1597 0 L 276 0 Z" horiz-adv-x="1843" />
<glyph unicode="" d="M 1597 1434 L 276 113 L 276 1434 L 1597 1434 Z" horiz-adv-x="1843" />
<glyph unicode="" d="M 1567 1434 L 1567 113 L 246 1434 L 1567 1434 Z" horiz-adv-x="1843" />
<glyph unicode="" d="M 920 403 L 1290 207 L 1219 618 L 1520 913 L 1104 973 L 920 1350 L 735 973 L 319 913 L 621 618 L 547 207 L 920 403 Z M 178 715 C 178 783 186 848 204 912 C 222 975 247 1034 279 1089 C 311 1144 350 1194 395 1240 C 440 1285 490 1324 545 1356 C 600 1388 659 1413 722 1431 C 785 1449 851 1458 920 1458 C 988 1458 1053 1449 1117 1431 C 1180 1413 1239 1388 1294 1356 C 1349 1324 1399 1285 1445 1240 C 1490 1194 1529 1144 1561 1089 C 1593 1034 1618 975 1636 912 C 1654 848 1663 783 1663 715 C 1663 647 1654 581 1636 518 C 1618 454 1593 395 1561 340 C 1529 285 1490 235 1445 190 C 1399 145 1349 106 1294 74 C 1239 42 1180 17 1117 0 C 1053 -18 988 -27 920 -27 C 852 -27 786 -18 723 0 C 659 17 600 42 545 74 C 490 106 440 145 395 190 C 350 235 311 285 279 340 C 247 395 222 454 204 517 C 186 580 178 646 178 715 Z" horiz-adv-x="1843" />
<glyph unicode="" d="M 872 926 L 406 926 L 406 0 L 236 0 L 236 926 L 47 926 L 47 1055 L 236 1055 L 236 1139 C 236 1213 245 1276 265 1328 C 285 1380 313 1422 349 1455 C 385 1487 429 1511 480 1526 C 530 1540 587 1548 649 1548 C 711 1548 770 1539 825 1522 C 880 1505 931 1482 977 1454 C 1014 1490 1060 1516 1114 1533 C 1168 1550 1230 1559 1300 1559 C 1374 1559 1446 1547 1516 1525 C 1586 1503 1649 1474 1706 1438 L 1636 1321 C 1612 1335 1587 1349 1561 1362 C 1535 1374 1507 1385 1479 1394 C 1450 1403 1421 1410 1392 1415 C 1363 1420 1335 1423 1307 1423 C 1263 1423 1225 1418 1192 1408 C 1158 1398 1130 1381 1108 1359 C 1085 1336 1068 1307 1057 1271 C 1045 1235 1040 1192 1040 1141 L 1040 1055 L 1335 1055 L 1335 926 L 1040 926 L 1040 0 L 872 0 L 872 926 Z M 1534 1057 L 1702 1057 L 1702 -51 C 1702 -119 1694 -177 1679 -225 C 1663 -273 1642 -312 1614 -342 C 1586 -372 1552 -395 1512 -409 C 1472 -423 1428 -430 1380 -430 C 1351 -430 1325 -427 1301 -423 C 1277 -418 1257 -413 1243 -408 L 1276 -274 C 1289 -278 1303 -282 1319 -285 C 1334 -287 1349 -289 1364 -289 C 1389 -289 1412 -284 1433 -276 C 1454 -268 1472 -254 1487 -236 C 1502 -218 1514 -194 1522 -165 C 1530 -135 1534 -99 1534 -57 L 1534 1057 Z M 406 1055 L 872 1055 L 872 1143 C 872 1184 875 1222 881 1256 C 887 1290 895 1322 907 1350 C 869 1371 829 1387 788 1397 C 747 1407 705 1413 662 1413 C 578 1413 514 1391 471 1349 C 427 1307 406 1237 406 1141 L 406 1055 Z" horiz-adv-x="1868" />
<glyph unicode="" d="M 872 926 L 406 926 L 406 0 L 236 0 L 236 926 L 47 926 L 47 1055 L 236 1055 L 236 1139 C 236 1213 245 1276 265 1328 C 285 1380 313 1422 349 1455 C 385 1487 429 1511 480 1526 C 530 1540 587 1548 649 1548 C 713 1548 772 1539 826 1522 C 880 1505 931 1482 979 1452 C 1015 1487 1058 1512 1110 1528 C 1162 1544 1220 1552 1284 1552 C 1348 1552 1408 1543 1463 1527 C 1517 1510 1568 1487 1616 1458 C 1652 1493 1695 1519 1746 1535 C 1796 1551 1853 1559 1915 1559 C 1929 1559 1944 1558 1960 1556 C 1976 1554 1991 1552 2006 1550 C 2020 1547 2034 1544 2048 1540 C 2062 1536 2074 1533 2085 1530 L 2044 1405 C 2028 1409 2009 1413 1987 1417 C 1965 1421 1942 1423 1919 1423 C 1841 1423 1782 1401 1740 1358 C 1698 1315 1677 1245 1677 1149 L 1677 1055 L 1972 1055 L 1972 926 L 1677 926 L 1677 0 L 1507 0 L 1507 926 L 1040 926 L 1040 0 L 872 0 L 872 926 Z M 1507 1055 L 1507 1143 C 1507 1186 1510 1225 1516 1260 C 1522 1294 1532 1326 1544 1356 C 1506 1377 1466 1393 1424 1403 C 1382 1413 1340 1419 1296 1419 C 1212 1419 1149 1397 1105 1353 C 1061 1309 1040 1239 1040 1143 L 1040 1055 L 1507 1055 Z M 406 1055 L 872 1055 L 872 1139 C 872 1181 875 1219 881 1254 C 887 1288 897 1320 909 1350 C 871 1371 831 1387 789 1397 C 747 1407 705 1413 662 1413 C 578 1413 514 1391 471 1349 C 427 1307 406 1237 406 1141 L 406 1055 Z" horiz-adv-x="2048" />
<glyph unicode="" d="M 236 926 L 47 926 L 47 1055 L 236 1055 L 236 1147 C 236 1218 246 1279 267 1331 C 287 1383 316 1425 354 1459 C 392 1493 437 1518 490 1534 C 543 1550 602 1559 668 1559 C 733 1559 792 1550 846 1534 C 899 1518 944 1493 982 1459 C 1020 1425 1049 1383 1069 1331 C 1089 1279 1100 1217 1100 1145 L 1100 518 L 1577 1063 L 1769 1063 L 1454 713 L 1833 0 L 1638 0 L 1343 590 L 1100 322 L 1100 0 L 930 0 L 930 1145 C 930 1239 907 1309 863 1355 C 818 1400 753 1423 668 1423 C 581 1423 516 1400 472 1355 C 428 1309 406 1239 406 1145 L 406 1055 L 700 1055 L 700 926 L 406 926 L 406 0 L 236 0 L 236 926 Z" horiz-adv-x="1876" />
<glyph unicode="" d="M 236 926 L 47 926 L 47 1055 L 236 1055 L 236 1143 C 236 1218 245 1282 265 1335 C 285 1387 313 1430 350 1464 C 387 1497 432 1521 485 1536 C 538 1551 598 1559 664 1559 C 738 1559 809 1547 879 1525 C 949 1503 1013 1474 1071 1438 L 1001 1321 C 977 1335 952 1349 925 1362 C 898 1374 870 1385 842 1394 C 814 1403 785 1410 756 1415 C 727 1420 699 1423 672 1423 C 628 1423 590 1418 557 1408 C 523 1398 495 1381 473 1359 C 451 1336 434 1307 423 1271 C 411 1235 406 1192 406 1141 L 406 1055 L 700 1055 L 700 926 L 406 926 L 406 0 L 236 0 L 236 926 Z M 897 1057 L 1067 1057 L 1067 -51 C 1067 -119 1059 -177 1044 -225 C 1028 -273 1006 -312 978 -342 C 950 -372 916 -395 876 -409 C 836 -423 791 -430 743 -430 C 715 -430 689 -427 665 -423 C 641 -418 621 -413 606 -408 L 639 -274 C 653 -278 668 -282 683 -285 C 697 -287 712 -289 727 -289 C 753 -289 776 -284 797 -276 C 818 -268 836 -254 851 -236 C 865 -218 877 -194 885 -165 C 893 -135 897 -99 897 -57 L 897 1057 Z" horiz-adv-x="1231" />
<glyph unicode="" d="M 109 543 C 109 625 120 699 144 765 C 168 831 201 887 243 934 C 285 981 335 1017 393 1043 C 451 1068 514 1081 584 1081 C 632 1081 674 1074 710 1062 C 746 1050 777 1034 803 1016 C 791 1030 779 1044 768 1060 C 757 1076 747 1093 739 1112 C 731 1130 724 1150 720 1172 C 715 1194 713 1218 713 1245 C 713 1283 720 1321 736 1358 C 752 1394 775 1427 805 1456 C 835 1484 873 1507 918 1524 C 963 1541 1015 1550 1073 1550 C 1130 1550 1182 1541 1228 1525 C 1274 1509 1313 1485 1345 1454 C 1377 1422 1401 1384 1418 1338 C 1435 1292 1444 1239 1444 1180 L 1444 1063 L 1747 1063 L 1747 932 L 1444 932 L 1444 287 C 1444 227 1455 184 1479 158 C 1502 132 1541 119 1595 119 C 1621 119 1646 123 1672 131 C 1697 139 1719 150 1739 164 L 1804 51 C 1772 28 1735 10 1694 -4 C 1652 -18 1611 -25 1569 -25 C 1466 -25 1391 1 1344 53 C 1297 105 1274 181 1274 283 L 1274 932 L 1096 932 L 1096 1063 L 1274 1063 L 1274 1180 C 1274 1216 1269 1249 1260 1279 C 1250 1309 1236 1336 1218 1358 C 1199 1380 1176 1397 1148 1409 C 1120 1421 1087 1427 1051 1427 C 1017 1427 987 1421 960 1410 C 932 1399 909 1384 889 1365 C 869 1346 854 1324 843 1298 C 832 1272 827 1245 827 1217 C 827 1167 838 1122 860 1082 C 882 1042 912 1005 952 969 L 868 858 C 853 868 837 879 819 890 C 801 900 782 910 761 918 C 740 926 718 933 694 938 C 670 943 644 946 616 946 C 566 946 521 936 480 918 C 439 899 404 872 375 837 C 345 802 322 760 306 710 C 289 660 281 605 281 543 C 281 477 289 417 305 365 C 321 312 343 267 373 231 C 402 194 437 166 478 146 C 519 126 565 117 616 117 C 674 117 724 126 766 145 C 808 163 847 187 883 217 L 981 113 C 929 67 874 33 816 9 C 758 -15 690 -27 612 -27 C 537 -27 469 -13 407 12 C 345 38 292 76 248 125 C 204 174 169 234 145 305 C 121 375 109 455 109 543 Z" horiz-adv-x="1841" />
<glyph unicode="" d="M 236 926 L 47 926 L 47 1055 L 236 1055 L 236 1147 C 236 1218 246 1279 267 1331 C 287 1383 316 1425 354 1459 C 392 1493 437 1518 490 1534 C 543 1550 602 1559 668 1559 C 733 1559 792 1550 846 1534 C 899 1518 944 1493 982 1459 C 1020 1425 1049 1383 1069 1331 C 1089 1279 1100 1217 1100 1145 L 1100 926 C 1121 949 1144 971 1169 991 C 1194 1011 1221 1028 1249 1043 C 1277 1057 1306 1069 1338 1077 C 1369 1085 1402 1090 1436 1090 C 1500 1090 1559 1077 1612 1053 C 1664 1029 1709 993 1747 947 C 1785 901 1814 844 1835 777 C 1855 710 1866 634 1866 549 C 1866 458 1856 377 1836 306 C 1816 234 1787 174 1750 125 C 1713 75 1668 38 1615 12 C 1562 -14 1502 -27 1436 -27 C 1400 -27 1366 -22 1334 -14 C 1302 -6 1271 5 1243 20 C 1214 35 1187 53 1162 73 C 1136 93 1112 116 1090 141 L 1077 0 L 930 0 L 930 1145 C 930 1239 907 1309 863 1355 C 818 1400 753 1423 668 1423 C 581 1423 516 1400 472 1355 C 428 1309 406 1239 406 1145 L 406 1055 L 700 1055 L 700 926 L 406 926 L 406 0 L 236 0 L 236 926 Z M 1100 268 C 1143 218 1189 179 1238 152 C 1286 124 1340 111 1399 111 C 1447 111 1489 121 1526 141 C 1563 161 1594 190 1619 228 C 1644 266 1663 311 1676 365 C 1689 419 1696 479 1696 547 C 1696 611 1689 668 1676 718 C 1662 768 1643 811 1618 845 C 1592 879 1561 906 1524 924 C 1487 942 1445 952 1399 952 C 1338 952 1283 937 1235 908 C 1187 879 1142 841 1100 793 L 1100 268 Z" horiz-adv-x="1976" />
<glyph unicode="" d="M 872 926 L 406 926 L 406 0 L 236 0 L 236 926 L 47 926 L 47 1055 L 236 1055 L 236 1139 C 236 1213 245 1276 265 1328 C 285 1380 313 1422 349 1455 C 385 1487 429 1511 480 1526 C 530 1540 587 1548 649 1548 C 713 1548 773 1539 829 1521 C 884 1503 935 1480 983 1450 C 1021 1487 1067 1514 1121 1532 C 1175 1550 1236 1559 1305 1559 C 1370 1559 1429 1550 1482 1534 C 1535 1518 1580 1493 1618 1459 C 1655 1425 1684 1383 1704 1331 C 1724 1279 1735 1217 1735 1145 L 1735 926 C 1757 949 1780 971 1805 991 C 1830 1011 1857 1028 1885 1043 C 1913 1057 1942 1069 1973 1077 C 2004 1085 2037 1090 2071 1090 C 2135 1090 2194 1077 2248 1053 C 2301 1029 2346 993 2384 947 C 2422 901 2451 844 2472 777 C 2492 710 2503 634 2503 549 C 2503 458 2493 377 2473 306 C 2453 234 2424 174 2387 125 C 2350 75 2305 38 2252 12 C 2199 -14 2139 -27 2073 -27 C 2037 -27 2003 -22 1971 -14 C 1939 -6 1908 5 1880 20 C 1851 35 1824 53 1798 73 C 1772 93 1748 116 1726 141 L 1712 0 L 1565 0 L 1565 1145 C 1565 1239 1542 1309 1498 1355 C 1453 1400 1388 1423 1303 1423 C 1217 1423 1152 1400 1107 1355 C 1062 1309 1040 1239 1040 1145 L 1040 1055 L 1337 1055 L 1337 926 L 1040 926 L 1040 0 L 872 0 L 872 926 Z M 1735 268 C 1779 218 1825 179 1873 152 C 1921 124 1975 111 2034 111 C 2082 111 2125 121 2162 141 C 2199 161 2230 190 2256 228 C 2281 266 2300 311 2313 365 C 2326 419 2333 479 2333 547 C 2333 611 2326 668 2313 718 C 2299 768 2280 811 2254 845 C 2228 879 2197 906 2160 924 C 2123 942 2081 952 2034 952 C 1974 952 1919 937 1871 908 C 1822 879 1777 841 1735 793 L 1735 268 Z M 406 1055 L 872 1055 L 872 1147 C 872 1187 875 1223 881 1257 C 887 1291 897 1322 909 1350 C 871 1371 831 1387 789 1397 C 747 1407 705 1413 662 1413 C 578 1413 514 1391 471 1349 C 427 1307 406 1237 406 1141 L 406 1055 Z" horiz-adv-x="2611" />
<glyph unicode="" d="M 872 926 L 406 926 L 406 0 L 236 0 L 236 926 L 47 926 L 47 1055 L 236 1055 L 236 1139 C 236 1213 245 1276 265 1328 C 285 1380 313 1422 349 1455 C 385 1487 429 1511 480 1526 C 530 1540 587 1548 649 1548 C 713 1548 773 1539 829 1521 C 884 1503 935 1480 983 1450 C 1021 1487 1067 1514 1121 1532 C 1175 1550 1236 1559 1305 1559 C 1370 1559 1429 1550 1482 1534 C 1535 1518 1580 1493 1618 1459 C 1655 1425 1684 1383 1704 1331 C 1724 1279 1735 1217 1735 1145 L 1735 920 C 1757 943 1782 965 1808 986 C 1834 1006 1863 1024 1893 1040 C 1923 1055 1955 1067 1989 1076 C 2023 1085 2058 1090 2095 1090 C 2155 1090 2206 1081 2249 1063 C 2291 1045 2326 1020 2354 988 C 2381 956 2401 917 2414 872 C 2426 826 2433 776 2433 721 L 2433 0 L 2263 0 L 2263 723 C 2263 757 2259 788 2252 816 C 2245 844 2233 869 2217 889 C 2201 909 2180 924 2154 935 C 2128 946 2096 952 2058 952 C 1993 952 1934 937 1880 907 C 1826 877 1778 836 1735 784 L 1735 0 L 1565 0 L 1565 1145 C 1565 1239 1542 1309 1498 1355 C 1453 1400 1388 1423 1303 1423 C 1217 1423 1152 1400 1107 1355 C 1062 1309 1040 1239 1040 1145 L 1040 1055 L 1337 1055 L 1337 926 L 1040 926 L 1040 0 L 872 0 L 872 926 Z M 406 1055 L 872 1055 L 872 1147 C 872 1187 875 1223 881 1257 C 887 1291 897 1322 909 1350 C 871 1371 831 1387 789 1397 C 747 1407 705 1413 662 1413 C 578 1413 514 1391 471 1349 C 427 1307 406 1237 406 1141 L 406 1055 Z" horiz-adv-x="2591" />
<glyph unicode="" d="M 872 926 L 406 926 L 406 0 L 236 0 L 236 926 L 47 926 L 47 1055 L 236 1055 L 236 1139 C 236 1213 245 1276 265 1328 C 285 1380 313 1422 349 1455 C 385 1487 429 1511 480 1526 C 530 1540 587 1548 649 1548 C 713 1548 773 1539 829 1521 C 884 1503 935 1480 983 1450 C 1021 1487 1067 1514 1121 1532 C 1175 1550 1236 1559 1305 1559 C 1370 1559 1429 1550 1482 1534 C 1535 1518 1580 1493 1618 1459 C 1655 1425 1684 1383 1704 1331 C 1724 1279 1735 1217 1735 1145 L 1735 518 L 2212 1063 L 2404 1063 L 2089 715 L 2470 0 L 2275 0 L 1978 590 L 1735 322 L 1735 0 L 1565 0 L 1565 1145 C 1565 1239 1542 1309 1498 1355 C 1453 1400 1388 1423 1303 1423 C 1217 1423 1152 1400 1107 1355 C 1062 1309 1040 1239 1040 1145 L 1040 1055 L 1337 1055 L 1337 926 L 1040 926 L 1040 0 L 872 0 L 872 926 Z M 406 1055 L 872 1055 L 872 1147 C 872 1187 875 1223 881 1257 C 887 1291 897 1322 909 1350 C 871 1371 831 1387 789 1397 C 747 1407 705 1413 662 1413 C 578 1413 514 1391 471 1349 C 427 1307 406 1237 406 1141 L 406 1055 Z" horiz-adv-x="2513" />
<glyph unicode="" d="M 236 926 L 47 926 L 47 1055 L 236 1055 L 236 1147 C 236 1218 246 1279 267 1331 C 287 1383 316 1425 354 1459 C 392 1493 437 1518 490 1534 C 543 1550 602 1559 668 1559 C 733 1559 792 1550 846 1534 C 899 1518 944 1493 982 1459 C 1020 1425 1049 1383 1069 1331 C 1089 1279 1100 1217 1100 1145 L 1100 920 C 1122 943 1147 965 1173 986 C 1199 1006 1228 1024 1258 1040 C 1288 1055 1319 1067 1353 1076 C 1387 1085 1422 1090 1460 1090 C 1520 1090 1571 1081 1613 1063 C 1655 1045 1690 1020 1717 988 C 1744 956 1764 917 1777 872 C 1789 826 1796 776 1796 721 L 1796 0 L 1626 0 L 1626 723 C 1626 757 1622 788 1615 816 C 1608 844 1597 869 1581 889 C 1565 909 1544 924 1518 935 C 1492 946 1460 952 1423 952 C 1357 952 1297 937 1244 907 C 1191 877 1143 836 1100 784 L 1100 0 L 930 0 L 930 1145 C 930 1239 907 1309 863 1355 C 818 1400 753 1423 668 1423 C 581 1423 516 1400 472 1355 C 428 1309 406 1239 406 1145 L 406 1055 L 700 1055 L 700 926 L 406 926 L 406 0 L 236 0 L 236 926 Z" horiz-adv-x="1956" />
<glyph unicode="" d="M 872 926 L 406 926 L 406 0 L 236 0 L 236 926 L 47 926 L 47 1055 L 236 1055 L 236 1139 C 236 1213 245 1276 265 1328 C 285 1380 313 1422 349 1455 C 385 1487 429 1511 480 1526 C 530 1540 587 1548 649 1548 C 711 1548 770 1539 824 1522 C 878 1505 929 1482 975 1454 C 1011 1491 1054 1518 1106 1534 C 1158 1550 1215 1559 1278 1559 C 1292 1559 1307 1558 1323 1556 C 1339 1554 1354 1552 1370 1550 C 1385 1547 1399 1544 1413 1540 C 1427 1536 1439 1533 1450 1530 L 1409 1405 C 1392 1409 1372 1413 1350 1417 C 1328 1421 1305 1423 1282 1423 C 1204 1423 1145 1401 1103 1358 C 1061 1315 1040 1245 1040 1149 L 1040 1055 L 1337 1055 L 1337 926 L 1040 926 L 1040 0 L 872 0 L 872 926 Z M 872 1055 L 872 1143 C 872 1185 875 1223 881 1257 C 887 1291 895 1322 907 1350 C 869 1371 829 1387 788 1397 C 747 1407 705 1413 662 1413 C 578 1413 514 1391 471 1349 C 427 1307 406 1237 406 1141 L 406 1055 L 872 1055 Z" horiz-adv-x="1413" />
<glyph unicode="" d="M 236 926 L 47 926 L 47 1055 L 236 1055 L 236 1143 C 236 1218 245 1282 265 1335 C 285 1387 313 1430 350 1464 C 387 1497 432 1521 485 1536 C 538 1551 598 1559 664 1559 C 738 1559 809 1547 879 1525 C 949 1503 1013 1474 1071 1438 L 1001 1321 C 977 1335 952 1349 925 1362 C 898 1374 870 1385 842 1394 C 814 1403 785 1410 756 1415 C 727 1420 699 1423 672 1423 C 628 1423 590 1418 557 1408 C 523 1398 495 1381 473 1359 C 451 1336 434 1307 423 1271 C 411 1235 406 1192 406 1141 L 406 1055 L 700 1055 L 700 926 L 406 926 L 406 0 L 236 0 L 236 926 Z M 897 1057 L 1067 1057 L 1067 0 L 897 0 L 897 1057 Z" horiz-adv-x="1231" />
<glyph unicode="" d="M 236 926 L 47 926 L 47 1055 L 236 1055 L 236 1147 C 236 1218 246 1279 267 1331 C 287 1383 316 1425 354 1459 C 392 1493 437 1518 490 1534 C 543 1550 602 1559 668 1559 C 733 1559 792 1550 846 1534 C 899 1518 944 1493 982 1459 C 1020 1425 1049 1383 1069 1331 C 1089 1279 1100 1217 1100 1145 L 1100 0 L 930 0 L 930 1145 C 930 1239 907 1309 863 1355 C 818 1400 753 1423 668 1423 C 581 1423 516 1400 472 1355 C 428 1309 406 1239 406 1145 L 406 1055 L 700 1055 L 700 926 L 406 926 L 406 0 L 236 0 L 236 926 Z" horiz-adv-x="1264" />
<glyph unicode="" d="M 872 926 L 406 926 L 406 0 L 236 0 L 236 926 L 47 926 L 47 1055 L 236 1055 L 236 1139 C 236 1213 245 1276 265 1328 C 285 1380 313 1422 349 1455 C 385 1487 429 1511 480 1526 C 530 1540 587 1548 649 1548 C 711 1548 770 1539 825 1522 C 880 1505 931 1482 977 1454 C 1014 1490 1060 1516 1114 1533 C 1168 1550 1230 1559 1300 1559 C 1374 1559 1446 1547 1516 1525 C 1586 1503 1649 1474 1706 1438 L 1636 1321 C 1612 1335 1587 1349 1561 1362 C 1535 1374 1507 1385 1479 1394 C 1450 1403 1421 1410 1392 1415 C 1363 1420 1335 1423 1307 1423 C 1263 1423 1225 1418 1192 1408 C 1158 1398 1130 1381 1108 1359 C 1085 1336 1068 1307 1057 1271 C 1045 1235 1040 1192 1040 1141 L 1040 1055 L 1335 1055 L 1335 926 L 1040 926 L 1040 0 L 872 0 L 872 926 Z M 1534 1057 L 1702 1057 L 1702 0 L 1534 0 L 1534 1057 Z M 406 1055 L 872 1055 L 872 1143 C 872 1184 875 1222 881 1256 C 887 1290 895 1322 907 1350 C 869 1371 829 1387 788 1397 C 747 1407 705 1413 662 1413 C 578 1413 514 1391 471 1349 C 427 1307 406 1237 406 1141 L 406 1055 Z" horiz-adv-x="1868" />
<glyph unicode="" d="M 872 926 L 406 926 L 406 0 L 236 0 L 236 926 L 47 926 L 47 1055 L 236 1055 L 236 1139 C 236 1213 245 1276 265 1328 C 285 1380 313 1422 349 1455 C 385 1487 429 1511 480 1526 C 530 1540 587 1548 649 1548 C 713 1548 773 1539 829 1521 C 884 1503 935 1480 983 1450 C 1021 1487 1067 1514 1121 1532 C 1175 1550 1236 1559 1305 1559 C 1370 1559 1429 1550 1482 1534 C 1535 1518 1580 1493 1618 1459 C 1655 1425 1684 1383 1704 1331 C 1724 1279 1735 1217 1735 1145 L 1735 0 L 1565 0 L 1565 1145 C 1565 1239 1542 1309 1498 1355 C 1453 1400 1388 1423 1303 1423 C 1217 1423 1152 1400 1107 1355 C 1062 1309 1040 1239 1040 1145 L 1040 1055 L 1337 1055 L 1337 926 L 1040 926 L 1040 0 L 872 0 L 872 926 Z M 406 1055 L 872 1055 L 872 1147 C 872 1187 875 1223 881 1257 C 887 1291 897 1322 909 1350 C 871 1371 831 1387 789 1397 C 747 1407 705 1413 662 1413 C 578 1413 514 1391 471 1349 C 427 1307 406 1237 406 1141 L 406 1055 Z" horiz-adv-x="1898" />
<glyph unicode="" d="M 156 207 C 199 180 249 157 306 139 C 362 120 423 111 487 111 C 561 111 619 125 660 153 C 700 181 721 222 721 274 C 721 307 712 334 694 356 C 676 378 653 396 624 410 C 594 424 561 437 524 447 C 487 457 449 467 410 478 C 371 488 333 501 296 515 C 259 529 226 547 197 570 C 167 593 144 621 126 655 C 108 689 100 731 100 782 C 100 829 109 871 128 908 C 147 945 173 976 206 1002 C 238 1028 276 1047 320 1061 C 364 1074 410 1081 459 1081 C 508 1081 554 1075 596 1064 C 638 1052 673 1037 702 1018 C 690 1031 679 1045 669 1060 C 659 1075 650 1092 642 1110 C 634 1128 627 1147 623 1169 C 618 1190 616 1214 616 1241 C 616 1279 623 1317 639 1355 C 655 1392 678 1425 709 1454 C 739 1482 778 1505 824 1523 C 870 1541 923 1550 985 1550 C 1044 1550 1097 1541 1144 1525 C 1190 1508 1230 1484 1262 1452 C 1294 1420 1319 1382 1336 1336 C 1353 1290 1362 1237 1362 1178 L 1362 1063 L 1667 1063 L 1667 932 L 1362 932 L 1362 287 C 1362 227 1373 184 1397 158 C 1421 132 1460 119 1516 119 C 1541 119 1566 123 1592 131 C 1618 139 1640 150 1659 164 L 1724 51 C 1693 28 1657 10 1615 -4 C 1573 -18 1531 -25 1489 -25 C 1386 -25 1311 1 1264 53 C 1217 105 1194 181 1194 283 L 1194 932 L 1014 932 L 1014 1063 L 1194 1063 L 1194 1178 C 1194 1214 1189 1247 1180 1278 C 1170 1308 1156 1335 1137 1357 C 1118 1379 1094 1396 1066 1408 C 1037 1420 1003 1427 965 1427 C 929 1427 897 1421 869 1410 C 841 1398 816 1383 796 1364 C 776 1345 760 1323 749 1298 C 738 1272 733 1245 733 1217 C 733 1167 741 1125 759 1091 C 776 1057 804 1025 842 997 L 778 877 C 756 887 733 897 708 906 C 683 915 658 923 632 929 C 606 935 581 940 555 944 C 529 948 504 950 481 950 C 416 950 364 935 326 907 C 287 878 268 838 268 786 C 268 752 276 725 294 705 C 312 685 335 668 364 654 C 393 640 426 629 463 620 C 500 610 538 600 577 590 C 616 580 654 568 691 554 C 728 540 761 521 790 498 C 819 475 842 446 860 412 C 878 377 887 334 887 283 C 887 234 877 190 859 152 C 840 114 813 81 779 55 C 744 28 702 8 653 -6 C 603 -20 548 -27 487 -27 C 408 -27 334 -16 266 3 C 197 23 135 50 80 84 L 156 207 Z" horiz-adv-x="1761" />
</font>
</defs>
</svg>
